<?xml version="1.0" encoding="utf-8"?>
<!-- Generator: Adobe Illustrator 26.0.1, SVG Export Plug-In . SVG Version: 6.00 Build 0)  -->
<svg version="1.1" id="Layer_1" xmlns="http://www.w3.org/2000/svg" xmlns:xlink="http://www.w3.org/1999/xlink" x="0px" y="0px"
	 viewBox="0 0 99.9 42.8" style="enable-background:new 0 0 99.9 42.8;" xml:space="preserve">
<style type="text/css">
	.st0{fill:#2B3990;}
</style>
<g>
	<path class="st0" d="M7.5,30.2c-0.3,0.1-0.6,0.1-0.9,0.2C5,31.1,3.5,31.6,2,32.3c-1,0.5-1,1.2-0.1,1.8c0.9,0.5,1.8,1.1,2.7,1.5
		c4.9,2,9.8,3.9,14.8,5.7c4.1,1.5,8.5,1.9,12.9,1.2c2.5-0.4,4.8-1.3,7.2-2.2c3-1.2,6-1.7,9.2-1.5c3.6,0.2,7.2,0.5,10.9,0.5
		c3.8,0.1,7.2-1.3,10.1-4c1.6-1.5,3.3-2.8,4.9-4.2c0.6-0.5,1.2-0.5,1.7,0c0.4,0.3,0.8,0.6,1.2,0.9c0.8,0.5,1.8,0.4,2.2-0.4
		s0.2-1.7-0.7-2.1c-0.7-0.4-1.4-0.6-2-1.1c-0.5-0.3-0.9-0.8-1.2-1.2c-0.4-0.6-0.1-1,0.7-1c5.2,0,10.4,0,15.6,0
		c1.5,0,3.1,0.1,4.5,0.8c1,0.5,2,0.3,2.6-0.4c0.6-0.7,0.8-2.2,0.3-3.1c-0.4-0.9-1.1-1.1-2.3-0.9c-1.3,0.2-2.7,0.5-4,0.6
		c-4.5,0.4-9,0.3-13.5-0.1c-1.2-0.1-2.4-0.3-3.5-0.6c-1.6-0.5-3.4-1.8-3-4.3c0.1-0.9,0.2-1.8,0.4-2.7c0.9-4.4,1.9-8.6,5.6-11.8
		C80,2.9,80,1.9,79.5,1.2c-0.7-0.9-1.6-1.4-2.7-1.1c-1.1,0.2-1.4,1.2-1.7,2.1c-0.2,0.9-0.4,1.9-0.7,2.8c-1.4,3.2-2.8,6.4-4.2,9.6
		c-1.1,2.6-2.8,4.4-5.6,5.1c-2.4,0.6-4.7,1.5-7.1,2c-2.2,0.5-4.4,0.6-6.5,0.9c-1,0.1-1,0-1-1c0.2-1.8,0.4-3.6,0.5-5.4
		c0.1-2.1-0.2-4.1-1.4-5.9c-3.9-5.9-9.3-9.3-16.5-9.8C27.3,0.2,22,0.8,16.8,1.8c-2.1,0.4-4.1,1.2-6,2.3c-3.4,2-6.1,4.7-8.7,7.7
		c-1.1,1.3-2,2.7-2.1,4.4c-0.2,2.7,0.4,5.2,2,7.4c1.2,1.6,2.4,3.3,4.4,4.2c0.2,0.1,0.3,0.3,0.4,0.5C7.1,28.9,7.2,29.6,7.5,30.2z"/>
	<path class="st0" d="M7.5,30.2c-0.2-0.7-0.4-1.3-0.6-2c-0.1-0.2-0.2-0.4-0.4-0.5c-2-0.9-3.2-2.6-4.4-4.2c-1.6-2.2-2.2-4.7-2-7.4
		c0.1-1.7,1-3.1,2.1-4.4C4.6,8.7,7.4,6,10.8,4c1.9-1.1,3.8-1.9,6-2.3C22,0.8,27.3,0.1,32.6,0.5c7.2,0.4,12.6,3.9,16.5,9.8
		c1.2,1.8,1.5,3.8,1.4,5.9c0,1.8-0.3,3.6-0.5,5.4c-0.1,1,0,1.1,1,1c2.2-0.2,4.4-0.4,6.5-0.9c2.4-0.5,4.7-1.4,7.1-2
		c2.8-0.7,4.5-2.5,5.6-5.1c1.4-3.2,2.8-6.4,4.2-9.6c0.4-0.9,0.5-1.8,0.7-2.8c0.2-1,0.6-1.9,1.7-2.1c1.2-0.2,2,0.3,2.7,1.1
		C80,1.9,80,2.9,79.2,3.6c-3.6,3.2-4.7,7.4-5.6,11.8c-0.2,0.9-0.2,1.8-0.4,2.7c-0.4,2.5,1.4,3.8,3,4.3c1.1,0.3,2.3,0.5,3.5,0.6
		c4.5,0.4,9,0.5,13.5,0.1c1.3-0.1,2.7-0.4,4-0.6c1.2-0.2,1.8,0.1,2.3,0.9c0.5,1,0.4,2.5-0.3,3.1c-0.6,0.7-1.7,0.9-2.6,0.4
		c-1.4-0.7-2.9-0.8-4.5-0.8c-5.2,0-10.4,0-15.6,0c-0.8,0-1,0.3-0.7,1c0.3,0.5,0.7,0.9,1.2,1.2c0.6,0.4,1.3,0.7,2,1.1
		c0.8,0.4,1.1,1.4,0.7,2.1c-0.5,0.7-1.5,0.9-2.2,0.4c-0.4-0.3-0.8-0.6-1.2-0.9c-0.6-0.4-1.1-0.5-1.7,0c-1.6,1.4-3.3,2.7-4.9,4.2
		c-2.9,2.7-6.3,4-10.1,4c-3.6-0.1-7.3-0.3-10.9-0.5c-3.2-0.2-6.2,0.3-9.2,1.5c-2.3,1-4.7,1.8-7.2,2.2c-4.5,0.7-8.8,0.3-12.9-1.2
		c-5-1.8-9.9-3.8-14.8-5.7c-1-0.4-1.8-0.9-2.7-1.5c-1-0.6-1-1.3,0.1-1.8C3.4,31.5,5,31,6.6,30.4C6.9,30.4,7.1,30.3,7.5,30.2z"/>
</g>
</svg>
