<?xml version="1.0" encoding="utf-8"?>
<!-- Generator: Adobe Illustrator 26.0.1, SVG Export Plug-In . SVG Version: 6.00 Build 0)  -->
<!DOCTYPE svg PUBLIC "-//W3C//DTD SVG 1.1//EN" "http://www.w3.org/Graphics/SVG/1.1/DTD/svg11.dtd" [
	<!ENTITY ns_extend "http://ns.adobe.com/Extensibility/1.0/">
	<!ENTITY ns_ai "http://ns.adobe.com/AdobeIllustrator/10.0/">
	<!ENTITY ns_graphs "http://ns.adobe.com/Graphs/1.0/">
	<!ENTITY ns_vars "http://ns.adobe.com/Variables/1.0/">
	<!ENTITY ns_imrep "http://ns.adobe.com/ImageReplacement/1.0/">
	<!ENTITY ns_sfw "http://ns.adobe.com/SaveForWeb/1.0/">
	<!ENTITY ns_custom "http://ns.adobe.com/GenericCustomNamespace/1.0/">
	<!ENTITY ns_adobe_xpath "http://ns.adobe.com/XPath/1.0/">
]>
<svg version="1.1" id="Layer_1" xmlns:x="&ns_extend;" xmlns:i="&ns_ai;" xmlns:graph="&ns_graphs;"
	 xmlns="http://www.w3.org/2000/svg" xmlns:xlink="http://www.w3.org/1999/xlink" x="0px" y="0px" viewBox="0 0 1000 1000"
	 style="enable-background:new 0 0 1000 1000;" xml:space="preserve">
<style type="text/css">
	.st0{fill:#FFFFFF;}
</style>
<metadata>
	<sfw  xmlns="&ns_sfw;">
		<slices></slices>
		<sliceSourceBounds  bottomLeftOrigin="true" height="1000" width="1000" x="0" y="0"></sliceSourceBounds>
	</sfw>
</metadata>
<g>
	<path class="st0" d="M500,999c-67.4,0-132.7-13.2-194.2-39.2c-59.4-25.1-112.8-61.1-158.6-106.9C101.3,807,65.3,753.7,40.2,694.2
		C14.2,632.7,1,567.4,1,500s13.2-132.7,39.2-194.2c25.1-59.4,61.1-112.8,106.9-158.6s99.2-81.8,158.6-106.9
		C367.3,14.2,432.6,1,500,1s132.7,13.2,194.2,39.2c59.4,25.1,112.8,61.1,158.6,106.9c45.8,45.8,81.8,99.2,106.9,158.6
		c26,61.5,39.2,126.9,39.2,194.2s-13.2,132.7-39.2,194.2c-25.1,59.4-61.1,112.8-106.9,158.6c-45.8,45.8-99.2,81.8-158.6,106.9
		C632.7,985.8,567.4,999,500,999z"/>
	<path d="M500,2c67.2,0,132.4,13.2,193.8,39.1c59.3,25.1,112.6,61,158.3,106.7c45.7,45.7,81.6,99,106.7,158.3
		c26,61.4,39.1,126.6,39.1,193.8s-13.2,132.4-39.1,193.8c-25.1,59.3-61,112.6-106.7,158.3c-45.7,45.7-99,81.6-158.3,106.7
		C632.4,984.8,567.2,998,500,998s-132.4-13.2-193.8-39.1c-59.3-25.1-112.6-61-158.3-106.7s-81.6-99-106.7-158.3
		C15.2,632.4,2,567.2,2,500s13.2-132.4,39.1-193.8c25.1-59.3,61-112.6,106.7-158.3c45.7-45.7,99-81.6,158.3-106.7
		C367.6,15.2,432.8,2,500,2 M500,0C223.9,0,0,223.9,0,500s223.9,500,500,500s500-223.9,500-500S776.1,0,500,0L500,0z"/>
</g>
<g>
	<g>
		<path d="M916.2,258.1h-67.4v9.4l9,5c5.6,0,10.3,0.6,14,1.8c0.7,1.1,1,2.4,1,3.8c0,4.3-1.6,9.4-4.6,15.1l-24.6,47.6l-27-55.9
			c-1.3-2.2-2-4.5-2-6.9c0-3.6,4.2-5.5,12.5-5.5h5.4v-5.4l-5-9h-84.9l0.1,2.1l0.3,5.4l0.1,1.9l8.9,5h3.6c2.4,0,4.6,0.2,6.5,0.7
			c0.8,1.1,1.6,2.4,2.3,3.8l52.9,109.4l0.6,1.1l8.3,5h12.3l48.8-93.4c2.9-5.6,5.9-10.1,9-13.7c3.1-3.5,6.2-6.2,9.2-8s5.8-3,8.5-3.7
			c2.7-0.6,5.2-1.1,7.6-1.2v-5.4L916.2,258.1z M914.2,265.5c-2.4,0.2-4.9,0.6-7.6,1.2c-0.5,0.1-1,0.2-1.5,0.4
			c-0.5,0.2-1.1,0.3-1.6,0.6c-0.3,0.1-0.5,0.2-0.8,0.3c-0.4,0.2-0.8,0.3-1.2,0.5s-0.8,0.4-1.2,0.6c-0.7,0.4-1.5,0.8-2.2,1.2
			c-3,1.8-6,4.5-9.2,8c-2.6,3-5.2,6.7-7.6,11.1c-0.5,0.8-0.9,1.7-1.4,2.6l-31.1,59.6l-17.7,33.8h-12.3L766,276.1
			c-0.3-0.7-0.6-1.3-1-1.8c-1.6-2.9-3.6-5-5.7-6.3c-0.5-0.3-1-0.6-1.6-0.8c-2.4-1.1-5.5-1.6-9.3-1.6h-3.6l-0.3-5.4h80.8v5.4h-5.4
			c-4.6,0-7.9,0.5-10,1.6c-1.7,0.9-2.6,2.2-2.6,3.8c0,2.4,0.7,4.7,2,6.9l33.2,68.8l1.9-3.6l25.3-48.9c3.2-6.1,4.9-11.5,4.9-16.1
			c0-1-0.1-1.9-0.4-2.8l0,0c-0.8-2.6-2.8-4.8-5.9-6.5c-1.2-0.6-2.6-1.2-4.2-1.6c-3.7-1.1-8.2-1.6-13.6-1.6v-5.4h63.4v5.3H914.2z"/>
	</g>
</g>
<g>
	<g>
		<path d="M245.1,258.1h-60.5v9.1l9,5.3c4.3,0.6,8,1.6,11.2,2.9c1.5,1.6,2.8,3.5,3.7,5.8c1.7,4,2.6,9.4,2.6,15.8v49.2
			c0,5.9-1.6,11.3-4.8,16s-7.8,8.5-13.6,11.1c-5.9,2.7-12.7,4-20.2,4c-9.2,0-16.2-2-20.6-6c-1.7-4.4-2.5-9.7-2.5-16.2v-69.6
			c0-4.9,1.2-8.3,3.7-10.2c2.4-1.9,6.9-2.8,13.3-2.8h4.7v-5.4l-5-9H81v9.4l9,5h6.1c2.7,0,5,0.2,6.9,0.5c0.5,1.5,0.7,3.3,0.7,5.5
			v62.2c0,8.7,1.3,15.7,3.8,20.7s6.4,9.6,11.8,13.7c2.1,1.6,20.5,17.3,53.3,17.3c11.5,0,21.4-1.6,29.6-4.8c8.2-3.2,14.5-7.9,18.7-14
			s6.4-13.5,6.4-22.2v-51.5c0-8.4,1.9-14.8,5.7-19.3s9.5-7.2,17.1-8v-5.4L245.1,258.1z M243.1,265.5c-2.7,0.3-5.2,0.9-7.4,1.6
			c-4,1.4-7.2,3.5-9.6,6.4c-3.8,4.5-5.7,10.9-5.7,19.3v51.5c0,1.5-0.1,3-0.2,4.5c-0.3,3.3-0.9,6.4-1.9,9.2c-1,3.1-2.5,5.9-4.3,8.5
			c-4.3,6.1-10.5,10.8-18.7,14s-18.1,4.8-29.6,4.8c-19.8,0-34.8-4-45.1-11.9c-0.3-0.2-0.5-0.4-0.8-0.6c-4.7-3.8-8.2-7.9-10.4-12.4
			c-2.4-4.8-3.5-11.3-3.5-19.8v-62.2c0-1.9-0.2-3.6-0.5-5.1c-0.2-1-0.6-1.9-1-2.7c-0.9-1.6-2.2-2.8-4-3.6c-0.4-0.2-0.8-0.3-1.2-0.5
			c-2.4-0.8-5.8-1.2-9.9-1.2H83v-5.4h81v5.4h-4.7c-4.9,0-8.6,0.5-11.2,1.6c-0.8,0.3-1.5,0.7-2.1,1.2c-2.4,1.9-3.7,5.3-3.7,10.2v69.6
			c0,10.9,2.4,18.7,7.2,23.7c1.2,1.2,2.6,2.3,4.2,3.3c4.7,2.8,10.9,4.2,18.8,4.2c7.8,0,14.8-1.4,21-4.2c6.2-2.8,11-6.7,14.4-11.8
			c3.4-5.1,5.1-10.8,5.1-17.1v-49.2c0-6.7-0.9-12.3-2.7-16.6c-0.4-1-0.9-2-1.5-2.9c-1.8-2.9-4.1-5.3-7.1-7.1
			c-2.2-1.3-4.7-2.4-7.5-3.2c-2.3-0.7-4.9-1.2-7.6-1.6V260h56.5L243.1,265.5L243.1,265.5z"/>
	</g>
</g>
<g>
	<path d="M928.4,696.4h-10.1V716c0,3.6-0.8,6.6-2.5,8.9c-1.5,2.1-3.3,3.2-5.3,3.2c-0.4,0-0.8,0-1.1-0.1c-0.2-1.2-0.4-2.6-0.6-4.1
		c-1.8-13.6-10.7-24.8-12.1-26.7c-4.1-5.5-10-10-17.4-13.5c-0.6-0.3-1.2-0.5-1.9-0.8c5.1-0.7,9.9-1.9,14.5-3.4
		c7.4-2.7,13.2-6.4,17.4-11s6.3-10.1,6.3-16.4c0-12.7-8.3-22.6-21-29.5c-10.2-5.6-24.2-8.3-41.8-8.3h-85.3v9.4l9,5h6.2
		c2.6,0,4.9,0.2,6.8,0.5c0.5,1.5,0.8,3.3,0.8,5.5v84.5c0,5.8-1.2,8.1-2.1,9c-0.8,0.8-3.3,2-10.4,2h-10.2v9.4l9,5h83.3v-5.4l-5-9h-13
		c-2.4,0-4.2-0.1-5.5-0.3c-0.1-1.1-0.1-2.3-0.1-3.7v-39.8h8.8c3.3,0,6.3,0.5,8.9,1.4c0.1,0.1,0.2,0.3,0.4,0.4
		c3.9,4.7,6.5,12.2,7.8,22.5l0.4,4c0.6,5.6,2.5,10.3,5.2,14.5c5.5,8.3,15.6,17.2,33.2,17.2c10.5,0,18.2-2.1,23.8-6.3
		c4.9-3.7,7.6-8.3,8.3-14c0.1-0.6,0.1-1.2,0.1-1.8c0-0.1,0-0.7,0-0.9v-17.9L928.4,696.4z M926.4,716.4c0,0.1,0,0.7,0,0.9
		c0,0.6-0.1,1.2-0.1,1.8c-0.7,5.7-3.4,10.3-8.3,14c-5.6,4.2-13.1,6.3-22.3,6.3c-6.3,0-10.8-0.9-15.3-2.9c-1.6-0.7-3-1.4-4.4-2.3
		c-2.5-1.7-4.7-3.7-6.4-6.2c-2.7-3.8-4.3-8.3-4.9-13.6l-0.5-4c-1.1-9-3.2-15.9-6.3-20.9c-0.6-1-1.2-1.8-1.9-2.6
		c-2.2-2.7-5-4.7-8.3-5.9c-2.8-1.1-6-1.6-9.6-1.6h-8.8v39.8c0,4.1,0.3,7,0.8,8.7s1.7,2.9,3.4,3.4c0.8,0.3,1.8,0.5,3.1,0.6
		c1.5,0.2,3.2,0.3,5.3,0.3h11v5.4h-83.3v-5.4h8.2c5.9,0,9.8-0.8,11.7-2.5s2.8-5.2,2.8-10.5v-84.5c0-1.9-0.2-3.6-0.5-5
		s-0.8-2.5-1.5-3.5c-0.2-0.3-0.5-0.6-0.7-0.9c-0.3-0.3-0.5-0.5-0.8-0.8c-0.6-0.4-1.2-0.8-2-1.1l0,0c-2.5-1.1-6.2-1.6-11-1.6h-6.2
		v-5.4h83.3c17.3,0,30.9,2.7,40.9,8c5,2.7,8.8,5.9,11.2,9.6c2.4,3.6,3.7,7.8,3.7,12.4c0,5.5-2.1,10.5-6.3,15.1s-10,8.3-17.4,11
		c-4.9,1.6-10,2.8-15.5,3.6c-0.2,0-0.4,0-0.6,0.1c-2.6,0.3-5.3,0.7-8.2,0.9c-0.4,0-0.8,0.1-1.2,0.1c-0.8,0.1-1.6,0.1-2.4,0.2
		c-0.4,0-0.8,0.1-1.2,0.1s-0.8,0.1-1.2,0.1c-0.6,0-1.3,0.1-1.9,0.1c-0.6,0-1.3,0.1-1.9,0.1c0.3,0.1,0.7,0.1,1,0.2
		c0.3,0.1,0.7,0.1,1,0.2c0.7,0.1,1.4,0.2,2,0.4c1.4,0.2,2.7,0.5,3.9,0.8c0.8,0.2,1.6,0.3,2.3,0.5c4.5,1,8.5,2.2,12.2,3.6
		c1.8,0.7,3.5,1.4,5.1,2.1c7.1,3.3,12.6,7.5,16.5,12.7l0,0l0.1,0.1c3.9,5.2,6.2,11.4,6.7,18.5c0.5,4.7,1.4,8.1,2.7,10.2
		c1.2,1.8,3,2.8,5.4,3c0.2,0,0.4,0,0.6,0c2.7,0,5.1-1.3,7-4s2.9-6,2.9-10.1v-17.6h6.1L926.4,716.4L926.4,716.4z"/>
	<g>
		<path d="M850.9,677.9L850.9,677.9c0.3,0.1,0.7,0.1,1,0.2C851.6,678,851.2,677.9,850.9,677.9z"/>
		<path d="M865.1,630.6c-1.1-2.1-2.5-3.9-4.2-5.3c-0.9-0.8-2-1.5-3.3-2c-2.5-1.1-5.7-1.6-9.4-1.6H839c-2.5,0-4.6,0.6-6.3,1.6
			c-0.2,0.1-0.4,0.3-0.6,0.4c-1.8,1.4-2.7,3.2-2.7,5.3v45h8.3c7.5,0,13.4-0.5,17.5-1.4s7.4-3.3,9.7-7.2c2.4-3.9,3.5-9.8,3.5-17.8
			C868.4,640.5,867.3,634.8,865.1,630.6z M863.2,664.4c-2.1,3.4-4.8,5.5-8.4,6.3c-3.9,0.9-9.7,1.4-17,1.4h-1.3v-36
			c0-2.2,0.9-3.9,2.7-5.3s4.1-2.1,6.9-2.1h9.3c2.6,0,4.9,0.3,6.9,0.8c2.9,4,4.3,10.1,4.3,18.1C866.4,655.3,865.3,660.9,863.2,664.4z
			"/>
	</g>
</g>
<g>
	<g>
		<path d="M234.4,614.3h-62.7v9.1l9,5.3c4.6,0.7,8.5,1.6,11.9,2.9c1.2,1.4,2.3,3,3.2,4.8c2.3,4.4,3.5,10.6,3.6,18.4l0.6,43.4
			l-65.3-83.1l-0.6-0.8H82.5v9.4l9,5c3.8,0,7.2,0.4,10.1,1.1c0.4,0.5,0.8,1.1,1.2,1.7c2.3,3.6,3.5,9.4,3.5,17v54.9
			c0,7.6-1.5,13.8-4.6,18.4c-2.9,4.4-8.9,7.2-17.8,8.4l-1.7,0.2v9.1l9,5h61.4v-5.4l-5-8.9l-1.9-0.1c-4.7-0.3-8.4-1-10.7-1.9
			c-3.7-1.4-6.9-3.4-9.5-6c-1.7-4-2.6-8.7-2.6-13.9l-0.9-53.2l67.4,85.7l0.6,0.8l8,5h18.3L215,656v-0.7c0-8.3,1.9-14.4,5.7-18.6
			c3.8-4.1,10-6.8,18.7-8v-5.4L234.4,614.3z M232.4,621.7c-2.8,0.4-5.3,0.9-7.6,1.6c-4.8,1.5-8.5,3.6-11,6.4
			c-3.8,4.1-5.7,10.3-5.7,18.6v0.7l0.1,8.9l0.7,53.1l0.4,28.6H191l-69-87.7l-7-8.9l0.1,5.4l0.4,22.4l0.5,30.6
			c0.1,7.1,1.7,13.2,4.9,18.1c1.9,3,4.4,5.5,7.4,7.5c1.9,1.3,3.9,2.3,6.2,3.2c2.6,1,6.4,1.7,11.3,2v5.4H84.3v-5.4
			c9.5-1.3,15.9-4.4,19.2-9.3c3.3-4.9,4.9-11.4,4.9-19.5v-54.9c0-7.8-1.2-13.7-3.6-17.7c-0.1-0.1-0.2-0.3-0.2-0.4
			c-2.3-3.6-5-6-7.9-7.1c-0.3-0.1-0.5-0.2-0.8-0.3c-3.2-0.9-7-1.4-11.4-1.4v-5.4H133l5.5,7L202,704v-1.9l-0.6-47.4
			c-0.1-8.2-1.3-14.6-3.8-19.3c-0.4-0.8-0.8-1.5-1.2-2.2c-2.2-3.5-5-6.1-8.2-7.6c-1.9-0.9-4-1.7-6.4-2.4s-5.1-1.2-8-1.6v-5.4h58.7
			v5.5H232.4z"/>
	</g>
</g>
<g>
	<g>
		<path d="M782.4,771.5h-62.7v9.1l9,5.3c4.6,0.7,8.5,1.6,11.9,2.9c1.2,1.4,2.3,3,3.2,4.8c2.3,4.4,3.5,10.6,3.6,18.4l0.6,43.4
			l-65.3-83.1l-0.6-0.8h-51.4v9.4l9,5c3.8,0,7.2,0.4,10.1,1.1c0.4,0.5,0.8,1.1,1.2,1.7c2.3,3.6,3.5,9.4,3.5,17v54.9
			c0,7.6-1.5,13.8-4.6,18.4c-2.9,4.4-8.9,7.2-17.8,8.4l-1.7,0.2v9.1l9,5h61.4v-5.4l-5-8.9l-1.9-0.1c-4.7-0.3-8.4-1-10.7-1.9
			c-3.7-1.4-6.9-3.4-9.5-6c-1.7-4-2.6-8.7-2.6-13.9l-0.9-53.2l67.4,85.7l0.6,0.8l8,5h18.3l-1.3-90.6v-0.7c0-8.3,1.9-14.4,5.7-18.6
			c3.8-4.1,10-6.8,18.7-8v-5.4L782.4,771.5z M780.4,778.9c-2.8,0.4-5.3,0.9-7.6,1.6c-4.8,1.5-8.5,3.6-11,6.4
			c-3.8,4.1-5.7,10.3-5.7,18.6v0.7l0.1,8.9l0.7,53.1l0.4,28.6H739l-69.1-87.7l-7-8.9l0.1,5.4l0.4,22.4l0.5,30.6
			c0.1,7.1,1.7,13.2,4.9,18.1c1.9,3,4.4,5.5,7.4,7.5c1.9,1.3,3.9,2.3,6.2,3.2c2.6,1,6.4,1.7,11.3,2v5.4h-61.4v-5.4
			c9.5-1.3,15.9-4.4,19.2-9.3c3.3-4.9,4.9-11.4,4.9-19.5v-54.9c0-7.8-1.2-13.7-3.6-17.7c-0.1-0.1-0.2-0.3-0.2-0.4
			c-2.3-3.6-5-6-7.9-7.1c-0.3-0.1-0.5-0.2-0.8-0.3c-3.2-0.9-7-1.4-11.4-1.4v-5.4h48.4l5.5,7l63.5,80.8v-1.9l-0.6-47.4
			c-0.1-8.2-1.3-14.6-3.8-19.3c-0.4-0.8-0.8-1.5-1.2-2.2c-2.2-3.5-5-6.1-8.2-7.6c-1.9-0.9-4-1.7-6.4-2.4s-5.1-1.2-8-1.6v-5.4h58.7
			L780.4,778.9L780.4,778.9z"/>
	</g>
</g>
<g>
	<g>
		<path d="M174.1,434.8H42v49.9l9,5h6.1c1.4-7.4,2.9-13.7,4.6-19.1c1.7-5.3,4.7-10.2,9-14.7c4.2-4.5,9.9-6.7,16.9-6.7v90.6
			c0,5.8-1.2,8.1-2.2,9c-0.8,0.8-3.3,2-10.4,2H61v9.4l9,5h90.3v-5.4l-5-9h-15.8c-2.6,0-4.4-0.1-5.7-0.3c-0.1-1.1-0.1-2.3-0.1-3.7
			v-90.4c0-2.6,0.6-4.5,1.7-5.6c1.1-1.1,3.2-1.6,6.2-1.6c3.3,0,6.4,0.5,9.1,1.5c3.7,3.8,6.5,8.2,8.2,13.1c1.9,5.4,3.8,12,5.4,19.6
			l0.3,1.6l8.6,5h6v-46.1L174.1,434.8z M172.1,482.9h-6c-1.7-7.7-3.5-14.3-5.5-19.8c-1.3-3.6-3.1-7-5.4-10c-1.2-1.6-2.5-3.1-4-4.5
			c-2.1-2.1-4.5-3.6-7.3-4.7s-6-1.6-9.5-1.6c-3,0-5,0.5-6.2,1.6l0,0c-1.1,1.1-1.7,2.9-1.7,5.6v90.4c0,4.1,0.3,7,0.9,8.7
			c0.6,1.7,1.7,2.8,3.4,3.4c0.8,0.3,1.8,0.5,3,0.6c1.5,0.2,3.4,0.3,5.5,0.3h13.8v5.4H63v-5.4h12.1c5.9,0,9.8-0.9,11.7-2.6
			c1.9-1.7,2.8-5.2,2.8-10.4v-90.5c0-2.5-0.7-4.3-1.9-5.4c0,0,0,0-0.1-0.1c-1.3-1.1-3.6-1.6-6.9-1.6c-3.5,0-6.7,0.5-9.5,1.6
			c-2.9,1.1-5.4,2.8-7.6,5.1c-4.3,4.5-7.2,9.4-9,14.7c-1.3,4.2-2.6,9-3.7,14.4c-0.3,1.5-0.6,3-0.9,4.6h-6v-45.9h128.1V482.9z"/>
	</g>
</g>
<g>
	<g>
		<path d="M344.9,153.5c-6.6-6.2-14.2-11.3-22.9-14.8c-8.5-3.4-18.9-6.8-30.8-10.2c-10.7-3-19.1-5.7-25-8c-4.7-1.8-8.3-3.6-10.9-5.4
			V115c0-3.2,1.6-5.1,4.7-7.3c2.8-2,6.8-3.5,11-4.7c4.8-1.3,10.1-2.2,15.8-2.2c11.8,0,22.3,1.3,31.2,7.3c3.5,2.3,8.2,7.5,10.3,10.6
			c2.1,3.2,4.3,8,6.5,14.3l0.5,1.3l8.4,5h6V95.6l-5-9h-9.5l-0.6,1.1c-1.2,2.3-2.4,4.2-3.4,5.6c-0.9,1.4-2,2.6-3.1,3.6
			c-1,0.8-2.2,1.8-3.7,2.7c-6.1-4.1-12.8-7.3-19.9-9.6c-7.5-2.4-15.4-3.6-23.5-3.6c-10,0-18.9,1.5-26.6,4.5c-7.7,3-13.8,7.3-18,12.9
			c-4.4,5.7-6.5,12.5-6.5,21.4c0,6,1.9,11.2,4.4,16.2c3,6.2,13.1,13.5,20,17.9c4,2.6,9.5,5.4,15,7.5c4.9,1.8,13.6,4.7,26.2,8.2
			c5,1.3,10.3,2.8,15.9,4.6c10.8,3.3,21.4,7.4,21.4,15c0,3.5-2.4,5.9-8.6,9.4c-6.1,3.4-13.9,5.1-23.2,5.1c-6.5,0-12.9-0.8-19-2.3
			s-11.9-4-17.4-7.3c-5.1-3.1-9.6-7-13.3-11.6l0,0c-0.7-1.3-1.3-2.6-1.8-3.8c-1.3-3.2-2.6-8.1-4.1-14.7l-5.4-9h-9.6v58.1l9,5h6.3
			c2-4.4,3.6-7.2,5.2-9.2c1.4-1.8,3.8-3.9,7-6.2c3.7,2.4,7.7,4.7,11.9,6.9s9.5,4.2,15.9,5.9c6.4,1.8,13.3,2.6,20.9,2.6
			c10.3,0,19.4-1.6,27.4-4.7c8-3.1,14.3-7.5,18.8-13.2s6.8-11.9,6.8-18.9C360,166.9,350,158.2,344.9,153.5z M346.2,198.4
			c-1.3,1.6-2.7,3.1-4.3,4.5c-1,0.9-2,1.7-3.1,2.5c-3.3,2.4-7.1,4.5-11.4,6.2c-8,3.1-17.1,4.7-27.4,4.7c-7.5,0-14.5-0.9-20.9-2.6
			c-6.3-1.8-11.6-3.7-15.9-5.9c-4.2-2.2-8.2-4.5-11.9-6.9c-3.3,2.3-5.6,4.4-7,6.2s-2.8,4.2-4.5,7.8c-0.2,0.5-0.5,1-0.7,1.5h-6.3
			v-54.1h6c0.6,2.6,1.1,4.9,1.7,7c0.8,3.2,1.6,5.7,2.4,7.7c1.3,3.2,3.4,6.9,6.5,11.2c2.4,3.2,5.2,6,8.2,8.5c2,1.6,4.1,3.1,6.3,4.5
			c5.7,3.5,11.6,6,17.9,7.6s12.8,2.4,19.5,2.4c9.6,0,17.7-1.8,24.1-5.3s9.5-6.5,9.7-11c0.1-1.8-0.4-3.6-1.3-5.3
			c-0.7-1.3-1.7-2.6-3-3.8c-2.9-2.8-6.6-5.2-11-7.2s-9.5-4-15.1-5.8s-10.9-3.3-15.9-4.6c-12.6-3.5-21.4-6.2-26.2-8.2
			c-4.9-2-9.3-4.2-13.4-6.8c-1.5-1-2.8-2-4.1-3c-3.8-3.1-6.8-6.3-8.8-9.6c-2.7-4.5-4.1-9.5-4.1-15.1c0-0.5,0-1,0-1.6
			c0-1,0.1-2,0.2-3c0.1-0.5,0.1-1,0.2-1.4c0.2-1.4,0.4-2.8,0.8-4c0.4-1.7,1-3.3,1.7-4.8c0.9-1.9,1.9-3.7,3.2-5.3
			c4-5.2,9.8-9.3,17.2-12.2c7.4-2.9,16-4.4,25.8-4.4c7.9,0,15.5,1.2,22.9,3.5s14.2,5.7,20.4,10.1c2.1-1.3,3.8-2.5,5-3.6
			c1.3-1.1,2.4-2.4,3.5-3.9s2.2-3.4,3.5-5.8h6.3v43.8h-6c-2.3-6.5-4.5-11.4-6.7-14.8c-0.6-0.9-1.2-1.7-1.9-2.6l0,0
			c-2-2.5-4.6-5.1-7.8-7.7c-10.9-9-24.4-13.5-40.5-13.5c-5.7,0-11,0.8-15.8,2.2c-4.2,1.2-8.2,2.7-11,4.7c-3,2.2-4.6,4.1-4.7,7.3
			c0,2.6,1.4,5.1,4.1,7.4c0.9,0.8,2.1,1.6,3.5,2.4c2.5,1.5,5.7,3,9.6,4.5c6,2.3,14.4,5,25.2,8.1c11.9,3.3,22.1,6.7,30.6,10.1
			c0.8,0.3,1.5,0.6,2.2,1c7.6,3.3,14.2,7.8,20,13.4c6.3,6.2,9.5,15.7,9.5,24.6C353,186.4,350.7,192.7,346.2,198.4z"/>
	</g>
	<g>
		<g>
			<path d="M232.2,123.6c0-1,0.1-2,0.2-3C232.3,121.6,232.2,122.6,232.2,123.6z"/>
		</g>
	</g>
</g>
<g>
	<g>
		<path d="M360.9,847.6H351l-0.4,1.5c-2.6,9.1-6.6,16.5-12.1,22.2s-11.4,9.9-17.7,12.4c-6.3,2.5-11.8,3.8-16.3,3.8h-12.8
			c-1.5,0-2.8-0.1-3.9-0.4v-44c6.4,0,11.9,0.9,16.4,2.7c0.2,0.2,0.3,0.3,0.5,0.5c4.9,5.5,7.4,11.8,7.4,18.6v2l9,5h6.3v-61.7l-5-9
			h-9.9l-0.2,1.8c-0.6,4.8-1.7,9-3.2,12.5c-1.4,3.3-4.6,6.2-9.4,8.8c-2.2,1.2-4.8,2.2-7.7,3c-1.5,0.4-2.9,0.8-4.2,1v-32.8
			c0-3.8,1-6.3,3.1-7.6s6.3-1.9,12.7-1.9c7.6,0,14.1,0.9,19.5,2.6c2.6,0.8,5.1,1.9,7.6,3.2c8,6.4,13.6,15.5,16.8,27.1l0.4,1.5l8.5,5
			h6.3v-44.7l-5-9H215.6l0.1,2.1l0.2,5.4l0.1,1.9l8.9,5h9.4c2.7,0,5,0.2,6.9,0.5c0.5,1.5,0.7,3.3,0.7,5.5v84.5c0,5.8-1.2,8.1-2.1,9
			c-0.8,0.8-3.3,2-10.4,2h-14v9.4l9,5h141.4v-45.2L360.9,847.6z M358.9,894.8H217.5v-5.4h12c5.9,0,9.9-0.8,11.7-2.5
			c1.9-1.7,2.8-5.2,2.8-10.5v-84.5c0-1.9-0.2-3.6-0.5-5c-0.2-1-0.6-1.9-1-2.7c-0.9-1.6-2.2-2.8-4-3.6c-0.4-0.2-0.8-0.3-1.2-0.5
			c-2.4-0.8-5.8-1.2-9.9-1.2H218l-0.2-5.4h138.1v44.7h-6.3c-2.3-8.3-5.7-15.3-10.4-21c-2.2-2.7-4.6-5.1-7.3-7.3
			c-5-3.9-10.2-6.7-15.6-8.4c-1.1-0.3-2.2-0.6-3.3-0.9c-4.7-1.1-10.1-1.6-16.2-1.6c-5.9,0-9.9,0.6-12.1,1.6
			c-0.2,0.1-0.4,0.2-0.6,0.3c-2.1,1.3-3.1,3.8-3.1,7.6v42.1h4c0.9,0,1.9-0.1,3-0.2c1.4-0.2,3-0.6,4.8-1.1c3-0.9,5.8-1.9,8.1-3.2
			c5.2-2.8,8.6-6.1,10.2-9.8s2.8-8,3.4-13.1h6.1V865h-6.3c0-6.1-1.8-11.7-5.4-16.8c-0.7-1.1-1.6-2.1-2.4-3.1
			c-3.2-3.6-7.5-6.1-13-7.5c-1.7-0.4-3.4-0.8-5.3-1c-2.2-0.3-4.5-0.4-7-0.4V881c0,4.6,2.4,7.3,7.1,8.2c1.1,0.2,2.4,0.3,3.8,0.3h12.8
			c4.8,0,10.5-1.3,17-4c6.6-2.6,12.7-6.9,18.4-12.8s9.9-13.6,12.6-23h6.3v45.1H358.9z"/>
	</g>
	<g>
		<g>
			<path d="M217.5,889.5v5.4l0,0V889.5L217.5,889.5z"/>
		</g>
	</g>
</g>
<g>
	<g>
		<path d="M956.8,510.8H947l-0.4,1.5c-2.6,9.1-6.6,16.5-12.1,22.2c-5.5,5.7-11.4,9.9-17.7,12.4s-11.8,3.8-16.3,3.8h-12.8
			c-1.5,0-2.8-0.1-3.9-0.4v-44c6.4,0,11.9,0.9,16.4,2.7c0.2,0.2,0.3,0.3,0.5,0.5c4.9,5.5,7.4,11.8,7.4,18.6v2l9,5h6.3v-61.7l-5-9
			h-9.9l-0.2,1.8c-0.6,4.8-1.7,9-3.2,12.5c-1.4,3.3-4.6,6.2-9.4,8.8c-2.2,1.2-4.8,2.2-7.7,3c-1.5,0.4-2.9,0.8-4.2,1v-32.8
			c0-3.8,1-6.3,3.1-7.6c2.1-1.3,6.3-1.9,12.7-1.9c7.6,0,14.1,0.9,19.5,2.6c2.6,0.8,5.1,1.9,7.6,3.2c8,6.4,13.6,15.5,16.8,27.1
			l0.4,1.5l8.5,5h6.3v-44.7l-5-9H811.5l0.1,2.1l0.2,5.4l0.1,1.9l8.9,5h9.4c2.7,0,5,0.2,6.9,0.5c0.5,1.5,0.7,3.3,0.7,5.5v84.5
			c0,5.8-1.2,8.1-2.1,9c-0.8,0.8-3.3,2-10.4,2h-14v9.4l9,5h141.4v-45.2L956.8,510.8z M954.8,558H813.4v-5.4h12
			c5.9,0,9.9-0.8,11.7-2.5c1.9-1.7,2.8-5.2,2.8-10.5v-84.5c0-1.9-0.2-3.6-0.5-5c-0.2-1-0.6-1.9-1-2.7c-0.9-1.6-2.2-2.8-4-3.6
			c-0.4-0.2-0.8-0.3-1.2-0.5c-2.4-0.8-5.8-1.2-9.9-1.2h-9.4l-0.2-5.4h138.1v44.7h-6.3c-2.3-8.3-5.7-15.3-10.4-21
			c-2.2-2.7-4.6-5.1-7.3-7.3c-5-3.9-10.2-6.7-15.6-8.4c-1.1-0.3-2.2-0.6-3.3-0.9c-4.7-1.1-10.1-1.6-16.2-1.6
			c-5.9,0-9.9,0.6-12.1,1.6c-0.2,0.1-0.4,0.2-0.6,0.3c-2.1,1.3-3.1,3.8-3.1,7.6v42.1h4c0.9,0,1.9-0.1,3-0.2c1.4-0.2,3-0.6,4.8-1.1
			c3-0.9,5.8-1.9,8.1-3.2c5.2-2.8,8.6-6.1,10.2-9.8c1.6-3.7,2.8-8,3.4-13.1h6.1v61.7h-6.3c0-6.1-1.8-11.7-5.4-16.8
			c-0.7-1.1-1.6-2.1-2.4-3.1c-3.2-3.6-7.5-6.1-13-7.5c-1.7-0.4-3.4-0.8-5.3-1c-2.2-0.3-4.5-0.4-7-0.4v44.8c0,4.6,2.4,7.3,7.1,8.2
			c1.1,0.2,2.4,0.3,3.8,0.3h12.8c4.8,0,10.5-1.3,17-4c6.6-2.6,12.7-6.9,18.4-12.8c5.7-5.9,9.9-13.6,12.6-23h6.3V558H954.8z"/>
	</g>
	<g>
		<g>
			<path d="M813.4,552.6v5.4l0,0V552.6L813.4,552.6z"/>
		</g>
	</g>
</g>
<g>
	<g>
		<path d="M737.4,90.8c0.6,0.2,1.1,0.5,1.7,0.7"/>
		<path d="M775.7,130.8c-3.4-8.8-8.4-16.4-13.9-22.8c0,0,0,0-0.1-0.1c-1.6-2-3.4-3.9-5.4-5.7c-4.8-4.3-10.5-8-17.2-10.8
			c0,0-0.1,0-0.1-0.1c-0.6-0.2-1.1-0.5-1.7-0.7c-1.3-0.5-2.7-1-4.1-1.5c-9.1-3-19.4-4.6-30.7-4.8h-2.2c-9.9,0-19.2,1.4-27.7,4.2
			c-8.5,2.8-16.1,7.1-22.6,12.6c-6.5,5.6-11.7,12.7-15.4,21.1s-5.6,18-5.6,28.6c0,9.7,1.7,18.7,5,26.8c2.2,5.2,5,10,8.5,14.3
			c3.4,4.5,7.6,8.5,13,12.3c6.8,4.8,15.2,9.5,24,12.4s18.7,4.4,29.6,4.4c11.1,0,21.1-1.4,30-4.3c8.8-2.9,16.3-7,22.4-12.4
			c6.1-5.4,10.8-12.1,14-20s4.9-16.7,4.9-26.4C780.5,147.8,778.8,138.7,775.7,130.8z M768.6,177.5c-3.2,7.9-7.9,14.6-14,20
			s-13.5,9.6-22.4,12.4c-1.9,0.6-3.9,1.2-5.9,1.7l0,0c-7.3,1.8-15.3,2.6-24,2.6c-1.3,0-2.5,0-3.8-0.1c-9.4-0.3-18-1.8-25.8-4.3
			c-8.8-2.9-16.3-7.2-22.5-12.7c-6.1-5.4-10.7-11.9-13.9-19.5c-0.1-0.2-0.2-0.4-0.3-0.6c-3.2-7.8-4.9-16.5-4.9-26
			c0-10.4,1.8-19.7,5.4-27.8c3.6-8.2,8.6-15,14.9-20.4c6.3-5.4,13.7-9.5,22-12.3s17.3-4.1,27.1-4.1h2.1c9.9,0.2,18.9,1.4,27,3.8
			c1,0.3,2,0.6,3,0.9c9,3,16.4,7.2,22.4,12.6c6,5.5,10.5,12.1,13.7,20s4.8,17,4.8,27.3C773.5,160.8,771.8,169.6,768.6,177.5z"/>
	</g>
	<g>
		<g>
			<path d="M681.9,99c0.5-0.5,1-0.9,1.6-1.4C682.9,98.1,682.4,98.5,681.9,99z M681.9,99c0.5-0.5,1-0.9,1.6-1.4
				C682.9,98.1,682.4,98.5,681.9,99z M681.9,99c0.5-0.5,1-0.9,1.6-1.4C682.9,98.1,682.4,98.5,681.9,99z"/>
			<path d="M729.2,110.7c-0.7-3.2-1.7-5.9-3-8.1c-1.4-2.5-3.2-4.5-5.4-6c-1.9-1.4-4.6-2.5-7.6-3.3c-3.2-0.8-6.9-1.3-10.3-1.3
				c-6,0-12.4,1.3-17,4c-0.5,0.3-1,0.6-1.4,0.9c-0.3,0.2-0.6,0.4-0.9,0.7c-0.6,0.5-1.1,0.9-1.6,1.4c-0.2,0.2-0.5,0.5-0.7,0.7
				c-2.7,2.9-4.3,6.2-5.6,11.3c-1.7,6.8-2.5,16.1-2.5,28v19.4c0,10.9,0.6,20,1.8,27.2s2.8,11.9,7.8,16.6c0.9,0.9,2,1.7,3.1,2.3
				c4.3,2.7,9.9,4.2,15.6,4.2c5.2,0,10.9-0.7,15.8-3c4.3-2,6.4-4,8.5-7.8s3.6-8.9,4.5-15.2s1.4-14.4,1.4-24.3v-18.6
				C731.5,127.2,730.7,117.5,729.2,110.7z M729.5,158.5c0,9.8-0.5,17.9-1.4,24.1c-0.9,6-2.3,10.9-4.3,14.5c-1.9,3.5-3.7,5.1-7.6,6.9
				c-4,1.9-9.1,2.8-14.9,2.8c-6.8,0-13.4-2.3-17.4-6c-0.1-0.1-0.1-0.1-0.2-0.2c-0.9-2.3-1.4-4.9-1.9-7.9c-1.2-7.2-1.8-16.3-1.8-27.2
				V146c0-11.9,0.8-21.2,2.5-28s4-10.5,8.8-14.1c4.6-3.4,11.8-5,18.4-5c4.4,0,9.1,0.8,12.9,2.1c2.1,2.5,3.6,5.8,4.6,10.1
				c1.5,6.6,2.3,16.2,2.3,28.7L729.5,158.5L729.5,158.5z"/>
		</g>
	</g>
</g>
<g>
	<path d="M576.2,848.3c1-1.9,2.6-3.3,4.9-4c2.3-0.8,5.4-1.2,9.6-1.2h6v-5.4l-5-9h-67.5l-0.5,1.3L500,897.2l-19-59.5l-5.6-9h-66.7
		v9.4l9,5h5.6c2.4,0,4.5,0.1,6.3,0.4c0.5,1.5,0.7,3.3,0.7,5.6v72c0,5.9-1.4,11.4-4.1,16.2c-2.6,4.5-8,7-16,7.3l-1.9,0.1v9.3l9,5
		h52.2v-5.4l-5-9h-4.2c-3.8,0-7.3-0.9-10.1-2.7c-0.8-0.5-1.5-1-2.2-1.6c-1.3-3.4-1.9-7.2-1.9-11.5v-76.7l35.1,100.5l0.5,1.3l8.4,5
		h7.1l34.9-99.7v74.3c0,6.4-1.1,8.5-1.8,9.2s-2.8,1.8-9.2,1.8h-11.2v9.4l9,5h77.8v-5.4l-5-9h-10.2c-2.7,0-4.9-0.2-6.6-0.5
		c-0.1-1-0.1-2.2-0.1-3.5V856C574.7,852.8,575.2,850.2,576.2,848.3z M568.8,942c0.7,1.8,2.1,3,4,3.7c0.6,0.2,1.4,0.4,2.3,0.6
		c1.7,0.3,3.8,0.5,6.4,0.5h8.2v5.4h-77.8v-5.4h9.2c5.5,0,9.1-0.8,10.7-2.4c1.6-1.6,2.4-5.1,2.4-10.6v-94.5c0-0.8-0.1-1.5-0.2-1.9
		c-0.3-0.8-0.7-1.1-1.4-1.1s-1.3,0.4-1.8,1.1c-0.4,0.6-0.8,1.3-1.1,2.3l-24.8,70.8l-0.3,1L490.3,952h-7.1l-36.9-105.9l0,0l-2.3-6.6
		c-0.2-0.7-0.5-1.3-0.8-1.8c-0.6-1-1.2-1.5-1.9-1.5c-0.9,0-1.5,0.5-1.8,1.5c-0.2,0.6-0.3,1.4-0.3,2.3v81.7c0,1.7,0.1,3.3,0.3,4.8
		c0.4,3.1,1.1,5.8,2.3,8.3c1.7,3.8,4.2,6.6,7.4,8.7c0.2,0.1,0.4,0.3,0.7,0.4c3.1,1.8,6.6,2.6,10.6,2.6h2.2v5.4h-52.2v-5.4
		c8.9-0.4,14.8-3.2,17.7-8.4c2.9-5.1,4.4-10.9,4.4-17.2v-72c0-2-0.2-3.7-0.5-5.1c-0.2-1-0.6-1.9-0.9-2.6c-0.8-1.6-2.1-2.8-3.9-3.6
		c-0.4-0.2-0.7-0.3-1.1-0.5c-2.3-0.8-5.5-1.2-9.6-1.2H411v-5.4h63.3l2.4,7l23.2,66.6l1.4-3.9l24.6-69.7H590v5.4h-6
		c-4.1,0-7.3,0.4-9.6,1.2c-0.2,0.1-0.5,0.2-0.7,0.3c-1.9,0.8-3.3,2.1-4.2,3.8c-1,1.9-1.5,4.5-1.5,7.8v84.6
		C567.7,937.4,568.1,940.2,568.8,942z"/>
</g>
<g>
	<g>
		<path d="M283.3,363l-2.2-4.5h-6.2h-11.3l-2.7-8.3l-1.9-5.9l-2.9-4l-1.9,5.9l-4,12.3h-12.9h-6.2l2.9,4l5,3.6l7,5.1l-3.4,10.8
			l-1.9,5.9l2.9,4l5-3.7l10.4-7.6l10.4,7.6l5,3.7l-1.9-5.9l-4-12.3l10.5-7.6L283.3,363z M263.3,369l4.5,13.7l-11.6-8.5l-11.6,8.5
			l0.6-1.8l2.7-8.4l1.2-3.5l-11.6-8.4h4.8h9.5l2.9-9.1l1.5-4.5l4.4,13.7h3.7h8.8h1.9L263.3,369z"/>
	</g>
</g>
<g>
	<g>
		<path d="M415.5,194.6l-2.2-4.5h-6.2h-11.3l-2.7-8.3l-1.9-5.9l-2.9-4l-1.9,5.9l-4,12.3h-12.9h-6.2l2.9,4l5,3.6l7,5.1l-3.5,10.8
			l-1.9,5.9l2.9,4l5-3.7l10.4-7.6l10.4,7.6l5,3.7l-1.9-5.9l-4-12.3l10.5-7.6L415.5,194.6z M395.5,200.5l4.5,13.7l-11.6-8.5
			l-11.6,8.5l0.6-1.8l2.7-8.4l1.2-3.5l-11.6-8.4h4.8h9.5l2.9-9.1l1.5-4.5l4.4,13.7h3.7h8.8h1.9L395.5,200.5z"/>
	</g>
</g>
<g>
	<g>
		<path d="M583,105.5h-80.1l-0.1,1.9l-0.2,5.5l-0.1,2.1l9.1,5h6.2c0.9,0,1.7,0,2.4,0.1c0,0.3,0,0.5,0,0.8v15.3c0,5.3-2.1,9.5-6.4,13
			c-4.4,3.5-10.2,5.3-17.2,5.3c-5.7,0-11.8-1.7-15.8-4.5c-0.8-0.6-1.6-1.1-2.2-1.7c-0.1-0.3-0.2-0.7-0.4-1
			c-1.7-4.9-2.5-10.6-2.5-20.4V93c0-10.8,0.9-19.6,2.7-26.3s4.4-10.5,9.4-14c5.1-3.5,11.4-5,18.4-5c7.3,0,14.7,1.9,22.3,5.8
			c0.5,0.2,1,0.5,1.5,0.8c3.4,2.7,6.6,5.8,9.4,9.3c3.2,3.9,5.7,7.8,7.4,11.5s3.4,8.9,5.1,15.4l0.4,1.5l8.6,5h5.5V41.8l-5-9h-8.8
			l-0.6,0.8c-3.7,5.3-8.5,9.8-14.2,13.5c-6.2-4.8-12.7-8.4-19.4-10.7c-7.1-2.4-14.7-3.7-22.8-3.7c-14.2,0-27.2,3-38.6,8.8
			c-11.5,5.8-20.5,14.1-26.9,24.6s-9.6,22.5-9.6,35.6c0,11.5,2.2,21.6,6.5,29.9s10,15,16.9,19.9c2.1,1.4,23.3,18.2,50.2,18.2
			c11.9,0,21.6-1.7,29.1-5s14.3-7.4,20.3-12.1c0.6,0.2,1.2,0.4,1.8,0.7l0.1,0.1c2.4,2.6,4.5,6,6.2,10.1l0.5,1.2l8.4,5h6.1v-41.4
			c0-3.3,0.8-5.5,2.4-6.7c1.6-1.2,4.6-1.8,8.8-1.8h10v-5.5L583,105.5z M571,112.9c-4,0-6.8,0.5-8.5,1.5c-0.1,0.1-0.2,0.1-0.3,0.2
			c-1.6,1.2-2.4,3.4-2.4,6.7v41.4h-6.1c-1.1-2.7-2.3-5-3.7-7.1c-0.9-1.3-1.9-2.5-2.9-3.6c-2.6-2.8-6.1-4.9-10.3-6.4
			c-6,4.8-12.8,8.8-20.3,12.1s-17.2,5-29.1,5c-6.9,0-13.9-1-21.1-2.9s-14.2-5.2-20.9-10c-0.9-0.7-1.8-1.3-2.7-2.1
			c-5.5-4.5-10-10.2-13.6-17.1c-4.2-8.1-6.2-17.7-6.2-29c0-12.8,3.1-24.4,9.3-34.6c6.2-10.2,14.9-18.2,26.1-23.9s23.7-8.5,37.7-8.5
			c7.9,0,15.3,1.2,22.2,3.6c6.9,2.4,13.5,6.1,19.9,11.2c6.5-3.9,11.8-8.9,15.9-14.8h5.8v55.1h-5.5c-1.7-6.6-3.4-11.9-5.2-15.7
			c-1.8-3.9-4.3-7.8-7.6-11.9c-0.4-0.5-0.8-1-1.1-1.4c-5.1-6.1-11.2-10.9-18.2-14.4c-3.6-1.9-7.2-3.2-10.8-4.2
			c-3.9-1-7.7-1.6-11.5-1.6c-5.3,0-10.2,0.9-14.5,2.8c-1.3,0.6-2.6,1.3-3.8,2.2c-5.1,3.5-7.6,7.3-9.4,14s-2.7,15.4-2.7,26.3v33.8
			c0,9.8,0.8,15.5,2.5,20.4c1.6,4.9,3.6,8,8.4,11.4c0.2,0.1,0.4,0.3,0.6,0.4c4.5,2.9,10.8,4.4,16.3,4.4c7.5,0,13.6-1.9,18.4-5.8
			c4.8-3.8,7.2-8.7,7.2-14.5v-15.3c0-0.2,0-0.4,0-0.6c-0.1-2.6-1-4.4-2.6-5.5c-0.1-0.1-0.2-0.1-0.3-0.2c-1.8-1-4.6-1.5-8.5-1.5h-6.2
			l0.3-5.5H581v5.5h-10V112.9z"/>
	</g>
</g>
</svg>
