<?xml version="1.0" encoding="utf-8"?>
<!-- Generator: Adobe Illustrator 26.0.1, SVG Export Plug-In . SVG Version: 6.00 Build 0)  -->
<!DOCTYPE svg PUBLIC "-//W3C//DTD SVG 1.1//EN" "http://www.w3.org/Graphics/SVG/1.1/DTD/svg11.dtd" [
	<!ENTITY ns_extend "http://ns.adobe.com/Extensibility/1.0/">
	<!ENTITY ns_ai "http://ns.adobe.com/AdobeIllustrator/10.0/">
	<!ENTITY ns_graphs "http://ns.adobe.com/Graphs/1.0/">
	<!ENTITY ns_vars "http://ns.adobe.com/Variables/1.0/">
	<!ENTITY ns_imrep "http://ns.adobe.com/ImageReplacement/1.0/">
	<!ENTITY ns_sfw "http://ns.adobe.com/SaveForWeb/1.0/">
	<!ENTITY ns_custom "http://ns.adobe.com/GenericCustomNamespace/1.0/">
	<!ENTITY ns_adobe_xpath "http://ns.adobe.com/XPath/1.0/">
]>
<svg version="1.1" id="Layer_1" xmlns:x="&ns_extend;" xmlns:i="&ns_ai;" xmlns:graph="&ns_graphs;"
	 xmlns="http://www.w3.org/2000/svg" xmlns:xlink="http://www.w3.org/1999/xlink" x="0px" y="0px" viewBox="0 0 3000 3000"
	 style="enable-background:new 0 0 3000 3000;" xml:space="preserve">
<style type="text/css">
	.st0{fill:none;}
	.st1{fill:#FFFFFF;}
	.st2{fill:none;stroke:#000000;stroke-width:2;stroke-miterlimit:10;}
	.st3{fill:none;stroke:#000000;stroke-miterlimit:10;}
</style>
<metadata>
	<sfw  xmlns="&ns_sfw;">
		<slices></slices>
		<sliceSourceBounds  bottomLeftOrigin="true" height="3000" width="3000" x="-1000" y="-1000"></sliceSourceBounds>
		<optimizationSettings>
			<targetSettings  fileFormat="JPEGFormat" targetSettingsID="0">
				
					<JPEGFormat  blurAmount="0" embedICCProfile="false" matteColor="#FFFFFF" noMatteColor="false" optimized="true" progressive="true" quality="100">
					</JPEGFormat>
			</targetSettings>
		</optimizationSettings>
	</sfw>
</metadata>
<g>
	<circle cx="1500" cy="1500" r="1500"/>
	<g>
		<g>
			<g>
				<path class="st0" d="M2477.4,1179l-25.5-15.3l-1.8-3.9l-158.7-328.2c-2.1-3.9-4.2-7.5-6.3-10.8c-5.4-1.2-11.7-1.8-18.6-1.8
					h-11.1l-27.9-15.6l-0.3-6.6l-0.9-16.2l-0.3-7.8h257.1l15.6,28.2v18H2481c-24,0-36,5.1-36,15c0,6.9,1.8,13.5,5.7,20.1l79.8,165.3
					l72.3-140.1c9-17.1,13.8-32.1,13.8-44.7c0-3.9-0.9-7.2-2.4-10.2c-10.8-3.3-24.6-5.1-41.1-5.1h-0.3l-28.2-15.6v-30.6h204.6
					l15.6,28.2v18h-1.5c-6.9,0.6-14.7,1.8-22.5,3.6c-7.8,1.8-16.2,5.4-25.2,10.8c-8.7,5.4-18,13.5-27,23.7
					c-9.3,10.5-18.3,24.3-27,40.8L2515.5,1179H2477.4z M2492.7,1155l145.8-279.6c1.5-2.7,2.7-5.1,4.2-7.5
					c7.5-13.5,15.3-24.6,23.1-33.6c9.3-10.8,18.6-18.9,27.9-24.3c2.7-1.5,4.8-2.7,6.6-3.9l0.6-0.3c0.9-0.6,2.1-1.2,3-1.5
					c1.2-0.6,2.4-1.2,3.6-1.5c0.9-0.3,1.5-0.6,2.4-0.9c1.8-0.6,3.3-1.2,5.1-1.8c1.5-0.6,3-0.9,4.5-1.2c7.5-1.8,14.7-3,21.6-3.6
					v-13.2h-187.2v13.2c15.6,0,28.8,1.8,39.6,5.1c4.5,1.2,8.7,3,12.6,5.1c9.6,5.1,15.9,12,18.3,20.4v0.3c0.9,2.7,1.2,5.7,1.2,8.7
					c0,14.1-5.1,30.6-14.7,48.9l-82.8,160.2L2427,834.9c-3.9-6.9-6-14.1-6-21.6c0-5.4,3-9.9,8.4-12.9c6.3-3.3,16.5-5.1,30.6-5.1
					h14.7v-13.2h-239.4l0.6,13.2h9.3c11.4,0,21,1.8,28.5,5.1c1.8,0.9,3.3,1.8,4.8,2.7c6.6,4.2,12.6,10.8,17.7,19.5
					c1.2,1.8,2.1,3.6,3,5.7l158.4,326.7H2492.7z"/>
				<path class="st1" d="M2748.6,774.3l15,27v16.2c-7.2,0.6-14.7,1.8-22.8,3.6s-16.5,5.7-25.5,11.1c-9,5.4-18,13.5-27.6,24
					c-9.3,10.5-18.3,24.3-27,41.1l-146.4,280.2h-36.9l-24.9-15l-1.8-3.3L2292.6,831c-2.1-4.2-4.5-8.1-6.9-11.4
					c-5.7-1.5-12-2.1-19.5-2.1h-10.8l-26.7-15l-0.3-5.7l-0.9-16.2l-0.3-6.3h254.7l15,27v16.2h-16.2c-25.2,0-37.5,5.4-37.5,16.5
					c0,7.2,2.1,14.1,6,20.7l81,167.7l73.8-142.8c9.3-17.4,13.8-32.7,13.8-45.3c0-4.2-0.9-8.1-3-11.4c-11.1-3.6-25.2-5.4-42-5.4
					l-27-15v-28.2H2748.6 M2528.4,1040.1l-99.6-206.4c-3.9-6.6-6-13.5-6-20.7c0-5.1,2.4-8.7,7.8-11.4c6.3-3.3,16.2-4.8,30-4.8h16.2
					v-16.2h-242.4l0.9,16.2h10.8c11.1,0,20.4,1.8,27.9,4.8c1.8,0.6,3.3,1.5,4.8,2.4c6.6,4.2,12.3,10.5,17.1,18.9
					c0.9,1.8,2.1,3.6,3,5.4l158.7,328.2h36.9l53.1-101.4l93.3-178.8c1.5-2.7,2.7-5.4,4.2-7.8c7.5-13.2,15-24.3,22.8-33.3
					c9.3-10.5,18.6-18.6,27.6-24c2.4-1.2,4.5-2.7,6.6-3.6c1.2-0.6,2.4-1.2,3.6-1.8c1.2-0.6,2.4-1.2,3.6-1.5c0.9-0.3,1.5-0.6,2.4-0.9
					c1.8-0.6,3.3-1.2,4.8-1.8c1.5-0.6,3-0.9,4.5-1.2c8.1-1.8,15.6-3.3,22.8-3.6v-16.2h-190.2v16.2c16.2,0,29.7,1.8,40.8,4.8
					c4.5,1.5,8.7,3,12.6,5.1c9.3,5.1,15.3,11.4,17.7,19.2l0,0c0.9,2.7,1.2,5.4,1.2,8.4c0,13.8-4.8,30-14.7,48.3l-75.9,146.7
					L2528.4,1040.1 M2750.4,771.3h-1.8h-202.2h-3v3v28.2v1.8l1.5,0.9l27,15l0.6,0.3h0.9c15.9,0,29.4,1.5,39.9,4.8
					c1.5,2.7,2.1,5.7,2.1,9c0,12.3-4.5,27-13.5,44.1l-71.1,137.7l-78.3-162.3l0,0l0,0c-3.6-6.3-5.4-12.6-5.4-19.2
					c0-9,11.7-13.5,34.5-13.5h16.2h3v-3v-16.2V801l-0.3-0.6l-15-27l-0.9-1.5h-1.8h-254.7h-3l0.3,3l0.3,6.3l0.9,16.2l0.3,5.7v1.8
					l1.5,0.9l26.7,15l0.6,0.3h0.9h10.8c6.6,0,12.6,0.6,17.7,1.8c2.1,3,4.2,6.3,6,10.2l158.7,328.2l1.8,3.3l0.3,0.9l0.9,0.6l24.9,15
					l0.6,0.3h0.9h36.9h1.8l0.9-1.5l146.4-280.2c8.4-16.5,17.4-30,26.7-40.5c9-10.2,18-18.3,26.7-23.4c8.7-5.4,17.1-9,24.6-10.8
					c7.8-1.8,15.3-3,22.2-3.6l2.7-0.3v-2.7v-16.2v-0.9l-0.3-0.6l-15-27L2750.4,771.3L2750.4,771.3z M2555.4,783.3h184.2v10.2
					c-6.6,0.6-13.2,1.8-20.4,3.6c-1.5,0.3-3,0.9-4.5,1.2c-1.5,0.3-3,0.9-5.1,1.8c-0.9,0.3-1.8,0.6-2.4,0.9c-1.2,0.6-2.4,1.2-3.6,1.8
					c-0.9,0.6-2.1,0.9-3,1.5l-0.6,0.3c-2.1,1.2-4.2,2.4-6.9,3.9c-9.3,5.7-18.6,13.8-28.2,24.6c-8.1,9-15.9,20.4-23.4,33.9
					c-1.2,2.4-2.7,5.1-4.2,7.8l-93.3,178.8l-52.2,99.9h-33L2301,826.8c-0.9-2.1-2.1-3.9-3-5.7c-5.1-9-11.4-15.6-18.3-20.1
					c-1.5-0.9-3-1.8-5.1-2.7c-7.8-3.3-17.4-5.1-29.1-5.1h-7.8l-0.6-10.2h236.4v10.2h-13.2c-14.4,0-24.6,1.8-31.2,5.4
					c-7.8,3.9-9.3,9.9-9.3,14.1c0,7.5,2.1,15,6.3,22.2l99.6,206.4l2.7,5.4l2.7-5.4l5.7-10.8l75.9-146.7c9.9-18.6,15-35.4,15-49.5
					c0-3-0.3-6-1.2-9l0,0V825c-2.7-8.7-9-15.9-19.2-21c-3.9-2.1-8.4-3.9-12.9-5.1c-10.5-3-23.4-4.8-38.7-5.1v-10.5H2555.4z"/>
			</g>
		</g>
		<g>
			<g>
				<path class="st1" d="M2552.4,780.3v16.2c16.2,0,29.7,1.5,40.8,4.8c4.5,1.5,8.7,3,12.6,4.8c9.3,5.1,15.3,11.4,17.7,19.5l0,0
					c0.9,2.7,1.2,5.4,1.2,8.4c0,13.8-4.8,30-14.7,48.3l-75.9,146.7l-5.7,10.8l-99.6-206.4c-3.9-6.6-6-13.5-6-20.7
					c0-5.1,2.4-8.7,7.8-11.4c6.3-3.3,16.2-4.8,30-4.8h16.2v-16.2h-242.4l0.9,16.2h10.8c11.1,0,20.4,1.5,27.9,4.8
					c1.8,0.6,3.3,1.5,4.8,2.4c6.6,4.2,12.3,10.5,17.1,18.9c0.9,1.8,2.1,3.6,3,5.4l158.7,328.2h36.9l53.1-101.4l93.3-178.8
					c1.5-2.7,2.7-5.4,4.2-7.8c7.5-13.2,15-24.3,22.8-33.3c9.3-10.5,18.6-18.6,27.6-24c2.4-1.2,4.5-2.7,6.6-3.6
					c1.2-0.6,2.4-1.2,3.6-1.8c1.2-0.6,2.4-1.2,3.6-1.5c0.9-0.3,1.5-0.6,2.4-0.9c1.8-0.6,3.3-1.2,4.8-1.8c1.5-0.6,3-0.9,4.5-1.2
					c8.1-1.8,15.6-3.3,22.8-3.6v-16.2L2552.4,780.3L2552.4,780.3z"/>
			</g>
		</g>
	</g>
	<g>
		<g>
			<path class="st1" d="M559.8,780.3v16.2c8.4,1.2,15.9,2.7,22.8,4.8c8.4,2.4,15.9,5.7,22.5,9.6c9,5.4,16.2,12.6,21.3,21.3
				c1.8,2.7,3.3,5.7,4.5,8.7c5.4,12.9,8.1,29.4,8.1,49.8v147.6c0,18.9-5.1,36-15.3,51.3c-10.2,15.3-24.6,27-43.2,35.4
				c-18.6,8.4-39.6,12.6-63,12.6c-23.7,0-42.3-4.2-56.4-12.6c-4.8-2.7-9-6-12.6-9.9c-14.4-15-21.6-38.4-21.6-71.1V835.2
				c0-14.7,3.6-24.9,11.1-30.6c1.8-1.2,3.9-2.4,6.3-3.6c7.8-3.3,18.9-4.8,33.6-4.8H492V780H249v16.2h18.3c12.6,0,22.5,1.2,29.7,3.6
				c1.2,0.3,2.4,0.9,3.6,1.5c5.4,2.4,9.6,6,12,10.8c1.2,2.4,2.4,5.1,3,8.1c1.2,4.5,1.5,9.3,1.5,15.3v186.6c0,25.2,3.6,45,10.5,59.4
				c6.6,13.5,17.1,25.8,31.2,37.2c0.9,0.6,1.5,1.2,2.4,1.8c30.9,23.7,75.9,35.7,135.3,35.7c34.5,0,64.2-4.8,88.8-14.4
				c24.6-9.6,43.5-23.7,56.1-42c5.4-7.8,9.6-16.2,12.9-25.5c3-8.7,4.8-18,5.7-27.6c0.3-4.5,0.6-9,0.6-13.5V878.7
				c0-25.2,5.7-44.4,17.1-57.9c7.2-8.7,16.8-15,28.8-19.2c6.6-2.4,14.1-3.9,22.2-4.8v-16.2H559.8V780.3z"/>
			<g>
				<path class="st0" d="M517.8,1178.7c-82.8,0-135.9-32.1-159.9-51.3l-0.9-0.9c-16.2-12.3-28.2-26.4-35.7-41.7
					c-7.5-15.3-11.4-36.3-11.4-62.7V835.5c0-6-0.6-11.1-1.8-15.3c-5.7-0.9-12.3-1.2-19.8-1.2h-18.6l-28.2-15.6v-30.6h257.4
					l15.6,28.2v18h-15.6c-18.9,0-31.8,2.7-39,8.1c-6.9,5.4-10.5,15.3-10.5,29.4v208.8c0,18.9,2.4,34.8,7.5,47.7
					c13.2,11.4,33.6,17.4,60.6,17.4c22.2,0,42.6-3.9,60-12c17.1-7.8,30.6-18.6,40.2-32.7c9.3-13.8,14.1-29.7,14.1-47.1V891
					c0-19.2-2.7-34.8-7.5-46.8c-2.7-6.6-6.3-12-10.5-16.5c-9.3-3.9-20.4-6.6-33-8.4h-0.3l-27.9-16.5v-29.7h183.6l15.6,28.2V819
					l-1.2,0.3c-22.2,2.7-39.3,10.5-50.4,23.7s-16.5,32.1-16.5,57v154.5c0,26.1-6.6,48.9-19.5,67.5c-12.9,18.6-32.1,33-57,42.6
					C582.3,1173.6,552.3,1178.7,517.8,1178.7z M267.3,795c12.9,0,22.8,1.2,30.3,3.6c1.2,0.3,2.4,0.9,3.6,1.5
					c5.7,2.4,10.2,6.3,12.9,11.4c1.2,2.4,2.4,5.4,3.3,8.4c1.2,4.5,1.5,9.6,1.5,15.6v186.6c0,24.9,3.6,44.7,10.5,58.8
					c6.6,13.2,17.1,25.5,30.9,36.6c0.6,0.6,1.2,0.9,1.8,1.5l0.6,0.3c30.3,23.4,75.6,35.4,134.4,35.4c34.2,0,63.9-4.8,88.2-14.4
					s42.9-23.4,55.5-41.4c5.4-7.5,9.6-16.2,12.6-25.2c3-8.4,4.8-17.7,5.7-27.3c0.3-4.5,0.6-9,0.6-13.2V878.7
					c0-25.5,5.7-45.3,17.4-58.8c7.5-8.7,17.4-15.3,29.7-19.5c6.3-2.4,13.5-3.9,21.3-4.8v-13.2H561.9v13.2c8.1,1.2,15.3,2.7,21.9,4.8
					c8.7,2.7,16.2,6,22.8,9.9c9,5.4,16.5,12.9,21.9,21.6c1.8,2.7,3.3,5.7,4.5,9c5.4,12.9,8.4,30,8.4,50.4v147.6
					c0,19.2-5.4,36.9-15.6,52.2c-10.5,15.3-25.2,27.3-43.8,35.7c-18.6,8.4-39.9,12.6-63.6,12.6c-23.7,0-42.9-4.2-57-12.6
					c-4.8-2.7-9-6.3-12.9-10.2c-14.7-15-21.9-39.3-21.9-72V835.8c0-15.3,3.9-25.8,11.4-31.8c1.8-1.5,3.9-2.7,6.6-3.6
					c7.8-3.3,19.5-5.1,34.2-5.1h12.6v-13.2h-240v13.2h15.9V795z"/>
				<path class="st1" d="M735.3,774.3l15,27v16.2c-22.8,2.7-39.9,10.8-51.3,24c-11.4,13.5-17.1,32.7-17.1,57.9v154.5
					c0,26.1-6.3,48.3-19.2,66.6s-31.5,32.4-56.1,42s-54.3,14.4-88.8,14.4c-98.7,0-153.6-47.1-159.9-51.9
					c-15.9-12.3-27.9-26.1-35.4-41.1s-11.4-36-11.4-62.1V835.2c0-6.6-0.6-12.3-2.1-16.5c-6-0.9-12.9-1.5-20.7-1.5H270l-27-15V774
					h255l15,27v16.2h-14.1c-19.2,0-32.4,2.7-39.9,8.4c-7.2,5.7-11.1,15.9-11.1,30.6V1065c0,19.2,2.4,35.4,7.5,48.6
					c13.2,12,34.2,18,61.8,18c22.5,0,42.9-3.9,60.6-12c17.4-7.8,31.2-18.9,40.8-33.3c9.6-14.1,14.4-30.3,14.4-48V890.7
					c0-19.2-2.7-35.1-7.8-47.4c-3-6.6-6.6-12.3-11.1-17.4c-9.6-3.9-20.7-6.9-33.6-8.7l-27-15.9V774h181.8 M517.8,1137.6
					c-23.7,0-42.3-4.2-56.4-12.6c-4.8-2.7-9-6-12.6-9.9c-14.4-15-21.6-38.4-21.6-71.1V835.2c0-14.7,3.6-24.9,11.1-30.6
					c1.8-1.2,3.9-2.4,6.3-3.6c7.8-3.3,18.9-4.8,33.6-4.8h14.1V780H249v16.2h18.3c12.6,0,22.5,1.2,29.7,3.6c1.2,0.3,2.4,0.9,3.6,1.2
					c5.4,2.4,9.6,6,12,10.8c1.2,2.4,2.4,5.1,3,8.1c1.2,4.2,1.5,9.3,1.5,15.3v186.6c0,25.2,3.6,45,10.5,59.4
					c6.6,13.5,17.1,25.8,31.2,37.2c0.9,0.6,1.5,1.2,2.4,1.8c30.9,23.7,75.9,35.7,135.3,35.7c34.5,0,64.2-4.8,88.8-14.4
					c24.6-9.6,43.5-23.7,56.1-42c5.4-7.8,9.6-16.2,12.9-25.5c3-8.7,4.8-18,5.7-27.6c0.3-4.5,0.6-9,0.6-13.5V878.4
					c0-25.2,5.7-44.4,17.1-57.9c7.2-8.7,16.8-15,28.8-19.2c6.6-2.4,14.1-3.9,22.2-4.8v-16.2H559.2v16.2c8.4,1.2,15.9,2.7,22.8,4.8
					c8.4,2.4,15.9,5.7,22.5,9.6c9,5.4,16.2,12.6,21.3,21.3c1.8,2.7,3.3,5.7,4.5,8.7c5.4,12.9,8.1,29.4,8.1,49.8v147.6
					c0,18.9-5.1,36-15.3,51.3c-10.2,15.3-24.6,27-43.2,35.4C562.2,1133.4,541.2,1137.6,517.8,1137.6 M737.1,771.3h-1.8H553.8h-3v3
					v27.3v1.8l1.5,0.9l27,15.9l0.6,0.3h0.6c12.3,1.8,23.1,4.5,32.4,8.4c4.2,4.5,7.5,9.9,10.2,15.9c5.1,11.7,7.5,27.3,7.5,46.2v147.6
					c0,17.1-4.8,32.7-13.8,46.2c-9.3,13.8-22.5,24.6-39.3,32.1c-17.4,7.8-37.2,11.7-59.4,11.7c-26.7,0-46.5-5.7-59.4-16.5
					c-4.8-12.6-7.2-28.2-7.2-46.8V856.5c0-13.8,3.3-23.1,9.9-28.2c6.9-5.1,19.5-7.8,37.8-7.8h14.1h3v-3v-16.2v-0.9l-0.3-0.6l-15-27
					l-0.9-1.5H498H243h-3v3v28.2v1.8l1.5,0.9l27,15l0.6,0.3h0.9h18.3c6.9,0,13.2,0.3,18.6,1.2c0.9,3.9,1.5,8.4,1.5,13.8v186.6
					c0,26.7,3.9,48,11.7,63.3c7.8,15.3,19.8,29.7,36.3,42c0.3,0.3,0.6,0.3,0.9,0.6c24.3,19.2,77.7,51.6,160.8,51.6
					c34.8,0,65.1-4.8,90-14.7c25.2-9.9,44.4-24.3,57.6-43.2c13.2-18.9,19.8-41.7,19.8-68.4V898.8c0-24.3,5.4-43.2,16.2-55.8
					c10.8-12.9,27.3-20.4,49.2-23.1l2.7-0.3v-2.7v-16.2v-0.9l-0.3-0.6l-15-27L737.1,771.3L737.1,771.3z M562.8,783.3h163.5v10.5
					c-7.2,0.9-14.1,2.7-20.4,4.8c-12.6,4.2-22.5,11.1-30.3,20.1c-11.7,13.8-17.7,33.9-17.7,59.7v154.5c0,4.5-0.3,8.7-0.6,13.2
					c-0.9,9.6-2.7,18.6-5.7,27c-3,9-7.2,17.1-12.3,24.6c-12.3,17.7-30.9,31.5-54.9,41.1c-24.3,9.6-53.7,14.4-87.6,14.4
					c-58.5,0-103.5-11.7-133.5-35.1l-0.3-0.3c-0.6-0.6-1.2-0.9-1.8-1.5c-13.8-11.1-24-23.1-30.3-36.3c-6.9-13.8-10.2-33.3-10.2-57.9
					V835.5c0-6-0.6-11.4-1.8-15.9c-0.9-3.3-1.8-6.3-3.3-9c-3-5.4-7.5-9.3-13.5-12c-1.2-0.6-2.4-0.9-3.9-1.5
					c-7.5-2.4-17.7-3.6-30.6-3.6H252v-10.2h237v10.2h-11.1c-15,0-26.7,1.8-34.8,5.1c-2.7,1.2-4.8,2.4-6.9,3.9
					c-8.1,6.3-12,17.4-12,33v208.8c0,33.3,7.5,57.9,22.5,73.2c3.9,3.9,8.1,7.5,13.2,10.2c14.4,8.7,33.9,12.9,57.9,12.9
					s45.6-4.2,64.2-12.9c18.9-8.4,33.9-20.7,44.4-36.3c10.5-15.6,15.9-33.6,15.9-53.1V890.7c0-20.7-2.7-37.8-8.4-51
					c-1.5-3.3-3-6.3-4.8-9.3c-5.4-9-12.9-16.5-22.5-22.2c-6.6-3.9-14.4-7.5-23.1-9.9c-6.3-1.8-13.2-3.3-20.7-4.5L562.8,783.3
					L562.8,783.3z"/>
			</g>
		</g>
	</g>
	<g>
		<g>
			<path class="st0" d="M2703.3,2240.7c-54.9,0-85.2-28.5-100.8-52.2c-9-13.5-14.4-28.5-15.9-44.1l-1.2-11.7
				c-3.6-30.3-11.4-52.8-23.1-66.6c-0.3-0.3-0.6-0.6-0.9-0.9c-7.8-2.7-16.5-3.9-26.1-3.9h-24.9v117.9c0,3.6,0,6.9,0.3,9.9
				c3.9,0.6,9,0.6,15,0.6h39.9l15.6,28.2v18h-251.7l-28.2-15.6v-30.6h32.1c21.6,0,28.2-3.9,30-5.7c2.1-2.1,6-8.1,6-25.8v-253.5
				c0-6-0.6-11.1-1.8-15.3c-5.4-0.9-12-1.2-19.2-1.2h-18.9l-28.2-15.6V1842h257.4c53.4,0,95.7,8.4,126,24.9
				c41.7,22.8,63.6,54,63.6,90c0,19.2-6.6,36-19.2,50.1c-12.6,14.1-30.3,25.2-52.8,33.3c-12.3,4.2-25.2,7.2-38.7,9.6
				c0.3,0,0.6,0.3,0.9,0.3c22.5,10.5,40.2,24.3,52.8,40.8l0.6,0.9c25.5,33.6,33.6,62.1,36,80.1c0.3,1.2,0.3,2.7,0.6,3.9
				c0.3,2.7,0.6,5.1,0.9,7.2c0.6,0,1.5,0,2.1,0c5.7,0,10.5-3,14.7-9c4.8-6.6,7.2-15.3,7.2-25.8V2088h32.7l15.6,28.2v54.3
				c0,0.6,0,2.4,0,2.7c0,1.8-0.3,3.6-0.3,5.7c-2.1,17.4-10.5,31.8-25.5,42.9C2758.5,2234.4,2734.8,2240.7,2703.3,2240.7z
				 M2514.6,2037c10.8,0,20.7,1.8,29.1,4.8c9.9,3.9,18.6,9.9,25.5,18c2.1,2.4,3.9,5.1,5.7,8.1c9.6,15,15.9,36.3,19.2,63.3l1.5,12
				c1.5,15.6,6.3,29.1,14.4,39.9c5.1,7.2,11.7,13.5,18.9,18.3c3.9,2.7,8.4,5.1,12.9,6.9c14.4,6,27.3,8.4,45.3,8.4
				c27.3,0,49.5-6.3,66-18.6c14.1-10.5,22.5-24.3,24.3-40.8c0.3-1.8,0.3-3.6,0.3-5.4c0-0.6,0-2.1,0-2.7V2097h-15.3v51
				c0,12.3-3,22.8-8.7,31.2c-6,8.4-13.5,12.6-22.2,12.6c-0.6,0-1.2,0-1.8,0c-7.5-0.6-13.5-3.9-17.4-9.6c-4.2-6.3-6.9-16.8-8.4-31.2
				c-1.5-21-8.1-39.3-19.8-54.6c0,0,0-0.3-0.3-0.3l-0.3-0.3c-11.4-15.3-27.9-27.9-48.9-37.5c-4.8-2.1-9.9-4.2-15.3-6.3
				c-10.8-3.9-23.1-7.5-36.3-10.8l-1.8-0.3c-1.8-0.3-3.3-0.9-5.1-1.2c-3.9-0.9-7.8-1.5-11.7-2.4c-2.1-0.3-3.9-0.6-6-1.2l-6-0.9
				l-12.6-2.1l12.6-0.9c1.8,0,3.9-0.3,5.7-0.3s3.9-0.3,5.7-0.3h0.3c1.2,0,2.4-0.3,3.3-0.3l3.6-0.3c2.4-0.3,9-0.9,9-0.9l1.8-0.3
				c8.7-0.9,16.8-1.8,24.6-2.7l1.8-0.3c16.2-2.1,31.8-5.7,46.2-10.5c21.9-7.8,39-18.9,51.3-32.4c12.3-13.5,18.6-28.5,18.6-44.4
				c0-13.5-3.6-25.8-10.8-36.3c-7.2-10.8-18.3-20.4-33.3-28.5c-29.4-15.9-70.5-24-121.8-24H2310v13.2h17.1c14.4,0,25.5,1.8,33.3,4.8
				h0.3c2.4,0.9,4.5,2.1,6.3,3.6c0.9,0.9,1.8,1.5,2.7,2.4c0.9,0.9,1.5,1.8,2.4,3c2.1,3,3.6,6.9,4.8,11.1c1.2,4.5,1.8,9.6,1.8,15.6
				v253.5c0,16.5-3,27-9,32.4s-17.7,8.1-36,8.1h-23.1v13.2h246.9v-13.2H2526c-6.6,0-11.7-0.3-16.2-0.9c-3.9-0.3-6.9-0.9-9.6-1.8
				c-5.7-1.8-9.3-5.7-11.1-11.4c-1.5-5.4-2.4-14.1-2.4-26.7V2037H2514.6z"/>
			<path class="st1" d="M2558.7,1842.9c52.8,0,94.8,8.1,125.4,24.9c38.1,20.7,63,50.4,63,88.5c0,18.9-6.3,35.4-18.9,49.2
				c-12.6,13.8-30,24.9-52.2,33c-13.8,4.8-28.2,8.1-43.5,10.2c1.8,0.9,3.6,1.5,5.7,2.4c22.2,10.2,39.9,24,52.2,40.5
				c4.2,5.7,30.9,39.3,36.3,80.1c0.6,4.5,0.9,8.7,1.8,12.3c1.2,0.3,2.1,0.3,3.3,0.3c6.3,0,11.4-3,15.9-9.6
				c4.8-6.9,7.5-15.9,7.5-26.7v-58.8h30.3l15,27v53.7c0,0.6,0,2.1,0,2.7c0,1.8-0.3,3.6-0.3,5.4c-2.1,17.1-10.2,30.9-24.9,42
				c-16.8,12.6-39.9,18.9-71.4,18.9c-52.8,0-83.4-26.7-99.6-51.6c-8.1-12.6-13.8-26.7-15.6-43.5l-1.2-12
				c-3.6-30.6-11.7-53.4-23.4-67.5c-0.3-0.3-0.6-0.9-1.2-1.2c-8.1-2.7-16.8-4.2-26.7-4.2h-26.4v119.4c0,4.2,0,7.8,0.3,11.1
				c3.9,0.6,9,0.9,16.5,0.9h39l15,27v16.2h-249.9l-27-15v-28.2h30.6c21.3,0,28.5-3.9,31.2-6c3-2.7,6.3-9.6,6.3-27v-253.8
				c0-6.6-0.6-12.3-2.4-16.5c-5.7-0.9-12.6-1.5-20.4-1.5h-18.6l-27-15v-28.2h255.3 M2308.8,1865.1h18.6c14.4,0,25.2,1.8,33,4.8l0,0
				c2.4,0.9,4.2,2.1,6,3.3c0.9,0.6,1.8,1.5,2.4,2.4c0.9,0.9,1.5,1.8,2.1,2.7c1.8,3,3.3,6.3,4.5,10.5c1.2,4.2,1.5,9.3,1.5,15v253.8
				c0,15.9-2.7,26.4-8.4,31.5c-5.7,5.1-17.4,7.8-35.1,7.8h-24.6v16.2h249.9v-16.2h-33c-6.3,0-11.4-0.3-15.9-0.9
				c-3.9-0.3-6.9-0.9-9.3-1.8c-5.1-1.8-8.4-5.1-10.2-10.2c-1.5-5.1-2.4-13.8-2.4-26.1v-119.4h26.4c10.8,0,20.1,1.5,28.8,4.8
				c9.9,3.6,18,9.6,24.9,17.7c2.1,2.4,3.9,5.1,5.7,7.8c9.3,15,15.6,35.7,18.9,62.7l1.5,12c1.5,15.9,6.6,29.4,14.7,40.8
				c5.4,7.5,11.7,13.5,19.2,18.6c4.2,2.7,8.4,5.1,13.2,6.9c13.5,5.7,27,8.7,45.9,8.7c27.6,0,49.8-6.3,66.9-18.9
				c14.7-11.1,22.8-24.9,24.9-42c0.3-1.8,0.3-3.6,0.3-5.4c0-0.3,0-2.1,0-2.7v-53.7h-18.3v52.2c0,12-2.7,22.2-8.7,30.3
				c-5.7,8.1-12.6,12-21,12c-0.6,0-1.2,0-1.8,0c-7.2-0.6-12.3-3.6-16.2-9c-3.9-6-6.6-16.2-8.1-30.6c-1.5-21.3-8.4-39.9-20.1-55.5
				c0-0.3-0.3-0.3-0.3-0.3l0,0c-11.7-15.6-28.2-28.2-49.5-38.1c-4.8-2.1-9.9-4.2-15.3-6.3c-10.8-3.9-23.1-7.5-36.6-10.8
				c-2.4-0.6-4.5-0.9-6.9-1.5c-3.9-0.9-7.8-1.5-11.7-2.4c-2.1-0.3-4.2-0.6-6-1.2c-0.9-0.3-2.1-0.3-3-0.6c-0.9-0.3-2.1-0.3-3-0.6
				c1.8,0,3.9-0.3,5.7-0.3s3.9-0.3,5.7-0.3c1.2,0,2.4-0.3,3.6-0.3c1.2,0,2.4-0.3,3.6-0.3c2.4-0.3,4.8-0.3,7.2-0.6
				c1.2,0,2.4-0.3,3.6-0.3c8.7-0.9,16.8-1.8,24.6-2.7c0.6,0,1.2-0.3,1.8-0.3c16.2-2.1,31.8-5.7,46.5-10.8
				c22.2-8.1,39.6-18.9,52.2-33c12.6-13.8,18.9-29.1,18.9-45.3c0-13.8-3.6-26.4-11.1-37.2c-7.5-11.1-18.6-20.7-33.6-28.8
				c-29.7-16.2-70.8-24-122.7-24h-249.9L2308.8,1865.1 M2558.7,1839.9h-255.9h-3v3v28.2v1.8l1.5,0.9l27,15l0.6,0.3h0.9h18.6
				c6.9,0,12.9,0.3,18,1.2c0.9,3.9,1.5,8.4,1.5,13.8v253.8c0,18-3.9,23.1-5.4,24.6c-1.5,1.2-7.5,5.4-29.1,5.4h-30.6h-3v3v28.2v1.8
				l1.5,0.9l27,15l0.6,0.3h0.9h249.9h3v-3v-16.2v-0.9l-0.3-0.6l-15-27l-0.9-1.5h-1.8h-39c-5.4,0-9.9-0.3-13.5-0.6c0-2.7,0-5.4,0-8.4
				v-116.4h23.4c9.3,0,17.7,1.2,25.2,3.9c0,0,0.3,0.3,0.3,0.6c11.4,13.8,18.9,35.7,22.8,66l1.2,11.7c1.5,15.9,7.2,30.9,16.2,44.7
				c15.9,24.3,46.5,53.1,102.3,53.1c31.8,0,55.5-6.3,73.2-19.5c15.3-11.4,24-26.1,26.1-44.1c0.3-2.1,0.3-3.9,0.3-5.7
				c0-0.3,0-2.1,0-2.7v-53.7v-0.9l-0.3-0.6l-15-27l-0.9-1.5h-1.8h-30.3h-3v3v58.2c0,10.2-2.4,18.6-6.9,24.9
				c-3.9,5.7-8.4,8.1-13.5,8.1c-0.3,0-0.6,0-0.9,0c-0.3-1.8-0.6-3.9-0.9-6c-0.3-1.2-0.3-2.4-0.6-3.9c-2.4-18.3-10.8-47.1-36.3-80.7
				l-0.6-0.9c-12-15.9-28.8-29.4-49.8-39.6c12-2.1,23.4-5.1,34.2-8.7c22.5-8.1,40.5-19.5,53.4-33.9s19.5-31.5,19.5-51.3
				c0-36.6-22.2-68.1-64.5-91.2C2655,1848.6,2612.4,1839.9,2558.7,1839.9L2558.7,1839.9z M2311.8,1851.9h246.9
				c51,0,91.8,8.1,121.2,23.7c14.4,7.8,25.5,17.1,32.7,27.9c6.9,10.5,10.5,22.2,10.5,35.4c0,15.6-6,30-18,43.2
				c-12.3,13.5-29.4,24.3-51,32.1c-14.1,4.8-29.7,8.4-45.9,10.5c-0.3,0-0.6,0-0.9,0c-0.3,0-0.6,0-0.9,0c-7.5,0.9-15.9,1.8-24.3,2.7
				c-0.6,0-1.2,0-1.8,0.3c-0.6,0-1.2,0-1.8,0.3c-2.4,0.3-4.8,0.3-7.2,0.6c-0.6,0-1.2,0-1.8,0c-0.6,0-1.2,0-1.8,0.3
				c-1.2,0-2.4,0.3-3.6,0.3c-1.8,0.3-3.9,0.3-5.7,0.3c-1.8,0.3-3.9,0.3-5.7,0.3l-25.2,1.5l24.9,4.5c0.6,0,1.2,0.3,1.5,0.3
				c0.6,0,0.9,0.3,1.5,0.3s0.9,0.3,1.5,0.3s0.9,0.3,1.5,0.3c2.1,0.3,4.2,0.6,6,1.2c4.2,0.9,8.1,1.5,11.7,2.4
				c1.8,0.3,3.6,0.6,5.1,1.2l1.8,0.3c13.2,3,25.5,6.6,36,10.5c5.4,2.1,10.5,4.2,15,6.3c20.7,9.6,36.9,22.2,48.3,37.2l0.3,0.6l0,0
				c11.4,15,17.7,33.3,19.2,53.7c1.5,15,4.2,25.2,8.7,31.8c4.2,6.3,10.5,9.9,18.3,10.5c0.6,0,1.5,0,2.1,0c9.3,0,17.1-4.5,23.4-13.2
				c6-8.4,9-19.2,9-31.8v-49.8h12.3v50.7c0,0.3,0,2.1,0,2.4c0,1.8-0.3,3.6-0.3,5.4c-1.8,16.2-9.6,29.4-23.7,39.9
				c-16.2,12.3-38.1,18.3-65.1,18.3c-17.7,0-30.6-2.4-44.7-8.4c-4.5-1.8-8.7-4.2-12.6-6.9c-7.2-4.8-13.5-10.8-18.6-17.7
				c-7.8-10.8-12.6-24-14.1-39.3l-1.5-12c-3.3-27-9.9-48.6-19.5-63.9c-1.8-3-3.9-5.7-6-8.1c-7.2-8.4-15.9-14.7-26.1-18.6
				c-8.7-3.3-18.6-5.1-29.7-5.1h-26.4h-3v3V2157c0,12.6,0.9,21.6,2.4,27c1.8,6,6,10.2,12,12.3c2.7,0.9,6,1.5,9.9,2.1
				c4.2,0.6,9.6,0.9,16.2,0.9h30v10.2h-243.9v-10.2h21.6c18.9,0,30.9-2.7,37.2-8.4c6.3-5.7,9.3-16.8,9.3-33.6v-253.8
				c0-6-0.6-11.4-1.8-15.9c-1.2-4.5-2.7-8.4-4.8-11.4c-0.9-1.2-1.8-2.4-2.4-3.3c-0.9-0.9-1.8-1.8-2.7-2.4c-1.8-1.5-4.2-2.7-6.6-3.9
				l-0.6-0.3l0,0c-7.8-3.3-19.2-4.8-33.6-4.8h-15.6v-9.6H2311.8z"/>
		</g>
		<g>
			<path class="st0" d="M2552.7,2033.7L2552.7,2033.7c0.9,0.3,2.1,0.3,3,0.6C2554.8,2034,2553.6,2033.7,2552.7,2033.7z"/>
			<g>
				<path class="st0" d="M2486.7,2023.8v-136.5c0-6.9,3-12.6,8.7-17.1c0.6-0.6,1.2-0.9,2.1-1.5c5.4-3.3,12-5.1,19.8-5.1h27.9
					c11.4,0,21,1.8,28.8,5.1c3.9,1.5,7.2,3.6,10.2,6c5.1,4.2,9.6,9.6,13.2,16.2c6.6,12.6,10.2,30.3,10.2,51.9
					c0,24.3-3.6,42.6-10.8,54.3c-7.2,12-17.4,19.5-30,22.2c-12.3,2.7-30.3,4.2-52.8,4.2h-27.3V2023.8z M2513.1,2014.8
					c21.9,0,39-1.5,50.7-3.9c10.5-2.4,18.3-8.4,24.3-18.3c6.3-10.2,9.6-27,9.6-49.5c0-23.7-4.2-41.4-12.3-53.1
					c-5.7-1.5-12.3-2.1-19.8-2.1H2538c-8.1,0-14.7,2.1-19.8,6c-5.1,3.9-7.5,8.7-7.5,14.7v106.5h2.4V2014.8z"/>
				<path class="st1" d="M2544.6,1865.1c11.1,0,20.7,1.8,28.2,4.8c3.6,1.5,6.9,3.6,9.9,6c5.1,4.2,9.3,9.3,12.6,15.9
					c6.6,12.6,9.9,29.7,9.9,51.3c0,24-3.6,42-10.5,53.4c-7.2,11.7-16.8,18.9-29.1,21.6s-29.7,4.2-52.5,4.2h-24.9v-135
					c0-6.6,2.7-11.7,8.1-15.9c0.6-0.6,1.2-0.9,1.8-1.2c5.1-3.3,11.4-4.8,18.9-4.8h27.6 M2509.2,2016.3h3.9c22.2,0,39.3-1.5,51-4.2
					c10.8-2.4,19.2-8.7,25.2-18.9c6.6-10.5,9.6-27.6,9.6-50.4c0-24.3-4.2-42.6-12.9-54.3c-6-1.5-12.9-2.4-20.7-2.4H2538
					c-8.4,0-15.3,2.1-20.7,6.3c-5.4,4.2-8.1,9.6-8.1,15.9L2509.2,2016.3 M2544.6,1862.1H2517c-8.1,0-15,1.8-20.4,5.4
					c-0.6,0.3-1.5,0.9-2.1,1.5c-6.3,4.8-9.3,10.8-9.3,18.3v135v3h3h24.9c22.8,0,40.5-1.5,53.1-4.2c13.2-3,23.4-10.8,30.9-23.1
					c7.2-12,11.1-30.6,11.1-55.2c0-21.9-3.6-39.6-10.2-52.5c-3.6-6.6-8.1-12.3-13.5-16.8c-3-2.4-6.6-4.8-10.5-6.3
					C2566.2,1863.9,2556.3,1862.1,2544.6,1862.1L2544.6,1862.1z M2512.2,2013.3v-105c0-5.7,2.4-9.9,6.9-13.5
					c4.8-3.6,11.1-5.7,18.9-5.7h27.9c6.9,0,13.5,0.6,18.9,2.1c7.8,11.4,11.7,28.8,11.7,51.9c0,22.2-3,38.7-9.3,48.9
					c-5.7,9.6-13.5,15.3-23.4,17.4c-11.7,2.7-28.5,3.9-50.4,3.9L2512.2,2013.3L2512.2,2013.3z"/>
			</g>
			<path class="st1" d="M2760.9,2095.2v52.8c0,12-2.7,22.2-8.7,30.3c-5.7,8.1-12.6,12-21,12c-0.6,0-1.2,0-1.8,0
				c-7.2-0.6-12.3-3.6-16.2-9c-3.9-6-6.6-16.2-8.1-30.6c-1.5-21.3-8.4-39.9-20.1-55.5l-0.3-0.3l0,0c-11.7-15.6-28.2-28.2-49.5-38.1
				c-4.8-2.1-9.9-4.2-15.3-6.3c-10.8-3.9-23.1-7.5-36.6-10.8c-2.4-0.6-4.5-1.2-6.9-1.5c-3.9-0.9-7.8-1.5-11.7-2.4
				c-2.1-0.3-4.2-0.6-6-1.2c-0.9-0.3-2.1-0.3-3-0.6c-0.9-0.3-2.1-0.3-3-0.6l0,0c2.1,0,3.9-0.3,5.7-0.3s3.9-0.3,5.7-0.3
				c1.2,0,2.4-0.3,3.6-0.3c1.2,0,2.4-0.3,3.6-0.3c2.4-0.3,4.8-0.3,7.2-0.6c1.2,0,2.4-0.3,3.6-0.3c8.7-0.9,16.8-1.8,24.6-2.7
				c0.6,0,1.2,0,1.8-0.3c16.2-2.1,31.8-5.7,46.5-10.8c22.2-8.1,39.6-19.2,52.2-33c12.6-13.8,18.9-29.1,18.9-45.3
				c0-13.8-3.6-26.4-11.1-37.2c-7.5-11.1-18.6-20.7-33.6-28.8c-29.7-16.2-70.8-24-122.7-24h-249.9v16.2h18.6c14.4,0,25.2,1.8,33,4.8
				l0,0c2.4,0.9,4.2,2.1,6,3.3c0.9,0.6,1.8,1.5,2.4,2.4c0.9,0.9,1.5,1.8,2.1,2.7c1.8,3,3.3,6.3,4.5,10.5c1.2,4.5,1.5,9.3,1.5,15
				v253.5c0,15.9-2.7,26.4-8.4,31.5c-5.7,5.1-17.4,7.5-35.1,7.5h-24.6v16.2h249.9v-16.2h-33c-6.3,0-11.4-0.3-15.9-0.9
				c-3.9-0.3-6.9-0.9-9.3-1.8c-5.1-1.8-8.4-5.1-10.2-10.2c-1.5-5.1-2.4-13.8-2.4-26.1v-119.4h26.4c10.8,0,20.1,1.5,28.8,4.8
				c9.9,3.6,18,9.6,24.9,17.7c2.1,2.4,3.9,5.1,5.7,7.8c9.3,15,15.6,35.7,18.9,62.7l1.5,12c1.5,15.9,6.6,29.4,14.7,40.8
				c5.4,7.5,11.7,13.5,19.2,18.6c4.2,2.7,8.4,5.1,13.2,6.9c13.5,5.7,27,8.7,45.9,8.7c27.6,0,49.8-6.3,66.9-18.9
				c14.7-11.1,22.8-24.9,24.9-42c0.3-1.8,0.3-3.6,0.3-5.4c0-0.3,0-2.1,0-2.7v-53.7h-18.3V2095.2z M2513.1,2022.3h-24.9v-135
				c0-6.6,2.7-11.7,8.1-15.9c0.6-0.3,1.2-0.9,1.8-1.2c5.1-3.3,11.4-4.8,18.9-4.8h27.9c11.1,0,20.7,1.8,28.2,4.8
				c3.6,1.5,6.9,3.6,9.9,6c5.1,4.2,9.3,9.3,12.6,15.9c6.6,12.6,9.9,29.7,9.9,51.3c0,24-3.6,42-10.5,53.4
				c-7.2,11.7-16.8,18.9-29.1,21.6C2553.3,2020.8,2535.6,2022.3,2513.1,2022.3z"/>
		</g>
	</g>
	<g>
		<g>
			<g>
				<path class="st0" d="M593.7,2241.6l-24.6-15.3l-201.6-255.9l2.7,155.1c0,15.3,2.7,29.1,7.8,40.8c7.5,7.5,16.8,13.5,27.6,17.7
					c7.2,2.7,17.7,4.5,31.8,5.7l6.3,0.6l15.6,27.6v18h-186l-28.2-15.6v-29.4l6.6-0.9c26.1-3.6,43.8-11.7,52.2-24.6
					c9-13.5,13.5-31.8,13.5-54.3v-164.7c0-22.8-3.6-39.6-10.2-50.4c-1.2-1.8-2.4-3.3-3.3-4.5c-8.7-2.1-18.6-3-29.7-3h-0.3L246,1872
					v-30.6h156.6l2.4,3l193.2,246l-1.8-125.7c-0.3-23.4-3.6-41.7-10.5-54.6c-2.7-5.4-6-9.9-9.3-13.8c-9.6-3.6-21.6-6.6-34.8-8.4
					h-0.3l-27.9-16.5v-29.7h190.5l15.6,28.2v17.7l-1.2,0.3c-25.5,3.6-44.1,11.7-55.2,23.7s-16.5,30.6-16.5,54.9v2.1l3.9,273.3h-57
					V2241.6z M626.4,2217.6l-3.3-243.6l-0.3-26.7v-2.1c0-24.9,5.7-44.1,17.4-56.7c7.8-8.4,19.2-15.3,33.9-19.5
					c6.6-2.1,14.1-3.6,21.9-4.8V1851H522.9v13.2c8.4,1.2,15.9,2.7,23.1,4.8c7.2,2.1,13.8,4.5,19.5,7.2c9.9,4.8,18.3,12.6,25.2,23.4
					c1.2,2.1,2.4,4.2,3.9,6.6c7.5,14.1,11.1,33.9,11.4,58.8l2.1,152.4L398.7,1851H255v13.2c12.3,0,23.4,1.5,33,4.2
					c0.9,0.3,1.8,0.6,2.7,0.9c9,3.3,17.1,10.5,24.3,21.9c0.3,0.3,0.6,0.9,0.9,1.2c7.2,12,10.8,30.3,10.8,53.7v164.7
					c0,24.6-5.1,44.4-15,59.4c-9.9,14.7-29.1,24.3-57.3,28.5v13.2h181.2v-13.2c-14.1-1.2-25.2-3-33-6c-6.9-2.7-13.2-6-18.9-9.6
					c-9-6-16.5-13.8-22.5-23.1c-9.6-15-14.7-33.6-14.7-55.2l-2.7-159.3l-0.3-20.7l23.7,30.3l206.7,262.5L626.4,2217.6L626.4,2217.6z
					"/>
				<path class="st1" d="M703.2,1842.9l15,27v16.2c-26.1,3.6-44.7,11.7-56.1,24c-11.4,12.3-17.1,30.9-17.1,55.8v2.1l3.9,271.8H594
					l-24-15l-1.8-2.4L366,1965.6l2.7,159.6c0.3,15.6,2.7,29.7,7.8,41.7c7.8,7.8,17.1,13.8,28.5,18c7.2,2.7,18,4.8,32.1,5.7l5.7,0.3
					l15,26.7v16.2H273.9l-27-15v-27.3l5.1-0.6c26.7-3.6,44.7-12,53.4-25.2c9-13.8,13.8-32.4,13.8-55.2v-164.7
					c0-23.1-3.6-40.2-10.5-51c-1.2-1.8-2.4-3.6-3.6-5.1c-9-2.1-18.9-3.3-30.3-3.3l-27-15v-28.2H402l1.8,2.4l195.9,249.6l-1.8-130.2
					c-0.3-23.4-3.9-42-10.8-55.2c-3-5.4-6-10.5-9.6-14.4c-10.2-3.9-21.9-6.6-35.7-8.7l-27-15.9v-27.3h188.4 M606,2112.3
					l-190.5-242.4l-16.5-21H253.5v16.2c12.9,0,24.3,1.5,34.2,4.2c0.9,0.3,1.8,0.6,2.4,0.9c8.7,3.3,16.5,10.2,23.7,21.3
					c0.3,0.3,0.6,0.9,0.6,1.2c7.2,12,10.8,29.7,10.8,53.1v164.7c0,24.3-4.8,43.8-14.7,58.5c-9.9,14.7-29.1,24-57.6,27.9v16.2h184.2
					v-16.2c-15-0.9-26.1-3-33.9-6c-6.9-2.7-12.9-5.7-18.6-9.6c-9-6-16.2-13.5-22.2-22.5c-9.6-14.7-14.4-33-14.7-54.3l-1.5-91.8
					l-1.2-67.2l-0.3-16.2l21,26.7L573,2219.1h54.9l-1.2-85.8l-2.1-159.3l-0.3-26.7v-2.1c0-24.9,5.7-43.2,17.1-55.8
					c7.8-8.4,18.6-14.7,33-19.2c6.9-2.1,14.4-3.6,22.8-4.8v-16.2H521.1v16.2c8.7,1.2,16.8,3,24,4.8c7.2,2.1,13.5,4.5,19.2,7.2
					c9.6,4.8,18,12.3,24.6,22.8c1.2,2.1,2.4,4.2,3.6,6.6c7.2,14.1,11.1,33.3,11.4,57.9l1.8,142.2L606,2112.3 M705,1839.9h-1.8H515.1
					h-3v3v27.3v1.8l1.5,0.9l27,15.9l0.6,0.3h0.6c13.2,1.8,24.6,4.8,34.2,8.4c3.3,3.9,6.3,8.4,8.7,13.2c6.6,12.9,10.2,30.9,10.2,54
					l1.8,121.2l-190.5-242.4l-1.8-2.4l-0.9-1.2H402H247.5h-3v3v28.2v1.8l1.5,0.9l27,15l0.6,0.3h0.9c10.8,0,20.4,0.9,28.8,3
					c0.9,1.2,1.8,2.4,3,4.2c6.6,10.5,9.9,27,9.9,49.5v164.7c0,22.2-4.5,40.5-13.2,53.7c-8.4,12.6-25.5,20.4-51.3,24l-5.1,0.6
					l-2.7,0.3v2.7v27.3v1.8l1.5,0.9l27,15l0.6,0.3h0.9h184.2h3v-3v-16.2v-0.9l-0.3-0.6l-15-26.7l-0.9-1.5h-1.5l-5.7-0.3
					c-13.8-0.9-24.3-2.7-31.5-5.4c-10.5-3.9-19.5-9.6-27-17.1c-4.8-11.7-7.2-25.2-7.5-40.2l-2.7-150.6l196.8,249.9l1.8,2.4l0.3,0.3
					l0.3,0.3l24,15l0.6,0.6h0.9h54.9h3v-3l-3.9-271.8v-2.1c0-24,5.4-42,16.2-53.7c10.8-11.7,29.1-19.5,54.3-23.1l2.7-0.3v-2.7v-16.2
					v-0.9l-0.3-0.6l-15-27L705,1839.9L705,1839.9z M524.1,1851.9h170.1v10.5c-7.5,1.2-14.4,2.7-20.7,4.5
					c-15,4.5-26.4,11.4-34.5,20.1c-11.7,12.9-17.7,32.4-17.7,57.9v2.1l0.3,26.7l2.1,159.3l1.2,82.8h-50.4l-206.4-262.2l-21-26.7
					l-5.4-6.9v9l0.3,16.2l1.2,67.2l1.5,91.8c0.3,21.9,5.4,40.8,15,55.8c6,9.3,13.8,17.4,22.8,23.4c5.7,3.9,12.3,7.2,19.2,9.9
					c7.5,3,18.3,4.8,32.1,6v10.2H255.9V2199c27.9-4.2,47.1-13.8,57-28.8c10.2-15.3,15.3-35.4,15.3-60.3v-164.7
					c0-23.7-3.9-42.3-11.1-54.6c-0.3-0.3-0.6-0.9-0.9-1.5c-7.2-11.4-15.6-18.9-24.9-22.2c-0.9-0.3-1.8-0.6-2.7-0.9
					c-9.3-2.7-20.1-3.9-31.8-4.2v-10.2h141l15.6,19.8l190.5,242.4l5.4,6.9v-9v-5.7l-1.8-142.2c-0.3-24.9-4.2-45-11.7-59.4
					c-1.2-2.4-2.7-4.8-3.9-6.6c-6.9-11.1-15.6-19.2-25.8-24c-5.7-2.7-12.3-5.1-19.8-7.2c-6.6-1.8-14.1-3.3-21.9-4.5v-10.2H524.1z"/>
			</g>
		</g>
		<g>
			<g>
				<path class="st1" d="M521.1,1848.9v16.2c8.7,1.2,16.8,3,24,4.8c7.2,2.1,13.5,4.5,19.2,7.2c9.6,4.8,18,12.3,24.6,22.8
					c1.2,2.1,2.4,4.2,3.6,6.6c7.2,14.1,11.1,33.3,11.4,57.9l1.8,142.2v5.7l-190.5-242.4l-16.5-21H253.5v16.2
					c12.9,0,24.3,1.5,34.2,4.2c0.9,0.3,1.8,0.6,2.4,0.9c8.7,3.3,16.5,10.2,23.7,21.3c0.3,0.3,0.6,0.9,0.6,1.2
					c7.2,12,10.8,29.7,10.8,53.1v164.7c0,24.3-4.8,43.8-14.7,58.5c-9.9,14.7-29.1,24-57.6,27.9v16.2h184.2v-16.2
					c-15-0.9-26.1-3-33.9-6c-6.9-2.7-12.9-5.7-18.6-9.6c-9-6-16.2-13.5-22.2-22.5c-9.6-14.7-14.4-33-14.7-54.3l-1.5-91.8l-1.2-67.2
					l-0.3-16.2l21,26.7L573,2219.1h54.9l-1.2-85.8l-2.1-159.3l-0.3-26.7v-2.1c0-24.9,5.7-43.2,17.1-55.8c7.8-8.4,18.6-14.7,33-19.2
					c6.9-2.1,14.4-3.6,22.8-4.8v-16.2H521.1V1848.9z"/>
			</g>
		</g>
	</g>
	<g>
		<g>
			<g>
				<path class="st0" d="M2237.7,2713.2l-24.6-15.3L2011.5,2442l2.7,155.1c0,15.3,2.7,29.1,7.8,40.8c7.5,7.5,16.8,13.5,27.6,17.7
					c7.2,2.7,17.7,4.5,31.8,5.7l6.3,0.6l15.6,27.6v18h-186l-28.2-15.6v-29.4l6.6-0.9c26.1-3.6,43.8-11.7,52.2-24.6
					c9-13.5,13.5-31.8,13.5-54.3V2418c0-22.8-3.6-39.6-10.2-50.4c-1.2-1.8-2.4-3.3-3.3-4.5c-8.7-2.1-18.6-3-29.7-3h-0.3l-28.2-15.6
					V2313h156.6l2.4,3l193.2,246l-1.8-125.7c-0.3-23.4-3.6-41.7-10.5-54.6c-2.7-5.4-6-9.9-9.3-13.8c-9.6-3.6-21.6-6.6-34.8-8.4h-0.3
					l-27.9-16.5v-30h190.5l15.6,28.2v17.7l-1.2,0.3c-25.5,3.6-44.1,11.7-55.2,23.7c-11.1,12-16.5,30.6-16.5,54.9v2.1l3.9,273.3
					H2237.7z M2270.4,2689.2l-3.3-243.6l-0.3-26.7v-2.1c0-24.9,5.7-44.1,17.4-56.7c7.8-8.4,19.2-15.3,33.9-19.5
					c6.6-2.1,14.1-3.6,21.9-4.8V2322h-173.1v13.2c8.1,1.2,15.9,2.7,23.1,4.8c7.2,2.1,13.8,4.5,19.5,7.2c9.9,4.8,18.3,12.6,25.2,23.4
					c1.2,2.1,2.4,4.2,3.9,6.6c7.5,14.1,11.1,33.9,11.4,58.8l2.1,142.2l0.3,10.2L2042.1,2322H1899v13.2c12.3,0,23.4,1.5,33,4.2
					c0.9,0.3,1.8,0.6,2.7,0.9c9,3.3,17.1,10.5,24.3,21.9c0.3,0.3,0.6,0.9,0.9,1.2c7.2,12.3,10.8,30.3,10.8,54v164.7
					c0,24.6-5.1,44.4-15,59.4c-9.9,14.7-29.1,24.3-57.3,28.5v13.2h181.2V2670c-14.1-1.2-25.2-3-33-6c-6.9-2.7-13.2-6-18.9-9.6
					c-9-6-16.5-13.8-22.5-23.1c-9.6-15-14.7-33.6-14.7-55.2l-2.7-159.3l-0.3-20.7l23.7,30.3l206.7,262.5h52.5V2689.2z"/>
				<path class="st1" d="M2347.2,2314.5l15,27v16.2c-26.1,3.6-44.7,11.7-56.1,24c-11.4,12.3-17.1,30.9-17.1,55.8v2.1l3.9,271.8H2238
					l-24-15l-1.8-2.4L2010,2437.2l2.7,159.6c0.3,15.6,2.7,29.7,7.8,41.7c7.8,7.8,17.1,13.8,28.5,18c7.2,2.7,18,4.8,32.1,5.7l5.7,0.3
					l15,26.7v16.2h-184.2l-27-15v-27.3l5.1-0.6c26.7-3.6,44.7-12,53.4-25.2c9-13.8,13.8-32.4,13.8-55.2v-164.7
					c0-23.1-3.6-40.2-10.5-51c-1.2-1.8-2.4-3.6-3.6-5.1c-9-2.1-18.9-3.3-30.3-3.3l-27-15v-28.2h154.2l1.8,2.4l195.9,249.3
					l-1.8-130.2c-0.3-23.7-3.9-42.3-10.8-55.2c-3-5.4-6-10.2-9.6-14.4c-10.2-3.9-21.9-6.6-35.7-8.7l-27-15.9v-27.3h188.7
					 M2250,2583.9l-190.5-242.4l-16.5-21h-145.2v16.2c12.9,0,24.3,1.5,34.2,4.2c0.9,0.3,1.8,0.6,2.4,0.9
					c8.7,3.3,16.5,10.2,23.7,21.3c0.3,0.3,0.6,0.9,0.6,1.2c7.2,12,10.8,29.7,10.8,53.1v164.7c0,24.3-4.8,43.8-14.7,58.5
					c-9.9,14.7-29.1,24-57.6,27.9v16.2h184.2v-16.2c-15-0.9-26.1-3-33.9-6c-6.9-2.7-12.9-5.7-18.6-9.6c-9-6-16.2-13.5-22.2-22.5
					c-9.6-14.7-14.4-33-14.7-54.3l-1.5-91.8l-1.2-67.2l-0.3-16.2l21,26.7l207.3,263.1h54.9l-1.2-85.8l-2.1-159.3l-0.3-26.7v-2.1
					c0-24.9,5.7-43.2,17.1-55.8c7.8-8.4,18.6-14.7,33-19.2c6.9-2.1,14.4-3.6,22.8-4.8v-16.2h-176.1v16.2c8.7,1.2,16.8,3,24,4.8
					c7.2,2.1,13.5,4.2,19.2,7.2c9.6,4.8,18,12.3,24.6,22.8c1.2,2.1,2.4,4.2,3.6,6.6c7.2,14.1,11.1,33.3,11.4,57.9l1.8,142.2
					L2250,2583.9 M2348.7,2311.5h-1.8h-188.1h-3v3v27.3v1.8l1.5,0.9l27,15.9l0.6,0.3h0.6c13.2,1.8,24.6,4.8,34.2,8.4
					c3.3,3.9,6.3,8.4,8.7,13.2c6.6,12.9,10.2,30.9,10.2,54l1.8,121.2l-190.5-242.4l-1.8-2.4l-0.9-1.2h-1.5h-154.2h-3v3v28.2v1.8
					l1.5,0.9l27,15l0.6,0.3h0.9c10.8,0,20.4,0.9,28.8,3c0.9,1.2,1.8,2.4,3,4.2c6.6,10.5,9.9,27,9.9,49.5v164.7
					c0,22.2-4.5,40.5-13.2,53.7c-8.4,12.6-25.5,20.4-51.3,24l-5.1,0.6l-2.7,0.3v2.7v27.3v1.8l1.5,0.9l27,15l0.6,0.3h0.9h184.2h3v-3
					v-16.2v-0.9l-0.3-0.6l-15-26.7l-0.9-1.5h-1.5l-5.7-0.3c-13.8-0.9-24.3-2.7-31.5-5.4c-10.5-3.9-19.5-9.6-27-17.1
					c-4.8-11.7-7.2-25.2-7.5-40.2l-2.7-150.6l196.8,249.9l1.8,2.4l0.3,0.3l0.3,0.3l24,15l0.6,0.6h0.9h54.9h3v-3l-3.9-271.8v-2.1
					c0-24,5.4-42,16.2-53.7c10.8-11.7,29.1-19.5,54.3-23.1l2.7-0.3v-2.7v-16.2v-0.9l-0.3-0.6l-15-27L2348.7,2311.5L2348.7,2311.5z
					 M2167.8,2323.5h170.1v10.5c-7.5,1.2-14.4,2.7-20.7,4.5c-15,4.5-26.4,11.4-34.5,20.1c-11.7,12.9-17.7,32.4-17.7,57.9v2.1
					l0.3,26.7l2.1,159.3l1.2,82.8h-50.4l-206.4-262.2l-21-26.7l-5.4-6.9v9l0.3,16.2l1.2,67.2l1.5,91.8c0.3,21.9,5.4,40.8,15,55.8
					c6,9.3,13.8,17.4,22.8,23.4c5.7,3.9,12.3,7.2,19.2,9.9c7.5,3,18.3,4.8,32.1,6v10.2h-178.2v-10.5c27.9-4.2,47.1-13.8,57-28.8
					c10.2-15.3,15.3-35.4,15.3-60.3v-164.7c0-23.7-3.9-42.3-11.1-54.6c-0.3-0.3-0.6-0.9-0.9-1.5c-7.2-11.4-15.6-18.9-24.9-22.2
					c-0.9-0.3-1.8-0.6-2.7-0.9c-9.3-2.7-20.1-3.9-31.8-4.2v-10.2h141l15.6,19.8l190.5,242.4l5.4,6.9v-9v-5.7l-1.8-142.2
					c-0.3-24.9-4.2-45-11.7-59.4c-1.2-2.4-2.7-4.8-3.9-6.6c-6.9-11.1-15.6-19.2-25.8-24c-5.7-2.7-12.3-5.1-19.8-7.2
					c-6.6-1.8-14.1-3.3-21.9-4.5L2167.8,2323.5L2167.8,2323.5z"/>
			</g>
		</g>
		<g>
			<g>
				<path class="st1" d="M2164.8,2320.5v16.2c8.7,1.2,16.8,3,24,4.8c7.2,2.1,13.5,4.5,19.2,7.2c9.6,4.8,18,12.3,24.6,22.8
					c1.2,2.1,2.4,4.2,3.6,6.6c7.2,14.1,11.1,33.3,11.4,57.9l1.8,142.2v5.7l-190.5-242.4l-16.5-21h-145.2v16.2
					c12.9,0,24.3,1.5,34.2,4.2c0.9,0.3,1.8,0.6,2.4,0.9c8.7,3.3,16.5,10.2,23.7,21.3c0.3,0.3,0.6,0.9,0.6,1.2
					c7.2,12,10.8,29.7,10.8,53.1v164.7c0,24.3-4.8,43.8-14.7,58.5c-9.9,14.7-29.1,24-57.6,27.9v16.2h184.2v-16.2
					c-15-0.9-26.1-3-33.9-6c-6.9-2.7-12.9-5.7-18.6-9.6c-9-6-16.2-13.5-22.2-22.5c-9.6-14.7-14.4-33-14.7-54.3l-1.5-91.8l-1.2-67.2
					l-0.3-16.2l21,26.7l207.3,263.1h54.9l-1.2-85.8l-2.1-159.3l-0.3-26.7v-2.1c0-24.9,5.7-43.2,17.1-55.8c7.8-8.4,18.6-14.7,33-19.2
					c6.9-2.1,14.4-3.6,22.8-4.8v-16.2h-176.1V2320.5z"/>
			</g>
		</g>
	</g>
	<g>
		<g>
			<g>
				<path class="st0" d="M209.7,1707l-28.2-15.6v-30.6h43.8c21.6,0,28.2-3.9,30-5.7c2.1-2.1,6-8.1,6-25.8V1359
					c-19.8,0.3-36,6.9-48.3,19.8c-12.6,13.2-21.6,27.9-26.7,43.5c-5.1,15.9-9.6,35.1-13.8,57l-0.3,1.2h-19.8l-28.2-15.6v-152.1
					h398.7l15.6,28.2v140.1H519l-26.7-15.6l-1.2-5.4c-4.8-22.8-10.5-42.3-16.2-58.5c-5.1-14.1-13.2-27.3-24-38.4
					c-7.8-2.7-16.8-4.2-26.4-4.2c-8.4,0-14.4,1.5-17.4,4.5s-4.8,8.1-4.8,15.6v271.2c0,3.6,0,6.9,0.3,9.9c4.2,0.6,9.3,0.9,15.6,0.9
					h48.3l15.6,28.2v18H209.7V1707z M458.1,1683v-13.2h-39.9c-6.6,0-12.3-0.3-16.8-0.9c-3.9-0.6-6.9-1.2-9.3-1.8
					c-5.7-1.8-9.3-5.7-11.1-11.1c-1.8-5.1-2.7-13.8-2.7-26.7v-271.2c0-8.4,1.8-14.1,5.4-17.7c3.9-3.6,10.2-5.4,19.5-5.4
					c10.5,0,20.4,1.8,29.1,5.1c8.4,3.3,15.9,8.1,22.2,14.4c4.5,4.2,8.4,9,12,13.8c6.9,9.3,12.6,19.5,16.5,30.3
					c6,16.2,11.4,36,16.2,58.5h15.3v-135h-381v134.7h15.6c0.9-4.5,1.8-8.7,2.4-12.6c3.3-16.2,7.2-30.9,11.1-43.5
					c5.1-16.2,14.4-31.2,27.3-44.7c6.6-6.9,14.4-12.3,23.4-15.6c8.7-3.3,18.3-5.1,28.8-5.1c10.2,0,17.4,1.8,21.6,5.1l0.3,0.3
					c4.2,3.3,6.3,9.3,6.3,17.1v271.5c0,16.5-3,27-9,32.4c-6,5.4-17.7,8.1-36,8.1h-34.8v13.2H458.1z"/>
				<path class="st1" d="M522.3,1314.6l15,27v138.3h-18l-25.8-15l-0.9-4.8c-4.8-22.8-10.5-42.6-16.2-58.8
					c-5.4-14.7-13.5-27.6-24.6-39.3c-8.1-3-17.4-4.5-27.3-4.5c-9,0-15,1.5-18.6,4.8c-3.3,3.3-5.1,8.7-5.1,16.8V1650
					c0,4.2,0,7.8,0.3,11.1c3.9,0.6,9.3,0.9,17.1,0.9h47.4l15,27v16.2H210l-27-15V1662h42.3c21.3,0,28.5-3.9,31.2-6
					c3-2.7,6.6-9.6,6.6-27v-271.8c-21.3,0-38.1,6.9-50.7,20.1c-12.9,13.5-21.6,28.2-27,44.1c-5.1,15.9-9.6,35.1-13.8,57.3H153
					l-27-15V1314h396.3 M132,1458.3h18.3c0.9-4.8,1.8-9.3,2.7-13.8c3.3-16.2,7.2-30.9,11.1-43.2c5.1-15.9,14.1-30.6,27-44.1
					c6.6-6.9,14.1-12,22.8-15.3c8.4-3.3,18-4.8,28.5-4.8c9.9,0,16.8,1.5,20.7,4.8c0,0,0,0,0.3,0.3c3.9,3.3,5.7,8.7,5.7,16.2v271.5
					c0,15.9-2.7,26.4-8.4,31.2c-5.7,5.1-17.4,7.8-35.1,7.8H189v16.2h270.9v-16.2h-41.4c-6.6,0-12-0.3-16.5-0.9
					c-3.6-0.6-6.6-0.9-9-1.8c-5.1-1.8-8.4-5.1-10.2-10.2s-2.7-13.8-2.7-26.1v-271.2c0-7.8,1.8-13.5,5.1-16.8l0,0
					c3.3-3.3,9.6-4.8,18.6-4.8c10.5,0,19.8,1.5,28.5,4.8c8.1,3.3,15.3,7.8,21.9,14.1c4.5,4.2,8.4,8.7,12,13.5
					c6.9,9.3,12.3,19.2,16.2,30c6,16.5,11.4,36.3,16.5,59.4h18v-138.3H132V1458.3 M524.1,1311.6h-1.8H126h-3v3v149.7v1.8l1.5,0.9
					l27,15l0.6,0.3h0.9h18.3h2.4l0.6-2.4c4.2-21.9,8.7-41.1,13.8-56.7s13.8-30,26.1-42.9c11.4-12,26.7-18.6,45.6-19.2v268.5
					c0,17.7-3.9,23.1-5.4,24.6c-1.5,1.2-7.5,5.4-29.1,5.4H183h-3v3v28.2v1.8l1.5,0.9l27,15l0.6,0.3h0.9h270.9h3v-3v-16.2v-0.9
					l-0.3-0.6l-15-27l-0.9-1.5h-1.8h-47.4c-5.7,0-10.2-0.3-14.4-0.6c0-2.7,0-5.4,0-8.4v-270.9c0-6.9,1.5-12,4.2-14.7
					c2.7-2.7,8.4-3.9,16.5-3.9c9.3,0,18,1.5,25.5,4.2c10.5,11.1,18.6,23.7,23.4,37.5c5.7,15.9,11.1,35.7,16.2,58.2l0.9,4.8l0.3,1.2
					l1.2,0.6l25.8,15l0.6,0.3h0.9h18h3v-3v-138.3v-0.6l-0.3-0.6l-15-27L524.1,1311.6L524.1,1311.6z M135,1323.6h378.3v132.3H501
					c-4.8-22.2-10.2-41.4-15.9-57.6c-3.9-11.1-9.6-21.3-16.8-30.9c-3.6-4.8-7.8-9.6-12.3-14.1c-6.6-6.6-14.4-11.4-22.8-14.7
					c-8.7-3.3-18.9-5.1-29.4-5.1c-9.9,0-16.5,1.8-20.7,5.7l0,0l0,0c-3.9,3.9-6,9.9-6,18.9v271.2c0,12.9,0.9,21.6,2.7,27
					c2.1,6,6,10.2,12,12c2.4,0.9,5.7,1.5,9.6,2.1c4.5,0.6,10.2,0.9,17.1,0.9h38.4v10.2H192v-10.2h33.3c18.9,0,30.9-2.7,37.2-8.4
					s9.3-16.8,9.3-33.6v-271.5c0-8.4-2.4-14.7-6.9-18.3l0,0h-0.3l0,0l0,0c-4.5-3.6-12-5.4-22.5-5.4c-10.8,0-20.7,1.8-29.4,5.1
					c-9,3.6-17.1,9-23.7,15.9c-12.9,13.8-22.2,28.8-27.6,45.3c-4.2,12.6-7.8,27.3-11.1,43.8c-0.9,4.5-1.5,8.1-2.4,11.4H135V1323.6
					L135,1323.6z"/>
			</g>
		</g>
		<g>
			<g>
				<path class="st1" d="M132,1320.6v137.7h18.3c0.9-4.8,1.8-9.3,2.7-13.8c3.3-16.2,7.2-30.9,11.1-43.2c5.1-15.9,14.1-30.6,27-44.1
					c6.6-6.9,14.1-12,22.8-15.3c8.4-3.3,18-4.8,28.5-4.8c9.9,0,16.8,1.5,20.7,4.8c0,0,0,0,0.3,0.3c3.9,3.3,5.7,8.7,5.7,16.2v271.5
					c0,15.9-2.7,26.4-8.4,31.2c-5.7,5.1-17.4,7.8-35.1,7.8H189v16.2h270.9v-16.2h-41.4c-6.6,0-12-0.3-16.5-0.9
					c-3.6-0.6-6.6-0.9-9-1.8c-5.1-1.8-8.4-5.1-10.2-10.2s-2.7-13.8-2.7-26.1v-271.2c0-7.8,1.8-13.5,5.1-16.8l0,0
					c3.3-3.3,9.6-4.8,18.6-4.8c10.5,0,19.8,1.5,28.5,4.8c8.1,3.3,15.3,7.8,21.9,14.1c4.5,4.2,8.4,8.7,12,13.5
					c6.9,9.3,12.3,19.2,16.2,30c6,16.5,11.4,36.3,16.5,59.4h18v-138.3L132,1320.6L132,1320.6z"/>
			</g>
		</g>
	</g>
	<g>
		<g>
			<g>
				<path class="st0" d="M921,671.4c-22.5,0-43.8-2.7-63-8.1c-19.2-5.4-35.1-11.4-48-18c-12.3-6.3-24-13.2-35.1-20.1
					c-9,6.3-15.6,12.3-19.8,17.7c-5.1,6.3-9.9,15-15.6,27.3l-0.3,0.9h-20.4l-28.2-15.6V478.8h31.2l16.8,27.9v0.3
					c4.2,19.5,8.4,34.5,12.3,43.8c1.2,3.3,3,6.9,5.1,11.1l0.3,0.3l0,0c10.8,13.5,24,24.9,39.3,34.2c16.2,9.9,33.6,17.4,51.6,21.9
					s37.2,6.9,56.7,6.9c27.3,0,50.7-5.1,68.7-15c18.6-10.2,25.2-17.1,25.2-26.7c0-22.2-32.7-34.2-63.3-43.5
					c-18.9-5.7-33.9-10.2-47.4-13.8c-41.4-11.4-67.2-20.4-78.9-24.6c-14.7-5.4-31.2-13.8-45.3-22.5c-14.7-9.3-50.4-33.6-60.6-54.3
					c-6.6-13.5-13.2-30-13.2-49.2c0-27,6.3-47.4,19.8-65.1c12.9-16.8,31.2-30,54.6-39c23.1-9,50.1-13.5,80.1-13.5
					c24.3,0,48.3,3.6,70.8,10.8c21,6.6,41.1,16.2,59.1,28.5c3.9-2.7,7.5-5.1,9.9-7.5c3.3-3,6.6-6.3,9.3-10.5c3-4.2,6-9.6,9.9-16.8
					l2.1-3.9h30.3l15.6,28.2V420h-20.1l-26.1-15.6l-1.5-4.5c-6.6-18.9-13.2-33.3-19.5-42.6c-6.3-9.6-20.4-24.6-30.6-31.5
					c-28.5-18.9-61.5-21.6-93-21.6c-15.9,0-31.8,2.1-47.1,6.3c-15,4.2-25.5,8.7-32.4,13.8c-8.4,6-13.2,11.4-13.5,20.4
					c7.5,5.1,18.3,10.2,31.8,15.6c17.7,6.9,42.9,15,75,24c35.7,10.2,66.9,20.4,92.4,30.6c25.2,10.2,48.6,25.2,69,44.7l2.1,1.8
					c15.3,14.4,43.8,41.4,43.8,98.4c0,21-6.9,40.2-20.7,57.6c-13.8,17.1-33,30.6-57,39.9C979.8,666.6,951.9,671.4,921,671.4z
					 M755.1,601.2c11.1,7.2,23.1,14.1,35.7,20.7c12.6,6.6,28.5,12.6,47.4,17.7c18.9,5.1,39.9,7.8,62.1,7.8
					c30.3,0,57.9-4.8,81.6-14.1c12.6-5.1,24-11.1,33.9-18.3c3.3-2.4,6.3-4.8,9.3-7.5c4.5-4.2,9-8.7,12.6-13.5
					c13.2-16.5,20.1-35.4,20.1-55.5c0-28.5-10.5-55.8-27.9-72.9c-17.1-16.8-36.9-30-59.4-39.9c-2.1-0.9-4.5-1.8-6.6-2.7
					c-25.5-10.2-56.1-20.4-91.5-30.3c-32.1-9-57.6-17.1-75.6-24.3c-11.7-4.5-21.6-9.3-29.1-13.8c-4.2-2.4-7.8-4.8-10.5-7.5
					c-8.4-7.2-12.9-15.3-12.9-23.4c0-10.5,5.7-16.5,14.7-23.1c7.5-5.4,18-9.9,33.6-14.1c15.6-4.2,31.5-6.6,47.7-6.6
					c48.3,0,89.4,13.8,122.4,40.8c9.3,7.8,17.1,15.3,23.4,22.8l0,0l0.3,0.3c2.1,2.7,4.2,5.4,5.7,7.8c6.6,9.9,13.2,24.6,20.1,43.5
					h15.6V267.3h-16.5c-3.9,6.9-7.2,12.6-10.2,16.8c-3.3,4.5-6.9,8.7-10.8,12c-3.9,3.3-9,7.2-15.3,10.8l-0.9,0.6l-0.9-0.6
					c-18.6-13.2-39-23.1-60.9-30c-21.6-6.9-44.7-10.2-68.1-10.2c-29.1,0-54.9,4.5-76.8,12.9c-21.9,8.7-39,20.7-50.7,36
					c-3.6,4.8-6.9,10.2-9.3,15.6c-2.1,4.5-3.6,9.3-5.1,14.1c-0.9,3.9-1.8,7.8-2.4,12c-0.3,1.5-0.3,2.7-0.6,4.2c-0.3,3.3-0.6,6-0.6,9
					v0.3c0,1.5,0,2.7,0,4.2c0,16.5,4.2,31.5,12,44.7c6,9.9,14.7,19.5,26.1,28.5c3.9,3,7.8,6,12.3,9c12,7.5,25.5,14.1,39.9,20.1
					c14.4,6,40.2,14.1,78.6,24.6c15,3.9,31.2,8.4,47.7,13.8c16.8,5.4,32.1,11.1,45.3,17.4c13.5,6.3,24.9,13.8,33.6,21.9
					c3.9,3.9,7.2,7.8,9.3,11.7c3,5.4,4.5,10.8,4.2,16.5c-0.6,15.3-11.7,24.6-29.7,34.5c-19.5,10.8-44.1,16.2-72.9,16.2
					c-20.1,0-39.9-2.4-58.8-7.2c-18.9-4.8-37.2-12.6-54.3-22.8c-6.6-4.2-13.2-8.7-18.9-13.5c-9.3-7.5-17.7-16.2-24.9-25.8
					c-9.3-12.9-15.9-24-19.8-33.9c-2.4-6-4.8-13.8-7.2-23.1c-1.5-6-3.3-12.6-4.8-19.8h-15.3v159.3h16.5l1.8-3.6
					c4.8-10.2,9.3-17.7,13.8-23.4s11.7-12.3,21.3-18.9l0.9-0.6L755.1,601.2z"/>
				<path class="st1" d="M843.6,259.5c24.3,0,48,3.6,70.5,10.8c21.3,6.6,41.4,16.2,59.7,28.8c4.5-3,8.1-5.7,11.1-8.1
					c3.3-3,6.6-6.6,9.3-10.8c3-4.2,6.3-9.9,10.2-16.8l1.8-3.3h28.5l15,27v131.4h-18l-25.2-15l-1.5-3.9
					c-6.6-18.9-13.2-33.3-19.5-42.9c-6.3-9.6-20.4-24.9-30.9-31.8c-27-18-58.2-21.9-93.6-21.9c-17.1,0-33,2.4-47.4,6.6
					c-12.6,3.6-24.6,8.1-33,14.1c-9,6.6-13.8,12.3-14.1,21.9v0.3c7.8,5.4,18.6,10.8,32.7,16.2c17.7,6.9,42.9,15,75,24
					c35.7,9.9,66.9,20.4,92.4,30.6c26.1,10.5,48.9,25.8,68.7,44.4c15,14.4,45.3,40.2,45.3,99.3c0,20.7-6.9,39.6-20.4,56.4
					c-13.5,17.1-32.4,30.3-56.4,39.6s-51.3,14.1-82.2,14.1c-22.5,0-43.5-2.7-62.7-7.8c-18.9-5.4-34.8-11.1-47.7-17.7
					c-12.6-6.6-24.6-13.5-35.7-20.7c-9.9,6.9-16.8,13.2-21,18.6c-4.8,6.3-9.6,14.4-15.6,27.6H720l-27-15V481.2h28.8l16.2,27
					c4.2,19.8,8.4,34.5,12.3,44.1c1.5,3.6,3.3,7.5,5.4,11.4l0,0c11.1,13.8,24.6,25.5,39.9,34.8c16.5,9.9,33.9,17.4,52.2,21.9
					s37.5,6.9,57,6.9c27.6,0,51-5.1,69.6-15.3c18.6-10.2,25.8-17.7,25.8-28.2c0-22.5-31.8-34.8-64.2-45
					c-16.8-5.1-32.7-9.9-47.7-13.8c-37.8-10.5-63.9-19.2-78.6-24.6c-16.5-6-33-14.7-45-22.5c-20.7-13.2-51-35.1-60-53.7
					c-7.2-15-13.2-30.6-13.2-48.6c0-26.4,6.3-46.8,19.5-64.2c12.6-16.5,30.9-29.4,54-38.7C786.9,264,813.6,259.5,843.6,259.5
					 M904.2,632.7c-20.1,0-39.6-2.4-58.5-7.2c-18.9-4.8-36.6-12.3-53.7-22.8c-6.6-4.2-12.9-8.4-18.9-13.5
					c-9.3-7.5-17.4-16.2-24.6-25.5c-9.3-12.6-15.9-23.7-19.5-33.6c-2.4-6-4.8-13.5-7.2-23.1c-1.8-6.3-3.3-13.2-5.1-21h-18v162.3
					h18.9c0.6-1.5,1.5-3,2.1-4.5c5.1-10.8,9.3-17.7,13.5-23.4c4.2-5.4,11.4-11.7,21-18.6c11.1,7.2,23.1,14.1,35.7,20.7
					c12.6,6.6,28.5,12.6,47.7,17.7c19.2,5.4,39.9,7.8,62.7,7.8c30.9,0,58.2-4.8,82.2-14.1c12.9-5.1,24.3-11.1,34.2-18.6
					c3.3-2.4,6.3-4.8,9.3-7.5c4.8-4.2,9-8.7,12.9-13.5c13.5-17.1,20.4-35.7,20.4-56.4c0-26.7-9.6-55.2-28.5-73.8
					c-17.4-16.8-37.2-30.3-60-40.2c-2.1-0.9-4.5-1.8-6.6-2.7c-25.5-10.2-56.1-20.4-91.8-30.3c-32.4-9-57.6-17.1-75.6-24.3
					c-11.7-4.5-21.3-9-28.8-13.5c-4.2-2.4-7.5-4.8-10.5-7.2c-8.1-6.9-12.3-14.4-12.3-22.2c0-9.6,4.8-15.3,14.1-21.9
					c8.4-6,20.4-10.5,33-14.1c14.4-3.9,30.3-6.6,47.4-6.6c48.3,0,88.8,13.5,121.5,40.5c9.6,7.8,17.4,15.6,23.4,23.1l0,0
					c2.1,2.7,4.2,5.1,5.7,7.8c6.6,9.9,13.5,24.9,20.1,44.4h18V265.8h-18.9c-3.9,7.2-7.2,12.9-10.5,17.4c-3,4.5-6.6,8.4-10.5,11.7
					c-3.9,3.3-9,6.9-15,10.8c-18.9-13.2-39.3-23.4-61.2-30.3c-22.2-6.9-45-10.5-68.7-10.5c-29.4,0-55.2,4.5-77.4,13.2
					s-39.3,21-51.6,36.6c-3.9,4.8-6.9,10.2-9.6,15.9c-2.1,4.5-3.9,9.3-5.1,14.4c-0.9,3.9-1.8,7.8-2.4,12c-0.3,1.5-0.3,2.7-0.6,4.2
					c-0.3,3-0.6,6-0.6,9c0,1.5,0,3,0,4.8c0,16.8,4.2,32.1,12.3,45.3c6.3,9.9,15,19.8,26.4,28.8c3.9,3,7.8,6,12.3,9
					c12.3,7.5,25.8,14.4,40.2,20.4c14.7,6,40.8,14.1,78.6,24.6c15,3.9,30.9,8.4,47.7,13.8c16.8,5.4,31.8,11.1,45.3,17.4
					c13.2,6.3,24.3,13.5,33,21.6c3.9,3.6,6.9,7.5,9,11.4c2.7,5.1,4.2,10.2,3.9,15.9c-0.6,13.5-9.6,22.5-29.1,33
					C957,627.3,933,632.7,904.2,632.7 M843.6,256.5c-30.3,0-57.6,4.5-80.7,13.8c-23.7,9.3-42.3,22.5-55.2,39.6
					c-13.8,17.7-20.1,38.7-20.1,66c0,19.5,6.9,36.3,13.5,49.8c10.5,21.3,46.2,45.6,61.2,54.9c14.1,9,30.9,17.1,45.6,22.8
					c11.7,4.2,37.5,13.2,78.9,24.6c13.5,3.6,28.8,7.8,47.4,13.8c32.4,9.9,62.1,21.9,62.1,42c0,9-6.3,15.6-24.3,25.5
					c-18,9.9-40.8,14.7-68.1,14.7c-19.2,0-38.1-2.4-56.1-6.9c-17.7-4.5-35.1-11.7-51.3-21.6c-14.7-9-27.6-20.1-38.4-33.3v-0.3
					l-0.6-0.6c-2.1-3.9-3.6-7.5-5.1-10.8c-3.6-9.3-7.8-24-12-43.5v-0.6l-0.3-0.3l-16.2-27l-0.9-1.5h-1.8h-28.8h-3v3v174.3v1.8
					l1.5,0.9l27,15l0.6,0.3h0.9h18.9h1.8l0.9-1.8c5.7-12.3,10.5-20.7,15.3-27c3.9-5.1,10.2-10.8,18.9-16.8
					c10.8,6.9,22.2,13.5,34.2,19.8c12.9,6.6,29.1,12.6,48.3,18s40.5,8.1,63.3,8.1c30.9,0,59.1-4.8,83.1-14.4
					c24.3-9.6,43.8-23.1,57.6-40.5c14.1-17.4,21-37.2,21-58.5c0-57.9-28.8-84.9-44.1-99.6l-2.1-1.8c-20.7-19.8-44.1-34.8-69.6-45
					s-56.7-20.7-92.7-30.6c-31.8-9-57-17.1-74.7-24c-12.9-5.1-23.4-10.2-30.9-15c0.3-6.9,3.6-11.7,12.6-18.3
					c6.9-5.1,17.1-9.3,32.1-13.5c15.3-4.2,30.6-6.3,46.5-6.3c31.2,0,63.9,2.7,92.1,21.3c9.9,6.6,24,21.6,30,31.2
					c6.3,9.3,12.6,23.4,19.2,42.3l1.5,3.9l0.3,0.9l0.9,0.6l25.2,15l0.6,0.3h0.9h18h3v-3V286.8v-0.9l-0.3-0.6l-15-27l-0.9-1.5h-1.8
					H1005h-1.8l-0.9,1.5l-1.8,3.3c-3.9,7.2-6.9,12.6-9.9,16.5c-2.7,3.9-5.7,7.2-9,10.2c-2.4,2.1-5.4,4.5-9,6.9
					c-18-12-37.8-21.3-58.8-27.9C892.2,260.1,868.2,256.5,843.6,256.5L843.6,256.5z M904.2,635.7c29.4,0,54-5.4,73.8-16.2
					c18.3-10.2,30-19.5,30.6-35.7c0.3-6-1.2-11.7-4.5-17.4c-2.1-4.2-5.4-8.1-9.6-12c-8.7-8.4-20.1-15.9-33.9-22.2
					c-13.5-6.3-28.8-12-45.6-17.4c-16.5-5.1-32.7-9.9-47.7-13.8c-37.8-10.2-63.9-18.6-78.3-24.3c-14.4-6-27.9-12.6-39.9-20.1
					c-4.2-2.7-8.1-5.7-12-8.7c-11.1-9-19.8-18.6-25.8-28.2c-7.8-12.9-11.7-27.6-11.7-43.8c0-1.5,0-3,0-4.8c0-2.7,0.3-5.7,0.6-8.7
					c0-1.5,0.3-2.7,0.6-4.2c0.6-4.2,1.2-8.1,2.4-11.7c1.2-4.8,3-9.6,5.1-14.1c2.4-5.4,5.7-10.5,9.3-15.3
					c11.7-15.3,28.5-27.3,50.1-35.7c21.6-8.4,47.4-12.9,76.5-12.9c23.4,0,46.2,3.6,67.8,10.2c21.6,6.9,42,16.8,60.6,29.7l1.5,1.2
					l1.8-0.9c6.3-3.9,11.7-7.8,15.6-11.1c3.9-3.6,7.5-7.5,10.8-12.3c3-4.2,6.3-9.6,9.9-16.2h14.1v125.4h-12.9
					c-6.6-18.6-13.2-33-19.8-42.9c-1.8-2.4-3.6-5.1-6-7.8l-0.3-0.6H987c-6.3-7.5-14.1-15.3-23.4-22.8c-33-27.3-74.4-41.4-123.3-41.4
					c-16.5,0-32.7,2.1-48.3,6.6c-15.6,4.5-26.4,9-33.9,14.4c-9.3,6.9-15.3,13.2-15.3,24.3c0,8.7,4.5,17.1,13.2,24.6
					c3,2.7,6.6,5.1,10.8,7.5c7.5,4.5,17.4,9.3,29.4,13.8c18,7.2,43.5,15.3,75.9,24.3c35.4,9.9,66,20.1,91.5,30.3
					c2.1,0.9,4.2,1.8,6.6,2.7c22.2,9.9,42,23.1,59.1,39.6c17.1,16.8,27.6,43.8,27.6,71.7c0,20.1-6.6,38.4-19.8,54.6
					c-3.9,4.8-8.1,9.3-12.6,13.2c-3,2.7-6,5.1-9,7.5c-9.6,6.9-21,13.2-33.6,18c-23.4,9.3-50.7,13.8-81,13.8
					c-22.2,0-42.9-2.7-61.8-7.8c-18.6-5.1-34.5-11.1-47.1-17.7s-24.3-13.5-35.4-20.7l-1.8-1.2l-1.8,1.2
					c-9.9,6.9-17.1,13.5-21.6,19.2c-4.5,6-9,13.5-14.1,23.7l-1.2,2.4l-0.3,0.3h-14.1V489h12.6c1.5,6.9,3,13.2,4.5,18.9
					c2.4,9.3,4.8,17.4,7.2,23.4c3.9,9.9,10.5,21.3,20.1,34.2c7.5,9.6,15.9,18.6,25.2,26.1c6,5.1,12.6,9.6,19.2,13.8
					c17.1,10.5,35.7,18.3,54.6,23.1C864,633.3,883.8,635.7,904.2,635.7L904.2,635.7z"/>
			</g>
		</g>
		<g>
			<g>
				<path class="st1" d="M1030.5,464.7c-17.4-16.8-37.2-30.3-60-40.2c-2.1-0.9-4.5-1.8-6.6-3c-25.5-10.2-56.1-20.4-91.8-30.3
					c-32.4-9-57.6-17.1-75.6-24.3c-11.7-4.5-21.3-9-28.8-13.5c-4.2-2.4-7.5-4.8-10.5-7.2c-8.1-6.9-12.3-14.4-12.3-22.2
					c0-9.6,4.8-15.3,14.1-21.9c8.4-6,20.4-10.5,33-14.1c14.4-3.9,30.3-6.6,47.4-6.6c48.3,0,88.8,13.5,121.5,40.5
					c9.6,7.8,17.4,15.6,23.4,23.1l0,0c2.1,2.7,4.2,5.1,5.7,7.8c6.6,9.9,13.5,24.9,20.1,44.4h18V265.8h-18.9
					c-3.9,7.2-7.2,12.9-10.5,17.4c-3,4.5-6.6,8.4-10.5,11.7c-3.9,3.3-9,6.9-15,10.8c-18.9-13.2-39.3-23.4-61.2-30.3
					c-22.2-6.9-45-10.5-68.7-10.5c-29.4,0-55.2,4.5-77.4,13.2s-39.3,21-51.6,36.6c-3.9,4.8-6.9,10.2-9.6,15.9
					c-2.1,4.5-3.9,9.3-5.1,14.4c-0.9,3.9-1.8,7.8-2.4,12c-0.3,1.5-0.3,3-0.6,4.2c-0.3,3-0.6,6-0.6,9c0,1.5,0,3,0,4.8
					c0,16.8,4.2,32.1,12.3,45.3c6.3,9.9,15,19.8,26.4,28.8c3.9,3,7.8,6,12.3,9c12.3,7.5,25.8,14.4,40.2,20.4
					c14.7,6,40.8,14.1,78.6,24.6c15,3.9,30.9,8.4,47.7,13.8c16.8,5.4,31.8,11.1,45.3,17.4c13.5,6.3,24.3,13.5,33,21.6
					c3.9,3.6,6.9,7.5,9,11.4c2.7,5.1,4.2,10.2,3.9,15.9c-0.6,13.5-9.6,22.5-29.1,33c-19.2,10.8-43.5,15.9-72.3,15.9
					c-20.1,0-39.6-2.4-58.5-7.2c-18.9-4.8-36.6-12.3-53.7-22.8c-6.6-4.2-12.9-8.4-18.9-13.5c-9.3-7.5-17.4-16.2-24.6-25.5
					c-9.3-12.6-15.9-23.7-19.5-33.6c-2.4-6-4.8-13.5-7.2-23.1c-1.8-6.3-3.3-13.2-5.1-21h-18v162.3h18.9c0.6-1.5,1.5-3,2.1-4.5
					c5.1-10.5,9.3-17.7,13.5-23.4c4.2-5.4,11.4-11.7,21-18.6c11.1,7.2,23.1,14.1,35.7,20.7c12.6,6.6,28.5,12.6,47.7,17.7
					c19.2,5.4,39.9,7.8,62.7,7.8c30.9,0,58.2-4.8,82.2-14.1c12.9-5.1,24.3-11.1,34.2-18.6c3.3-2.4,6.3-4.8,9.3-7.5
					c4.8-4.2,9-8.7,12.9-13.5c13.5-17.1,20.4-35.7,20.4-56.7C1059,511.8,1049.7,483.3,1030.5,464.7z"/>
				<path class="st0" d="M696.6,370.8c0-3,0.3-6,0.6-9C696.9,364.8,696.6,367.8,696.6,370.8z"/>
			</g>
		</g>
	</g>
	<g>
		<g>
			<g>
				<path class="st0" d="M673.2,2706.9l-28.2-15.6V2661h43.5c21.6,0,28.2-3.9,30-5.7c2.1-2.1,6-8.1,6-25.8v-253.8
					c0-6-0.6-11.1-1.8-15.3c-5.4-0.9-12-1.2-19.8-1.2h-28.5l-27.9-15.6l-0.3-6.6l-0.9-24h429l15.6,28.2v135.9h-21l-26.4-15.6
					l-1.5-5.1c-9.6-34.5-26.4-61.5-49.8-80.4c-7.2-3.6-14.7-6.9-22.2-9.3c-15.9-5.1-35.4-7.5-57.9-7.5c-18.9,0-31.2,1.8-37.2,5.7
					c-5.7,3.6-8.4,10.8-8.4,21.6v96.6c3.3-0.6,6.9-1.5,10.8-2.7c8.7-2.4,16.2-5.4,22.8-9c14.1-7.5,23.1-16.2,27.3-25.8
					c4.5-10.2,7.8-22.8,9.6-37.2l0.9-6.6h31.8l15.6,28.2v186.9H963l-28.2-15.6v-6.9c0-20.1-7.2-38.4-21.9-54.9
					c-0.3-0.3-0.9-0.9-1.2-1.2c-12.9-5.1-28.5-7.8-46.8-7.8v129.3c3,0.6,6.3,0.9,9.9,0.9h38.4c13.5,0,29.7-3.9,48.3-11.4
					s36.3-19.8,52.5-36.9c16.2-16.8,28.2-39,36-66l1.5-5.4h31.5l15.6,28.2v137.4H673.2V2706.9z M1075.2,2682.9v-132.6H1059
					c-8.1,27.9-20.7,51-37.8,68.7c-17.1,17.7-36,30.9-55.8,38.7c-19.8,8.1-37.2,12-51.6,12h-38.4c-4.2,0-8.1-0.3-11.7-0.9
					c-15-2.7-22.5-11.7-22.5-26.1v-135.9h1.5c7.8,0,14.7,0.3,21.3,1.2c5.7,0.6,11.1,1.8,16.2,3c16.8,4.2,30.3,12,39.9,23.1
					c2.7,3.3,5.4,6.3,7.5,9.3c10.8,15,16.2,31.8,16.5,49.8H960v-182.1h-15.3c-1.8,14.7-5.4,27.6-10.2,38.4
					c-5.1,11.4-15.6,21.3-31.2,30c-7.2,3.6-15.3,6.9-24.6,9.6c-5.4,1.5-10.2,2.7-14.4,3.3c-3.3,0.6-6.3,0.9-9.3,0.9h-13.5v-127.8
					c0-12,3.3-20.1,9.9-24.3c0.6-0.3,1.2-0.6,1.8-0.9c6.9-3.3,18.9-5.1,36.9-5.1c18.3,0,34.8,1.8,48.9,5.1c3.6,0.9,6.9,1.8,10.2,2.7
					c16.2,5.1,32.1,13.8,47.1,25.5c8.1,6.6,15.6,13.8,22.2,22.2c13.8,17.1,24.3,38.1,31.2,62.4h16.2V2322h-411l0.6,13.2h26.7
					c12.6,0,22.8,1.2,30.3,3.6c1.2,0.3,2.4,0.9,3.6,1.5c5.7,2.4,9.9,6.3,12.9,11.4c1.5,2.4,2.4,5.4,3.3,8.7
					c1.2,4.5,1.5,9.6,1.5,15.6v253.8c0,16.5-3,27-9,32.4c-6,5.4-17.7,8.1-36,8.1H654v13.2h421.2V2682.9z"/>
				<path class="st1" d="M1073.4,2314.5l15,27v134.1h-18.9l-25.5-15l-1.2-4.5c-9.6-34.8-26.4-62.1-50.4-81.3
					c-7.5-3.9-15-7.2-22.8-9.6c-16.2-5.1-35.7-7.8-58.5-7.8c-19.2,0-31.8,2.1-38.1,5.7c-6.3,3.9-9.3,11.4-9.3,22.8v98.4
					c3.9-0.6,8.1-1.5,12.6-3c8.7-2.4,16.5-5.4,23.1-9c14.4-7.8,23.7-16.5,28.2-26.4c4.8-10.5,7.8-23.1,9.6-37.5l0.6-5.4h29.7l15,27
					v186h-18.9l-27-15v-6c0-20.4-7.5-39-22.2-55.8c-0.6-0.6-0.9-0.9-1.5-1.5c-13.5-5.4-29.7-8.1-49.2-8.1v132
					c3.3,0.6,6.9,1.2,11.7,1.2h38.4c13.5,0,30-3.9,48.9-11.4s36.6-20.1,53.1-37.2c16.2-17.1,28.5-39.3,36.3-66.6l1.2-4.5h29.4l15,27
					v135.6H673.5l-27-15v-28.2h42c21.3,0,28.5-3.9,31.2-6c3-2.7,6.3-9.6,6.3-27V2376c0-6.6-0.6-12.3-2.1-16.5
					c-6-0.9-12.9-1.5-20.7-1.5H675l-26.7-15l-0.3-5.7l-0.6-16.2l-0.3-6.3h426.3 M653.7,2336.7h28.2c12.6,0,22.5,1.2,29.7,3.6
					c1.2,0.3,2.4,0.9,3.6,1.5c5.4,2.4,9.6,6,12,10.8c1.2,2.4,2.4,5.1,3,8.1c1.2,4.5,1.5,9.3,1.5,15.3v253.5
					c0,15.9-2.7,26.4-8.4,31.5c-5.7,5.1-17.4,7.5-35.1,7.5h-36v16.2h424.2v-135.6h-18.9c-8.1,28.2-20.7,51.3-37.8,69
					c-17.1,17.7-35.4,30.6-55.2,38.4s-36.6,12-51,12h-38.4c-4.2,0-8.1-0.3-11.4-0.9c-14.1-2.7-21.3-10.8-21.3-24.6v-134.4
					c7.5,0,14.4,0.3,21,1.2c5.7,0.6,11.1,1.5,15.9,3c16.5,4.2,29.7,11.7,39,22.5c2.7,3,5.1,6,7.2,9.3c10.8,15.3,16.2,32.1,16.2,50.4
					h18.9v-185.1h-18.3c-1.8,15-5.1,28.2-10.2,39.3c-4.8,11.1-15,21-30.6,29.4c-7.2,3.6-15.3,6.9-24.3,9.6
					c-5.1,1.5-9.9,2.7-14.4,3.3c-3.3,0.6-6.3,0.6-9,0.6h-12v-126.3c0-11.4,3-18.9,9.3-22.8c0.6-0.3,1.2-0.6,1.8-0.9
					c6.6-3.3,18.9-4.8,36.3-4.8c18.3,0,34.5,1.8,48.6,4.8c3.3,0.9,6.9,1.8,9.9,2.7c16.2,5.1,31.8,13.5,46.8,25.2
					c8.1,6.6,15.6,13.8,21.9,21.9c13.8,17.1,24.3,38.1,31.2,63h18.9v-134.1H653.1L653.7,2336.7 M1075.2,2311.5h-1.8H646.8h-3v3
					l0.3,6.3l0.6,16.2l0.3,5.7v1.8l1.5,0.9l26.7,15l0.6,0.3h0.9h28.2c6.9,0,13.2,0.3,18.6,1.2c0.9,3.9,1.5,8.4,1.5,13.8v253.5
					c0,18-3.9,23.1-5.4,24.6c-1.8,1.5-8.1,5.4-29.1,5.4h-42h-3v3v28.2v1.8l1.5,0.9l27,15l0.6,0.3h0.9h424.2h3v-3v-135.6v-0.9
					l-0.3-0.6l-15-27l-0.9-1.5h-1.8H1053h-2.4l-0.6,2.1l-1.2,4.5c-7.5,26.7-19.5,48.6-35.4,65.4c-16.2,16.8-33.6,29.1-52.2,36.3
					c-18.6,7.5-34.5,11.1-47.7,11.1h-38.4c-3.3,0-6-0.3-8.7-0.6v-126.3c17.1,0.3,32.1,2.7,44.4,7.8c0.3,0.3,0.6,0.6,0.9,0.9
					c14.1,16.2,21.3,34.2,21.3,53.7v6v1.8l1.5,0.9l27,15l0.6,0.3h0.9h18.9h3v-3v-185.1v-0.6l-0.3-0.6l-15-27l-0.9-1.5h-1.8h-29.7
					h-2.7l-0.3,2.7l-0.6,5.4c-1.8,14.1-4.8,26.4-9.3,36.6c-4.2,9.3-13.2,17.7-26.7,24.9c-6.3,3.3-14.1,6.3-22.5,8.7
					c-3,0.9-6,1.5-8.7,2.1v-94.8c0-10.2,2.7-17.1,7.8-20.4c3.9-2.4,13.5-5.4,36.6-5.4c22.5,0,41.7,2.4,57.6,7.5
					c7.2,2.4,14.7,5.4,21.9,9.3c23.4,18.6,39.9,45.3,49.2,79.5l1.2,4.5l0.3,1.2l0.9,0.6l25.5,15l0.6,0.3h0.9h18.9h3v-3v-134.1v-0.9
					l-0.3-0.6l-15-27L1075.2,2311.5L1075.2,2311.5z M656.4,2323.5h408v128.1h-13.8c-6.9-24.3-17.4-45-30.9-61.8
					c-6.6-8.4-14.1-15.9-22.5-22.2c-15.3-12-31.2-20.7-47.7-25.8c-3-0.9-6.6-1.8-10.2-2.7c-14.1-3.3-30.9-5.1-49.2-5.1
					c-18.3,0-30.6,1.8-37.8,5.1c-0.6,0.3-1.5,0.6-2.1,1.2c-6.9,4.5-10.5,12.9-10.5,25.5v126.3v3h3h12c3,0,6.3-0.3,9.6-0.9
					c4.2-0.6,9.3-1.8,14.7-3.3c9.3-2.7,17.7-6,24.9-9.6c16.2-8.7,27-19.2,32.1-30.6c4.8-10.8,8.1-23.4,9.9-37.5h12.6V2592h-12.9
					c-0.6-17.7-6.3-34.2-16.8-49.2c-2.1-3-4.8-6.3-7.5-9.6c-9.9-11.1-23.4-19.2-40.5-23.4c-5.1-1.2-10.5-2.4-16.5-3
					c-6.6-0.9-13.5-1.2-21.3-1.2h-3v3V2643c0,15,8.1,24.6,23.7,27.6c3.6,0.6,7.5,0.9,12,0.9h38.4c14.7,0,32.4-4.2,52.2-12
					c20.1-8.1,39-21.3,56.1-39.3c17.1-17.7,29.7-40.5,37.8-68.1h13.8v129.6H655.5v-10.2h33c18.9,0,30.9-2.7,37.2-8.4
					c6.3-5.7,9.3-16.8,9.3-33.6V2376c0-6-0.6-11.4-1.8-15.9c-0.9-3.3-1.8-6.3-3.3-9c-3-5.4-7.5-9.3-13.5-12
					c-1.2-0.6-2.4-0.9-3.9-1.5c-7.5-2.4-18-3.6-30.6-3.6h-25.2L656.4,2323.5L656.4,2323.5z"/>
			</g>
		</g>
		<g>
			<g>
				<path class="st1" d="M1057.5,2548.8c-8.1,28.2-20.7,51.3-37.8,69c-17.1,17.7-35.4,30.6-55.2,38.4c-19.8,7.8-36.6,12-51,12h-38.4
					c-4.2,0-8.1-0.3-11.4-0.9c-14.1-2.7-21.3-10.8-21.3-24.6v-134.4c7.5,0,14.4,0.3,21,1.2c5.7,0.6,11.1,1.5,15.9,3
					c16.5,4.2,29.7,11.7,39,22.5c2.7,3,5.1,6,7.2,9.3c10.8,15.3,16.2,32.1,16.2,50.4h18.9v-185.1h-18.3c-1.8,15-5.1,28.2-10.2,39.3
					c-4.8,11.1-15,21-30.6,29.4c-7.2,3.6-15.3,6.9-24.3,9.6c-5.1,1.5-9.9,2.7-14.4,3.3c-3.3,0.6-6.3,0.6-9,0.6h-12v-126.3
					c0-11.4,3-18.9,9.3-22.8c0.6-0.3,1.2-0.6,1.8-0.9c6.6-3.3,18.9-4.8,36.3-4.8c18.3,0,34.5,1.8,48.6,4.8c3.3,0.9,6.9,1.8,9.9,2.7
					c16.2,5.1,31.8,13.5,46.8,25.2c8.1,6.3,15.6,13.8,21.9,21.9c13.8,17.1,24.3,38.1,31.2,63h18.9v-134.1H653.1l0.6,16.2h28.2
					c12.6,0,22.5,1.2,29.7,3.6c1.2,0.3,2.4,0.9,3.6,1.5c5.4,2.4,9.6,6,12,10.8c1.2,2.4,2.4,5.1,3,8.1c1.2,4.5,1.5,9.3,1.5,15v253.5
					c0,15.9-2.7,26.4-8.4,31.5c-5.7,5.1-17.4,7.5-35.1,7.5h-36v16.2h424.2v-135.6L1057.5,2548.8L1057.5,2548.8z"/>
				<path class="st0" d="M652.5,2668.5v16.2l0,0V2668.5L652.5,2668.5z"/>
			</g>
		</g>
	</g>
	<g>
		<g>
			<g>
				<path class="st0" d="M2460.9,1707l-28.2-15.6v-30.6h43.5c21.6,0,28.2-3.9,30-5.7c2.1-2.1,6-8.1,6-25.8v-253.5
					c0-6-0.6-11.1-1.8-15.3c-5.4-0.9-12-1.2-19.8-1.2h-28.5l-27.9-15.6l-0.3-6.6l-0.9-24h429l15.6,28.2v135.9h-21l-26.4-15.6
					l-1.5-5.1c-9.6-34.5-26.4-61.5-49.8-80.4c-7.2-3.6-14.7-6.9-22.2-9.3c-15.9-5.1-35.4-7.5-57.9-7.5c-18.9,0-31.5,1.8-37.2,5.7
					c-5.7,3.6-8.4,10.8-8.4,21.6v96.6c3.3-0.6,6.9-1.5,10.8-2.7c8.7-2.4,16.5-5.4,22.8-9c14.1-7.5,23.1-16.2,27.3-25.8
					c4.5-10.2,7.8-22.8,9.6-37.2l0.9-6.6h31.8l15.6,28.2V1617h-20.7l-28.2-15.6v-6.9c0-20.1-7.2-38.4-21.9-54.9
					c-0.3-0.3-0.9-0.9-1.2-1.2c-12.9-5.1-28.5-7.8-46.8-7.8v129.3c3,0.6,6.3,0.9,10.2,0.9h38.4c13.5,0,29.7-3.9,48.3-11.4
					c18.6-7.5,36.3-19.8,52.5-36.9c16.2-16.8,28.2-39,36-66l1.5-5.4h31.5l15.6,28.2V1707H2460.9z M2862.9,1683v-132.6h-16.2
					c-8.1,27.9-20.7,51-37.8,68.7c-17.1,17.7-36,30.9-55.8,38.7c-19.8,8.1-37.2,12-51.6,12h-38.4c-4.2,0-8.1-0.3-11.7-0.9
					c-15-2.7-22.5-11.7-22.5-26.1v-135.9h1.5c7.8,0,14.7,0.3,21.3,1.2c5.7,0.6,11.1,1.8,16.2,3c16.8,4.2,30.3,12,39.9,23.1
					c2.7,3.3,5.4,6.3,7.5,9.3c10.8,15,16.2,31.8,16.5,49.8h15.9v-182.1h-15.3c-1.8,14.7-5.4,27.6-10.2,38.4
					c-5.1,11.4-15.6,21.3-31.2,30c-7.2,3.6-15.3,6.9-24.6,9.6c-5.4,1.5-10.2,2.7-14.4,3.3c-3.3,0.6-6.3,0.9-9.3,0.9h-13.5v-127.8
					c0-12,3.3-20.1,9.9-24.3c0.6-0.3,1.2-0.6,1.8-0.9c6.9-3.3,18.9-5.1,36.9-5.1c18.3,0,34.8,1.8,48.9,5.1c3.6,0.9,6.9,1.8,10.2,2.7
					c16.2,5.1,32.1,13.8,47.1,25.5c8.1,6.6,15.6,13.8,22.2,22.2c13.8,17.1,24.3,38.1,31.2,62.4h16.2v-131.1h-411l0.6,13.2h26.7
					c12.6,0,22.8,1.2,30.3,3.6c1.2,0.3,2.4,0.9,3.6,1.5c5.7,2.4,9.9,6.3,12.9,11.4c1.5,2.4,2.4,5.4,3.3,8.7
					c1.2,4.5,1.5,9.6,1.5,15.6v253.5c0,16.5-3,27-9,32.4c-6,5.4-17.7,8.1-36,8.1H2442v13.2h420.9V1683z"/>
				<path class="st1" d="M2861.1,1314.6l15,27v134.1h-18.9l-25.5-15l-1.2-4.5c-9.6-34.8-26.4-62.1-50.4-81.3
					c-7.5-3.9-15-7.2-22.8-9.6c-16.2-5.1-35.7-7.8-58.5-7.8c-19.2,0-31.8,2.1-38.1,5.7c-6.3,3.9-9.3,11.4-9.3,22.8v99
					c3.9-0.6,8.1-1.5,12.6-3c8.7-2.4,16.5-5.4,23.1-9c14.4-7.8,23.7-16.5,28.2-26.4c4.8-10.5,7.8-23.1,9.6-37.5l0.6-5.4h29.7l15,27
					v185.1h-18.9l-27-15v-6c0-20.4-7.5-39-22.2-55.8c-0.6-0.6-0.9-0.9-1.5-1.5c-13.5-5.4-29.7-8.1-49.2-8.1v132
					c3.3,0.6,6.9,1.2,11.7,1.2h38.4c13.5,0,30-3.9,48.9-11.4s36.6-20.1,53.1-37.2c16.2-17.1,28.5-39.3,36.3-66.6l1.2-4.5h29.4l15,27
					v135.6h-424.2l-27-15v-28.2h42c21.3,0,28.5-3.9,31.2-6c3-2.7,6.3-9.6,6.3-27v-253.5c0-6.6-0.6-12.3-2.1-16.5
					c-6-0.9-12.9-1.5-20.7-1.5h-28.2l-26.7-15l-0.3-5.7l-0.6-16.2l-0.3-6.3H2861.1 M2441.7,1336.8h28.2c12.6,0,22.5,1.2,29.7,3.6
					c1.2,0.3,2.4,0.9,3.6,1.5c5.4,2.4,9.6,6,12,10.8c1.2,2.4,2.4,5.1,3,8.1c1.2,4.5,1.5,9.3,1.5,15.3v253.5
					c0,15.9-2.7,26.4-8.4,31.5c-5.7,5.1-17.4,7.5-35.1,7.5h-36v16.2h424.2v-135.6h-18.9c-8.1,28.2-20.7,51.3-37.8,69
					c-17.1,17.7-35.4,30.6-55.2,38.4s-36.6,12-51,12h-38.4c-4.2,0-8.1-0.3-11.4-0.9c-14.1-2.7-21.3-10.8-21.3-24.6v-134.4
					c7.5,0,14.4,0.3,21,1.2c5.7,0.6,11.1,1.5,15.9,3c16.5,4.2,29.7,11.7,39,22.5c2.7,3,5.1,6,7.2,9.3c10.8,15.3,16.2,32.1,16.2,50.4
					h18.9V1410h-18.3c-1.8,15-5.1,28.2-10.2,39.3c-4.8,11.1-15,21-30.6,29.4c-7.2,3.6-15.3,6.9-24.3,9.6c-5.1,1.5-9.9,2.7-14.4,3.3
					c-3.3,0.6-6.3,0.6-9,0.6h-12v-126.3c0-11.4,3-18.9,9.3-22.8c0.6-0.3,1.2-0.6,1.8-0.9c6.6-3.3,18.9-4.8,36.3-4.8
					c18.3,0,34.5,1.8,48.6,4.8c3.3,0.9,6.9,1.8,9.9,2.7c16.2,5.1,31.8,13.5,46.8,25.2c8.1,6.6,15.6,13.8,21.9,21.9
					c13.8,17.1,24.3,38.1,31.2,63h18.9v-134.1h-413.7L2441.7,1336.8 M2862.9,1311.6h-1.8h-426.6h-3v3l0.3,6.3l0.6,16.2l0.3,5.7v1.8
					l1.5,0.9l26.7,15l0.6,0.3h0.9h28.2c6.9,0,13.2,0.3,18.6,1.2c0.9,3.9,1.5,8.4,1.5,13.8v253.5c0,18-3.9,23.1-5.4,24.6
					c-1.8,1.5-8.1,5.4-29.1,5.4h-42h-3v3v28.2v1.8l1.5,0.9l27,15l0.6,0.3h0.9h424.2h3v-3v-135.6v-0.9l-0.3-0.6l-15-27l-0.9-1.5h-1.8
					H2841h-2.4l-0.6,2.1l-1.2,4.5c-7.5,26.7-19.5,48.6-35.4,65.4c-16.2,16.8-33.6,29.1-52.2,36.3c-18.6,7.5-34.5,11.1-47.7,11.1
					h-38.4c-3.3,0-6-0.3-8.7-0.6v-126.3c17.1,0.3,32.1,2.7,44.4,7.8c0.3,0.3,0.6,0.6,0.9,0.9c14.1,16.2,21.3,34.2,21.3,53.7v6v1.8
					l1.5,0.9l27,15l0.6,0.3h0.9h18.9h3v-3v-185.1v-0.9l-0.3-0.6l-15-27l-0.9-1.5h-1.8h-29.7h-2.7l-0.3,2.7l-0.6,5.4
					c-1.8,14.1-4.8,26.4-9.3,36.6c-4.2,9.3-13.2,17.7-26.7,24.9c-6.3,3.3-14.1,6.3-22.5,8.7c-3,0.9-6,1.5-8.7,2.1v-94.8
					c0-10.2,2.7-17.1,7.8-20.4c3.9-2.4,13.5-5.4,36.6-5.4c22.5,0,41.7,2.4,57.6,7.5c7.2,2.4,14.7,5.4,21.9,9.3
					c23.4,18.6,39.9,45.3,49.2,79.5l1.2,4.5l0.3,1.2l0.9,0.6l25.5,15l0.6,0.3h0.9h18.9h3v-3v-134.1v-0.9l-0.3-0.6l-15-27
					L2862.9,1311.6L2862.9,1311.6z M2444.1,1323.6h408v128.1h-13.8c-6.9-24.3-17.4-45-30.9-61.8c-6.6-8.4-14.1-15.9-22.5-22.2
					c-15.3-12-31.2-20.7-47.7-25.8c-3-0.9-6.6-1.8-10.2-2.7c-14.1-3.3-30.9-5.1-49.2-5.1c-18.3,0-30.6,1.8-37.8,5.1
					c-0.6,0.3-1.5,0.6-2.1,1.2c-6.9,4.5-10.5,12.9-10.5,25.5v126.3v3h3h12c3,0,6.3-0.3,9.6-0.9c4.2-0.6,9.3-1.8,14.7-3.3
					c9.3-2.7,17.7-6,24.9-9.6c16.2-8.7,27-19.2,32.1-30.6c4.8-10.8,8.1-23.4,9.9-37.5h12.6v179.1H2733c-0.6-17.7-6.3-34.2-16.8-49.2
					c-2.1-3-4.8-6.3-7.5-9.6c-9.9-11.1-23.4-19.2-40.5-23.4c-5.1-1.2-10.5-2.4-16.5-3c-6.6-0.9-13.5-1.2-21.3-1.2h-3v3v134.4
					c0,15,8.1,24.6,23.7,27.6c3.6,0.6,7.5,0.9,12,0.9h38.4c14.7,0,32.4-4.2,52.2-12c20.1-8.1,39-21.3,56.1-39.3
					c17.1-17.7,29.7-40.5,37.8-68.1h13.8v129.6h-418.2v-10.2h33c18.9,0,30.9-2.7,37.2-8.4c6.3-5.7,9.3-16.8,9.3-33.6v-253.5
					c0-6-0.6-11.4-1.8-15.9c-0.9-3.3-1.8-6.3-3.3-9c-3-5.4-7.5-9.3-13.5-12c-1.2-0.6-2.4-0.9-3.9-1.5c-7.5-2.4-18-3.6-30.6-3.6
					h-25.2L2444.1,1323.6L2444.1,1323.6z"/>
			</g>
		</g>
		<g>
			<g>
				<path class="st1" d="M2845.5,1548.9c-8.1,28.2-20.7,51.3-37.8,69c-17.1,17.7-35.4,30.6-55.2,38.4c-19.8,7.8-36.6,12-51,12h-38.4
					c-4.2,0-8.1-0.3-11.4-0.9c-14.1-2.7-21.3-10.8-21.3-24.6v-134.4c7.5,0,14.4,0.3,21,1.2c5.7,0.6,11.1,1.5,15.9,3
					c16.5,4.2,29.7,11.7,39,22.5c2.7,3,5.1,6,7.2,9.3c10.8,15.3,16.2,32.1,16.2,50.4h18.9v-185.1h-18.3c-1.8,15-5.1,28.2-10.2,39.3
					c-4.8,11.1-15,21-30.6,29.4c-7.2,3.6-15.3,6.9-24.3,9.6c-5.1,1.5-9.9,2.7-14.4,3.3c-3.3,0.6-6.3,0.6-9,0.6h-12v-126.3
					c0-11.4,3-18.9,9.3-22.8c0.6-0.3,1.2-0.6,1.8-0.9c6.6-3.3,18.9-4.8,36.3-4.8c18.3,0,34.5,1.8,48.6,4.8c3.3,0.9,6.9,1.8,9.9,2.7
					c16.2,5.1,31.8,13.5,46.8,25.2c8.1,6.3,15.6,13.8,21.9,21.9c13.8,17.1,24.3,38.1,31.2,63h18.9v-134.1h-413.7l0.6,16.2h28.2
					c12.6,0,22.5,1.2,29.7,3.6c1.2,0.3,2.4,0.9,3.6,1.5c5.4,2.4,9.6,6,12,10.8c1.2,2.4,2.4,5.1,3,8.1c1.2,4.5,1.5,9.3,1.5,15v253.5
					c0,15.9-2.7,26.4-8.4,31.5c-5.7,5.1-17.4,7.5-35.1,7.5h-36v16.2h424.2v-135.6H2845.5z"/>
				<path class="st0" d="M2440.2,1668.3v16.2l0,0V1668.3L2440.2,1668.3z"/>
			</g>
		</g>
	</g>
	<g>
		<g>
			<g>
				<path class="st1" d="M1707.6,2523.9c2.7-5.1,6.9-9,12.6-11.4c0.6-0.3,1.2-0.6,2.1-0.9c6.9-2.4,16.2-3.6,28.8-3.6h18v-16.2
					h-192.3l-73.8,209.1l-4.2,11.7l-69.6-199.8l-7.2-21h-189.9v16.2h16.8c12,0,21.6,1.2,28.8,3.6c1.2,0.3,2.4,0.9,3.3,1.5
					c5.4,2.4,9,6,11.7,10.8c1.2,2.4,2.1,5.1,2.7,7.8c1.2,4.5,1.5,9.6,1.5,15.3v216c0,18.9-4.5,36.3-13.2,51.6
					c-8.7,15.6-26.4,23.7-53.1,25.2v16.2h156.6v-16.2h-6.6c-12,0-22.5-2.7-31.8-7.8c-0.6-0.3-1.2-0.9-2.1-1.2
					c-9.6-6-17.1-14.7-22.2-26.1c-3.3-7.5-5.7-15.9-6.9-24.9c-0.6-4.5-0.9-9.6-0.9-14.4V2520c0-2.7,0.3-5.1,0.9-6.9
					c0.9-3,2.7-4.5,5.4-4.5c2.1,0,3.9,1.5,5.7,4.5c0.9,1.5,1.5,3.3,2.4,5.4l6.9,19.8l0,0l111.3,317.7h21.3l42.9-122.1l0.9-3
					l74.4-212.4c0.9-3,2.1-5.4,3.3-6.9c1.5-2.1,3.3-3.3,5.4-3.3c2.1,0,3.3,1.2,4.2,3.3c0.6,1.5,0.6,3.3,0.6,5.7v283.5
					c0,16.2-2.4,27-7.2,31.8c-4.8,4.8-15.6,7.2-32.1,7.2h-27.6v16.2h233.4v-16.2h-24.6c-7.5,0-14.1-0.6-19.2-1.5
					c-2.7-0.6-4.8-0.9-6.9-1.8c-5.7-2.1-9.9-5.7-12-11.1c-2.1-5.4-3.3-13.5-3.3-24.9v-253.8
					C1703.1,2537.4,1704.6,2529.6,1707.6,2523.9z"/>
			</g>
		</g>
		<g>
			<path class="st0" d="M1556.4,2878.5l-28.2-15.6v-30.6h35.1c19.5,0,25.2-3.6,26.7-5.1s5.1-7.2,5.1-26.4v-214.2l-102.3,291.9H1470
				l-26.1-15.6l-1.5-4.5L1340.1,2565v221.1c0,12.6,1.8,24,5.4,33.6c1.8,1.5,3.9,3,6,4.5c8.4,5.4,18.3,7.8,29.7,7.8h13.5l15.6,28.2
				v18h-158.4l-28.2-15.6v-30l7.2-0.3c23.7-1.2,39.6-8.4,46.8-21.3c8.1-14.4,12.3-30.3,12.3-48v-216c0-6-0.6-11.4-1.8-15.3
				c-5.1-0.6-11.1-1.2-17.7-1.2h-17.1l-28.2-15.6v-30.6h202.5l17.4,27.9l55.5,174.6l71.4-202.2h204l15.6,28.2v18h-19.5
				c-12,0-21.6,1.2-28.2,3.6c-6.3,2.1-11.1,6-13.8,11.4c-2.7,5.4-4.2,13.2-4.2,22.5v253.8c0,3.3,0,6.3,0.3,9.3
				c4.8,0.9,11.1,1.2,18.3,1.2h31.5l15.6,28.2v18h-235.2V2878.5z M1767.6,2854.5v-13.2h-23.1c-7.8,0-14.1-0.6-19.5-1.5
				c-2.7-0.6-5.1-1.2-6.9-1.8c-6.3-2.1-10.5-6-12.9-11.7c-2.4-5.4-3.3-13.8-3.3-25.5V2547c0-10.2,1.5-18,4.5-24
				c2.7-5.4,7.2-9.6,13.2-12c0.6-0.3,1.5-0.6,2.1-0.9c6.9-2.4,16.5-3.6,29.1-3.6h16.5v-13.2H1578l-78.9,223.8l-78-223.8h-187.2v13.2
				h15.3c12.3,0,21.9,1.2,29.1,3.6c1.2,0.3,2.4,0.9,3.6,1.5c5.4,2.4,9.6,6.3,12.3,11.4c1.2,2.4,2.4,5.1,3,8.4
				c1.2,4.5,1.5,9.6,1.5,15.6v216c0,19.2-4.5,36.9-13.5,52.5s-26.7,24.3-52.8,25.8v13.2H1386v-13.2h-5.1c-12,0-23.1-2.7-32.4-8.1
				c-0.6-0.3-1.5-0.9-2.1-1.2c-9.9-6.3-17.4-15-22.8-26.7c-3.6-7.5-6-16.2-6.9-25.5c-0.6-4.8-0.9-9.6-0.9-14.7V2520
				c0-3,0.3-5.4,0.9-7.5c1.5-4.5,4.5-5.4,6.9-5.4c2.7,0,5.1,1.8,6.9,5.1c0.9,1.5,1.8,3.3,2.4,5.7l6.9,20.1l0,0l110.4,316.2h19.2
				l117.9-336.6c0.9-3,2.1-5.4,3.3-7.2c1.8-2.7,4.2-3.9,6.6-3.9c1.8,0,4.2,0.9,5.7,4.5c0.6,1.8,0.9,3.9,0.9,6.3v283.5
				c0,16.8-2.4,27.6-7.8,32.7c-5.1,5.1-15.9,7.8-33,7.8h-26.1v13.2L1767.6,2854.5L1767.6,2854.5z"/>
			<path class="st1" d="M1775.1,2486.1l15,27v16.2h-18c-12.3,0-21.9,1.2-28.8,3.6c-6.9,2.4-11.7,6.3-14.7,12.3
				c-3,5.7-4.5,13.5-4.5,23.4v253.5c0,3.9,0,7.2,0.3,10.5c5.1,1.2,11.7,1.5,19.8,1.5h30.6l15,27v16.2h-233.4l-27-15v-28.2h33.6
				c19.2,0,25.8-3.3,27.6-5.4c2.1-2.1,5.4-8.4,5.4-27.6v-222.9L1491.9,2877h-21.3l-25.2-15l-1.5-3.9l-105.3-301.8v230.1
				c0,12.9,1.8,24.6,5.7,34.5c2.1,1.8,4.2,3.3,6.6,4.8c8.7,5.4,18.9,8.1,30.3,8.1h12.6l15,27v16.2h-156.6l-27-15v-27.9l5.7-0.3
				c24.3-1.2,40.5-8.4,48-21.9c8.1-14.4,12.3-30.9,12.3-48.6v-216c0-6.6-0.6-12.3-2.1-16.8c-5.4-0.9-11.7-1.2-18.9-1.2h-16.8l-27-15
				v-28.2h200.1l16.8,27l57,178.5l71.1-201.6l1.5-3.9H1775.1 M1499.1,2712.9l-69.6-199.8l-7.2-21h-189.9v16.2h16.8
				c12,0,21.6,1.2,28.8,3.6c1.2,0.3,2.4,0.9,3.3,1.5c5.4,2.4,9,6,11.7,10.8c1.2,2.4,2.1,5.1,2.7,7.8c1.2,4.5,1.5,9.6,1.5,15.3v216
				c0,18.9-4.5,36.3-13.2,51.6c-8.7,15.6-26.4,23.7-53.1,24.9v16.2h156.6v-16.2h-6.6c-12,0-22.5-2.7-31.8-7.8
				c-0.6-0.3-1.2-0.9-2.1-1.2c-9.6-6-17.1-14.7-22.2-26.1c-3.3-7.5-5.7-15.9-6.9-24.9c-0.6-4.5-0.9-9.6-0.9-14.4V2520
				c0-2.7,0.3-5.1,0.9-6.9c0.9-3,2.7-4.5,5.4-4.5c2.1,0,3.9,1.5,5.7,4.5c0.9,1.5,1.5,3.3,2.4,5.4l6.9,19.8l0,0l111,317.7h21.3
				l42.9-122.1l0.9-3l74.4-212.4c0.9-3,2.1-5.4,3.3-6.9c1.5-2.1,3.3-3.3,5.4-3.3c2.1,0,3.3,1.2,4.2,3.3c0.6,1.5,0.6,3.3,0.6,5.7
				v283.5c0,16.2-2.4,27-7.2,31.8c-4.8,4.8-15.6,7.2-32.1,7.2h-27.6v16.2h233.4v-16.2h-24.6c-7.5,0-14.1-0.6-19.2-1.2
				c-2.7-0.6-4.8-0.9-6.9-1.8c-5.7-2.1-9.9-5.7-12-11.1c-2.1-5.4-3.3-13.5-3.3-24.9V2547c0-9.9,1.5-17.7,4.5-23.4
				c2.7-5.1,6.9-9,12.6-11.4c0.6-0.3,1.2-0.6,2.1-0.9c6.9-2.4,16.2-3.6,28.8-3.6h18v-16.2h-192.3l-73.8,209.1L1499.1,2712.9
				 M1776.9,2483.1h-1.8h-202.5h-2.1l-0.6,2.1l-1.5,3.9l-68.1,193.2l-54.3-170.1v-0.3l-0.3-0.3l-16.8-27l-0.9-1.5h-1.8h-200.1h-3v3
				v28.2v1.8l1.5,0.9l27,15l0.6,0.3h0.9h16.8c6.3,0,11.7,0.3,16.5,0.9c0.9,3.9,1.5,8.4,1.5,14.1v216c0,17.4-3.9,33.3-12,47.1
				c-7.2,12.6-22.5,19.5-45.6,20.4l-5.7,0.3h-3v3v27.9v1.8l1.5,0.9l27,15l0.6,0.3h0.9h156.6h3v-3v-16.2v-0.9l-0.3-0.6l-15-27
				l-0.9-1.5h-1.8h-12.6c-11.1,0-20.7-2.7-28.8-7.8c-2.1-1.2-3.9-2.7-5.4-4.2c-3.6-9.6-5.1-20.7-5.1-32.7V2574l99.3,285l1.5,3.9
				l0.3,0.9l0.9,0.6l25.2,15l0.6,0.3h0.9h21.3h2.1l0.6-2.1l99-282.3v205.5c0,19.2-3.6,24.3-4.5,25.5c-1.2,1.2-6,4.5-25.5,4.5h-33.6
				h-3v3v28.2v1.8l1.5,0.9l27,15l0.6,0.3h0.9h233.4h3v-3v-16.2v-0.9l-0.3-0.6l-15-27l-0.9-1.5h-1.8h-30.6c-6.9,0-12.6-0.3-17.1-1.2
				c0-2.4-0.3-5.1-0.3-7.8v-253.5c0-9.3,1.5-16.8,4.2-21.9c2.7-5.1,6.9-8.7,12.9-10.8c6.3-2.1,15.6-3.3,27.6-3.3h18h3v-3v-16.2v-0.9
				l-0.3-0.6l-15-27L1776.9,2483.1L1776.9,2483.1z M1579.2,2495.1h186.9v10.2h-15c-12.9,0-22.5,1.2-29.7,3.6
				c-0.9,0.3-1.5,0.6-2.4,0.9c-6.3,2.7-11.1,6.9-14.1,12.6c-3.3,6.3-4.8,14.1-4.8,24.6v253.8c0,12,1.2,20.4,3.6,26.1
				c2.7,6,7.2,10.2,13.8,12.6c2.1,0.6,4.5,1.2,7.2,1.8c5.4,0.9,12,1.5,19.5,1.5h21.6v10.2h-227.4v-10.2h24.6
				c17.4,0,28.5-2.7,34.2-8.1c5.4-5.4,8.1-16.5,8.1-33.9v-283.5c0-2.7-0.3-4.8-0.9-6.9c-1.8-4.8-5.1-5.4-7.2-5.4
				c-2.1,0-5.1,0.9-7.8,4.5c-1.5,2.1-2.7,4.8-3.6,7.8L1512,2730l-0.9,3l-42,120.3H1452l-109.8-315l-0.3-0.6l-6.9-19.8
				c-0.9-2.4-1.5-4.2-2.4-5.7c-2.1-3.9-5.1-6-8.1-6c-2.4,0-6.3,0.9-8.1,6.6c-0.6,2.1-0.9,4.8-0.9,7.8v245.1c0,5.1,0.3,10.2,0.9,15
				c1.2,9.3,3.6,18,7.2,25.8c5.4,11.7,13.2,21,23.4,27.3c0.6,0.3,1.2,0.9,2.1,1.2c9.9,5.7,21,8.4,33.3,8.4h3.6v10.2h-150.6v-10.2
				c26.1-1.8,43.8-10.5,52.8-26.4c9-15.9,13.5-33.6,13.5-53.1v-216c0-6.3-0.6-11.4-1.8-16.2c-0.6-3-1.8-6-3-8.7
				c-2.7-5.4-7.2-9.3-12.9-12c-1.2-0.6-2.7-1.2-3.6-1.5c-7.2-2.4-17.1-3.6-29.7-3.6h-13.8v-10.2h184.8l6.6,18.9l69.6,199.8l2.7,8.1
				l2.7-8.1l4.2-11.7L1579.2,2495.1L1579.2,2495.1z"/>
		</g>
	</g>
	<path class="st2" d="M759.6,1021.2"/>
	<g>
		<g>
			<g>
				<path class="st0" d="M811.8,1165.8l-30.3-22.2l-30.3,22.2l-16.2,11.7l-10.2-13.8l6-18.3l10.2-31.2l-35.4-25.5l-10.8-14.7h59.1
					l11.4-35.7l6.6-20.4l10.8,14.7l13.5,41.7h32.7h19.5l7.5,15.6l-44.4,32.1l18.9,57.9L811.8,1165.8z M804.6,1143.9l-12.3-37.5
					l32.1-23.1h-39.6l-12-37.5l-3,9.3l-9.3,28.5h-39.6l32.1,23.1l-12.3,37.5l31.8-23.4L804.6,1143.9z"/>
				<path class="st1" d="M772.5,1021.2l8.7,12l5.7,17.7l8.1,24.9h33.9h18.6l6.6,13.5l-12.9,9.3l-31.5,22.8l12,36.9l5.7,17.7
					l-15-11.1l-31.2-22.8l-31.2,22.8l-15,11.1l-8.7-12l5.7-17.7l10.5-32.4l-21-15.3l-15-10.8l-8.7-12h18.6h38.7l12-36.9
					L772.5,1021.2 M759.3,1081.8h-28.5h-14.4l34.8,25.2l-3.6,10.5l-8.1,25.2l-1.8,5.4l34.8-25.5l34.8,25.5l-13.5-41.1l34.8-25.2
					h-5.7h-26.4h-11.1l-13.2-41.1l-4.5,13.5L759.3,1081.8 M771.6,1014.6l-1.8,5.7l-5.7,17.7l-11.1,34.8h-36.6h-18.6h-6l3.6,4.8
					l8.7,12l0.3,0.3l0.3,0.3l15,10.8l19.2,14.1l-9.9,30.3l-5.7,17.7l-0.6,1.5l0.9,1.2l8.7,12l1.8,2.4l2.4-1.8l15-11.1l29.4-21.6
					l29.4,21.6l15,11.1l7.5,5.4l-3-8.7l-5.7-17.7l-11.4-34.8l29.7-21.3l12.9-9.3l2.1-1.5l-1.2-2.4l-6.6-13.5l-0.9-1.8h-1.8h-18.6
					h-31.5l-7.2-22.8l-5.7-17.7v-0.6l-0.3-0.3l-8.7-12L771.6,1014.6L771.6,1014.6z M761.4,1084.8l0.6-2.1l8.7-27.3l1.5-4.8
					l10.5,32.1l0.6,2.1h2.1h11.1H819l-27.3,19.8l-1.8,1.2l0.6,2.1L801,1140l-27.3-19.8l-1.8-1.2l-1.8,1.2l-27.3,19.8l7.2-21.6
					l3.6-10.5l0.6-2.1l-1.8-1.2l-27.3-19.8h5.1h28.5H761.4L761.4,1084.8z"/>
			</g>
		</g>
		<g>
			<polygon class="st1" points="794.1,1107 807.3,1147.8 772.5,1122.3 737.7,1147.8 739.5,1142.4 747.6,1117.5 751.2,1107 
				716.1,1081.5 730.8,1081.5 759.3,1081.8 768,1054.2 772.5,1040.7 785.7,1081.8 797.1,1081.8 823.2,1081.5 828.9,1081.5 			"/>
		</g>
	</g>
	<g>
		<g>
			<g>
				<path class="st0" d="M1209,660.3l-30.3-22.2l-46.5,33.9l-10.2-13.8l6-18.3l10.2-31.2l-35.4-25.5l-10.8-14.7h21.6h37.5l11.4-35.7
					l6.6-20.4l10.8,14.7l13.5,41.7h32.7h19.5l7.5,15.6l-44.4,32.1l18.9,57.9L1209,660.3z M1201.8,638.4l-12.3-37.5l32.1-23.1H1182
					l-12-37.5l-3,9.3l-9.3,28.5h-39.6l32.1,23.1l-12.3,37.5l31.8-23.4L1201.8,638.4z"/>
				<path class="st1" d="M1169.7,515.7l8.7,12l5.7,17.7l8.1,24.9h33.9h18.6l6.6,13.5l-12.9,9.3l-31.5,22.8l12,36.9l5.7,17.7
					l-15-11.1l-31.2-22.8l-31.2,22.8l-15,11.1l-8.7-12l5.7-17.7l10.5-32.4l-21-15.3l-15-10.8l-8.7-12h18.6h38.7l12-36.9
					L1169.7,515.7 M1156.5,576.3H1128h-14.4l34.8,25.2l-3.6,10.5l-8.1,25.2l-1.8,5.4l34.8-25.5l34.8,25.5l-13.5-41.1l34.8-25.2h-5.7
					h-26.4h-11.1l-13.2-41.1l-4.5,13.5L1156.5,576.3 M1168.8,509.1l-1.8,5.7l-5.7,17.7l-11.1,34.8h-36.6H1095h-6l3.6,4.8l8.7,12
					l0.3,0.3l0.3,0.3l15,10.8l19.2,14.1l-9.9,30.3l-5.7,17.7l-0.6,1.5l0.9,1.2l8.7,12l1.8,2.4l2.4-1.8l15-11.1l29.4-21.6l29.4,21.6
					l15,11.1l7.5,5.4l-3-8.7l-5.7-17.7l-11.4-34.8l29.7-21.3l12.9-9.3l2.1-1.5l-1.2-2.4l-6.6-13.5l-0.9-1.8h-1.8h-18.6H1194
					l-7.2-22.8l-5.7-17.7v-0.6l-0.3-0.3l-8.7-12L1168.8,509.1L1168.8,509.1z M1158.6,579.3l0.6-2.1l8.7-27.3l1.5-4.8l10.5,32.1
					l0.6,2.1h2.1h11.1h22.5l-27.3,19.8l-1.8,1.2l0.6,2.1l10.5,32.1l-27.3-19.8l-1.8-1.2l-1.8,1.2l-27.3,19.8l7.2-21.6l3.6-10.5
					l0.6-2.1l-1.8-1.2l-27.3-19.8h5.1h28.5H1158.6L1158.6,579.3z"/>
			</g>
		</g>
		<g>
			<polygon class="st1" points="1191.3,601.5 1204.5,642.3 1169.7,617.1 1134.9,642.3 1136.7,637.2 1144.8,612 1148.4,601.5 
				1113.6,576.3 1128,576.3 1156.5,576.3 1165.5,549 1169.7,535.2 1182.9,576.3 1194.3,576.3 1220.4,576.3 1226.1,576.3 			"/>
		</g>
	</g>
	<g>
		<g>
			<g>
				<path class="st0" d="M1681.2,510.9l-25.8-15.6l-1.8-4.2c-5.1-12.3-11.1-22.2-18.3-29.7l0,0c-1.5-0.6-2.7-1.2-4.2-1.5
					c-18,14.1-38.4,26.1-60.6,36c-22.5,10.2-52.2,15.3-87.9,15.3c-66.9,0-122.7-33.9-150-54c-0.6-0.6-1.2-0.9-1.5-1.2
					c-21-14.7-38.4-35.1-51.3-60c-12.9-25.2-19.5-55.5-19.5-90.3c0-39.6,9.9-75.9,29.1-107.7c19.2-31.8,46.5-56.7,81.3-74.4
					c34.5-17.4,73.5-26.4,116.4-26.4c24.3,0,47.7,3.6,69,11.1c19.8,6.9,39.3,17.4,57.6,31.5c16.5-10.8,30.3-24,41.1-39.6l2.4-3.3
					h28.2l15.6,28.2v167.1h-18.6l-26.4-15.6l-1.2-5.1c-5.1-19.2-10.2-34.8-15.3-45.9c-5.1-10.8-12.3-22.5-21.9-34.2
					c-8.4-10.5-17.7-19.8-27.9-27.9c-1.2-0.6-2.7-1.5-4.2-2.1c-22.5-11.4-44.7-17.1-66.3-17.1c-21.9,0-40.2,5.1-54.3,14.7
					c-14.7,10.2-22.5,21.3-27.9,41.1s-8.1,46.2-8.1,78.3v101.4c0,27.6,2.1,45.3,7.5,60.9c0,0,0.6,2.1,0.9,2.7
					c1.8,1.5,3.9,3.3,6.3,4.8c11.7,8.1,29.7,13.2,46.5,13.2c20.7,0,37.5-5.4,50.7-15.6c12.6-10.2,18.9-22.5,18.9-37.8v-45.9
					c0-0.3,0-0.6,0-1.2c-2.1,0-3.9-0.3-6-0.3h-19.2L1506,345l0.3-7.2l1.2-23.4h242.7l15.6,28.2v18.3H1734c-12.3,0-21,1.8-25.5,5.1
					s-6.6,9.6-6.6,18.9v125.7h-20.7V510.9z M1677.6,486.9V364.2c0-10.2,2.7-17.4,7.8-21.3c0.3-0.3,0.6-0.6,0.9-0.6
					c5.1-3.3,14.1-4.8,26.1-4.8h28.5V324h-225.6l-0.6,13.5h17.1c12,0,20.7,1.5,26.4,4.8c0.3,0.3,0.6,0.3,0.9,0.6
					c5.4,3.6,8.4,9.6,8.7,18c0,0.6,0,1.2,0,1.8v45.9c0,18-7.5,33-22.2,44.7c-14.7,11.7-33.6,17.7-56.1,17.7
					c-18,0-36.6-5.1-49.8-13.5c-0.6-0.3-1.8-1.2-1.8-1.2c-15.3-10.8-21.3-21-25.8-34.8c-5.4-15.9-7.5-33.9-7.5-61.8V258
					c0-32.4,2.7-59.1,8.4-79.2c5.7-20.4,13.5-32.1,28.8-42.9c3.6-2.4,7.5-4.8,11.7-6.6c12.6-5.7,27.3-8.7,44.1-8.7
					c11.4,0,23.1,1.5,34.8,4.8c10.8,3,21.9,7.2,32.7,12.6c21,10.8,39.6,25.5,55.2,43.8l1.2,1.5c0.6,0.9,1.5,1.8,2.1,2.7
					c9.9,12,17.7,24.3,23.1,36c5.4,11.4,10.5,27,15.6,46.2h13.8V105.9h-15c-12.6,17.7-28.5,32.4-47.7,44.1l-0.9,0.6l-0.9-0.6
					c-18.9-15-38.7-26.4-59.1-33.3s-42.6-10.5-66-10.5c-41.4,0-79.2,8.7-112.2,25.5s-59.1,40.8-77.7,71.1
					c-18.3,30.3-27.6,65.1-27.6,102.9c0,33.3,6.3,62.4,18.6,86.1c10.8,20.7,24.3,37.8,40.5,50.7c2.7,2.1,5.4,4.2,8.1,6
					c19.8,14.1,40.8,24,62.1,29.7c21.3,5.7,42.6,8.7,63,8.7c35.4,0,64.5-5.1,86.7-15c22.5-9.9,42.9-22.2,60.6-36.3l0.6-0.6l0.9,0.3
					c12.9,4.5,23.4,11.4,31.5,19.5c3.3,3.3,6.3,7.2,8.7,11.1c4.2,6,7.8,12.9,11.1,20.7h16.2V486.9z"/>
				<path class="st1" d="M1684.2,98.4l15,27v165.3h-16.5l-25.8-15l-1.2-4.5c-5.1-19.5-10.2-35.1-15.3-46.2
					c-5.1-11.1-12.6-22.5-22.2-34.5c-8.4-10.5-17.7-19.8-28.2-27.9c-1.5-0.9-3-1.5-4.5-2.4c-22.8-11.4-45-17.4-66.9-17.4
					c-21,0-39.9,4.5-55.2,15c-15.3,10.5-22.8,21.9-28.2,42s-8.1,46.2-8.1,78.9v101.4c0,29.4,2.4,46.5,7.5,61.2
					c0.3,0.9,0.6,2.1,1.2,3c2.1,1.8,4.2,3.3,6.6,5.1c12,8.4,30.3,13.5,47.4,13.5c21,0,38.4-5.4,51.6-15.9
					c12.9-10.5,19.2-23.1,19.2-39v-45.9c0-0.9,0-1.8,0-2.4c-2.4-0.3-4.8-0.3-7.2-0.3h-18.6l-27.3-15l0.3-6.3l0.6-16.2l0.3-5.7H1749
					l15,27v16.5h-30c-12.6,0-21.6,1.8-26.4,5.4c-4.8,3.6-7.2,10.2-7.2,20.1v124.2h-18.3l-25.2-15l-1.5-3.6
					c-5.1-12.3-11.4-22.5-18.6-30.3l-0.3-0.3c-1.8-0.6-3.6-1.5-5.4-2.1c-18,14.4-38.4,26.4-60.9,36.3s-51.6,15-87.3,15
					c-80.7,0-144.3-50.4-150.6-54.6c-20.7-14.7-37.8-34.8-50.7-59.7c-12.9-24.9-19.5-55.2-19.5-89.7c0-39.6,9.6-75.3,28.8-106.8
					c19.2-31.5,46.2-56.4,80.7-73.8c34.2-17.4,73.2-26.4,115.8-26.4c24.3,0,47.4,3.6,68.4,11.1c20.1,6.9,39.6,17.7,58.2,32.1
					c17.1-10.8,31.2-24.6,42.6-40.5l1.8-2.4h25.8 M1613.1,148.8c-19.2-15.3-39-26.4-59.7-33.6c-20.7-7.2-42.9-10.8-66.6-10.8
					c-41.7,0-79.5,8.4-113.1,25.5c-33.3,17.1-59.4,41.1-78,71.7c-18.6,30.6-27.9,65.4-27.9,103.8c0,33.6,6.3,62.7,18.6,87
					c10.8,20.7,24.3,37.8,40.8,51.3c2.7,2.1,5.4,4.2,8.1,6.3c20.1,14.1,41.1,24,62.7,30c21.6,5.7,42.9,8.7,63.3,8.7
					c35.7,0,64.8-5.1,87.3-15c22.5-9.9,42.9-22.2,60.9-36.3c12.6,4.5,23.1,11.1,30.9,19.2c3,3.3,6,6.9,8.7,10.8
					c4.2,6.3,8.1,13.2,11.1,21.3h18.3V364.5c0-9.9,2.4-16.5,7.2-20.1c0.3-0.3,0.6-0.3,0.9-0.6c5.1-3,13.5-4.5,25.5-4.5h30v-16.5
					h-228.6l-0.9,16.5h18.6c11.7,0,20.1,1.5,25.5,4.5c0.3,0.3,0.6,0.3,0.9,0.6c4.8,3.3,7.5,8.7,7.8,16.5c0,0.6,0,1.2,0,1.8v45.9
					c0,17.7-7.2,32.1-21.6,43.8c-14.4,11.4-32.7,17.4-55.2,17.4c-16.5,0-35.4-4.5-48.9-13.2c-0.6-0.3-1.2-0.9-1.8-1.2
					c-14.4-10.2-20.4-19.5-25.2-34.2c-5.1-14.7-7.5-31.8-7.5-61.2V258c0-32.4,2.7-58.8,8.1-78.9c5.4-20.1,13.2-31.5,28.2-42
					c3.6-2.4,7.5-4.8,11.4-6.6c12.9-6,27.6-8.4,43.5-8.4c11.4,0,22.8,1.5,34.5,4.8c10.8,3,21.6,6.9,32.4,12.6
					c21,10.8,39.3,25.2,54.6,43.2c1.2,1.5,2.4,2.7,3.3,4.2c9.9,12,17.7,24,22.8,35.7c5.4,11.7,10.5,27.3,15.6,47.1h16.5V104.4h-17.4
					C1648.2,122.1,1632.3,136.8,1613.1,148.8 M1686,95.4h-1.8h-26.4h-1.8l-0.9,1.2l-1.8,2.4c-10.5,15-24,27.9-39.9,38.4
					c-18.3-13.8-37.5-24.3-57.3-31.2c-21.6-7.5-45-11.1-69.6-11.1c-42.9,0-82.5,9-117,26.7c-34.8,17.7-62.4,42.9-81.9,75
					s-29.1,68.4-29.1,108.3c0,35.1,6.6,65.7,19.8,90.9c13.2,25.5,30.6,45.9,51.9,60.6c0.3,0.3,0.9,0.6,1.5,1.2
					c27.6,20.1,83.7,54.3,150.9,54.3c36,0,65.7-5.1,88.5-15.3c22.2-9.9,42.6-21.9,60.3-35.7c0.9,0.3,2.1,0.9,3,1.2
					c6.9,7.5,13.2,17.1,18,29.1l1.5,3.6l0.3,0.9l0.9,0.6l25.2,15l0.6,0.3h0.9h18.3h3v-3V384.6c0-8.7,2.1-14.7,6-17.7
					c4.2-3,12.6-4.8,24.6-4.8h30h3v-3v-16.5v-0.9l-0.3-0.6l-15-27l-0.9-1.5h-1.5h-240.3h-3v3l-0.3,5.7l-0.9,16.5l-0.3,6.3v1.8
					l1.5,0.9l27.3,15l0.6,0.3h0.9h18.6c1.5,0,3,0,4.5,0v45.6c0,14.7-6,26.7-18.3,36.6c-12.6,10.2-29.4,15.3-49.5,15.3
					c-16.5,0-34.2-5.1-45.6-12.9c-2.1-1.5-4.2-3-5.7-4.5c-0.3-0.6-0.3-0.9-0.6-1.5l-0.3-0.9c-5.1-15.6-7.5-33-7.2-60.3V279
					c0-32.1,2.7-58.5,8.1-78c5.4-19.2,12.6-30.3,27.3-40.2c13.8-9.6,31.8-14.4,53.4-14.4c21.3,0,43.5,5.7,65.4,17.1
					c1.2,0.6,2.7,1.2,3.9,2.1c9.9,7.8,19.2,17.1,27.3,27.3c9.6,11.7,16.8,23.1,21.9,33.9c5.1,11.1,10.2,26.4,15.3,45.6l1.2,4.5
					l0.3,1.2l1.2,0.6l25.8,15l0.6,0.3h0.9h16.5h3v-3V125.4v-0.9l-0.3-0.6l-15-27L1686,95.4L1686,95.4z M1662.3,107.4h12.9v159.3
					h-11.4c-4.8-18.9-10.2-34.2-15.3-45.3c-5.4-11.7-13.2-24-23.4-36.3c-0.6-0.9-1.5-1.8-2.1-2.7l-1.2-1.5
					c-15.6-18.3-34.2-33.3-55.5-44.1c-11.1-5.7-22.2-9.9-33-12.9c-11.7-3.3-23.7-4.8-35.1-4.8c-17.1,0-32.1,3-44.7,8.7
					c-4.2,2.1-8.4,4.2-12,6.9c-15.9,11.1-23.7,22.8-29.4,43.5c-5.4,20.1-8.4,47.1-8.4,79.5v101.4c0,28.2,2.1,46.2,7.5,62.4
					c4.8,14.4,10.8,24.6,26.4,35.7c0.6,0.6,1.2,0.9,2.1,1.2c13.5,8.7,32.4,13.8,50.4,13.8c23.1,0,42.3-6,57-18
					c15-12,22.8-27.6,22.8-45.9v-45.9c0-0.6,0-1.5,0-2.1c-0.3-8.7-3.6-15-9-18.9c-0.3-0.3-0.9-0.6-1.2-0.6c-6-3.3-14.7-5.1-27-5.1
					h-15.6l0.6-10.5H1740v10.5h-27c-12.6,0-21.6,1.8-27,5.1c-0.3,0.3-0.9,0.6-1.2,0.6c-5.7,4.2-8.4,11.7-8.4,22.5v121.2h-13.5
					c-3.3-7.5-6.9-14.1-10.8-20.1c-2.7-3.9-5.7-7.8-9-11.4c-8.1-8.7-18.9-15.3-32.1-20.1l-1.5-0.6l-1.2,0.9
					c-17.7,14.1-38.1,26.1-60.3,36c-22.2,9.9-51,14.7-86.1,14.7c-20.4,0-41.4-3-62.7-8.7s-42-15.6-61.8-29.4c-2.7-1.8-5.4-3.9-8.1-6
					c-15.9-12.9-29.4-30-39.9-50.4c-12.3-23.7-18.3-52.5-18.3-85.5c0-37.8,9.3-72,27.6-102.3c18.3-30,44.1-53.7,77.1-70.5
					s70.5-25.2,111.6-25.2c23.1,0,45.3,3.6,65.7,10.5c20.4,6.9,39.9,18.3,58.8,33l1.5,1.2l1.8-1.2
					C1633.8,139.5,1649.7,124.8,1662.3,107.4L1662.3,107.4z"/>
			</g>
		</g>
		<g>
			<g>
				<path class="st1" d="M1514.4,322.5l-0.9,16.5h18.6c11.7,0,20.1,1.5,25.5,4.5c0.3,0.3,0.6,0.3,0.9,0.6c4.8,3.3,7.5,8.7,7.8,16.5
					c0,0.6,0,1.2,0,1.8v45.9c0,17.7-7.2,32.1-21.6,43.5c-14.4,11.4-32.7,17.4-55.2,17.4c-16.5,0-35.4-4.5-48.9-13.2
					c-0.6-0.3-1.2-0.9-1.8-1.2c-14.4-10.2-20.4-19.5-25.2-34.2c-5.1-14.7-7.5-31.8-7.5-61.2V258c0-32.4,2.7-58.8,8.1-78.9
					c5.4-20.1,13.2-31.5,28.2-42c3.6-2.4,7.5-4.8,11.4-6.6c12.9-6,27.6-8.4,43.5-8.4c11.4,0,22.8,1.5,34.5,4.8
					c10.8,3,21.6,6.9,32.4,12.6c21,10.8,39.3,25.2,54.6,43.2c1.2,1.5,2.4,2.7,3.3,4.2c9.9,12,17.7,24,22.8,35.7
					c5.4,11.7,10.5,27.3,15.6,47.1h16.5V104.4h-17.4c-12.6,17.7-28.5,32.4-47.7,44.4c-19.2-15.3-39-26.4-59.7-33.6
					c-20.7-7.2-42.9-10.8-66.6-10.8c-41.7,0-79.5,8.4-113.1,25.5c-32.1,17.1-58.2,41.1-76.8,71.7c-18.6,30.6-27.9,65.4-27.9,103.8
					c0,33.6,6.3,62.7,18.6,87c10.8,20.7,24.3,37.8,40.8,51.3c2.7,2.1,5.4,4.2,8.1,6.3c20.1,14.1,41.1,24,62.7,30
					c21.6,5.7,42.9,8.7,63.3,8.7c35.7,0,64.8-5.1,87.3-15s42.9-22.2,60.9-36.3c12.6,4.5,23.1,11.1,30.9,19.2c3,3.3,6,6.9,8.7,10.8
					c4.2,6.3,8.1,13.2,11.1,21.3h18.3V364.5c0-9.9,2.4-16.5,7.2-20.1c0.3-0.3,0.6-0.3,0.9-0.6c5.1-3,13.5-4.5,25.5-4.5h30v-16.5
					h-227.7V322.5z"/>
			</g>
		</g>
		<path class="st3" d="M1311,515.7"/>
	</g>
	<g>
		<g>
			<path class="st0" d="M2212.2,272.4c1.8,0.6,3.3,1.5,5.1,2.1"/>
			<g>
				<path class="st0" d="M2127.9,665.4c-32.7,0-62.7-4.5-89.4-13.2c-24.3-8.1-50.1-21.3-72.6-37.5c-16.5-11.7-29.4-24-39.6-37.2
					c-10.5-12.9-19.2-27.6-25.8-43.2c-10.2-24.3-15.3-51.6-15.3-81c0-32.1,5.7-61.2,16.8-86.4c11.1-25.5,27-47.1,46.8-63.9
					s42.6-29.7,68.4-38.1c25.5-8.4,53.7-12.9,83.4-12.9h6.6c33.9,0.6,65.1,5.4,92.4,14.4c4.8,1.5,8.7,3,12.6,4.5
					c1.8,0.6,3.3,1.5,5.1,2.1c0.3,0,0.3,0,0.6,0.3c19.8,8.4,37.5,19.5,51.9,32.7c6,5.4,11.4,11.1,16.2,17.1l0,0l0,0
					c18.6,21.3,32.7,44.4,42,68.7c9.6,24.6,14.4,52.5,14.4,82.5c0,29.1-5.1,56.1-14.7,79.8c-9.9,23.7-24,44.1-42.3,60.6
					c-18.3,16.2-41.1,29.1-67.5,37.5C2191.5,660.9,2161.2,665.4,2127.9,665.4z M2101.2,261c-29.1,0-56.1,4.2-80.7,12.3
					c-24.6,8.1-46.5,20.4-65.4,36.6c-18.6,15.9-33.6,36.3-44.4,60.6s-16.2,52.2-16.2,82.8c0,28.2,4.8,54.3,14.4,77.4
					c0.3,0.6,0.6,1.2,0.9,1.8c9.6,22.5,23.4,42,41.4,57.9c18.3,16.5,41.1,29.1,67.2,37.8c23.1,7.8,49.2,12,77.1,12.9
					c3.6,0,7.5,0.3,11.4,0.3c25.5,0,49.2-2.7,70.5-7.5l0,0l1.2-0.3c5.7-1.5,11.7-3,17.7-4.8c26.1-8.4,48.6-21,66.6-36.9
					c18-15.9,32.1-36,41.7-59.4c9.6-23.4,14.4-50.1,14.4-78.9c0-30.6-4.8-57.9-14.1-81.3c-9.3-23.4-23.1-43.2-40.8-59.4
					c-17.7-16.2-40.2-28.8-66.6-37.5c-3-0.9-6-1.8-9-2.7c-24.3-6.9-51.6-10.8-80.7-11.4h-6.6V261z"/>
				<path class="st1" d="M2107.5,253.5c33.6,0.6,64.5,5.4,92.1,14.4c4.2,1.5,8.4,3,12.3,4.5c1.8,0.6,3.3,1.5,5.1,2.1
					c0,0,0.3,0,0.3,0.3c20.1,8.4,37.2,19.2,51.6,32.4c5.7,5.4,11.1,11.1,16.2,17.1c0,0,0,0,0.3,0.3c16.5,18.9,31.8,42,41.7,68.4
					c9.3,23.7,14.4,51,14.4,81.9c0,29.1-4.8,55.5-14.7,79.2c-9.6,23.7-23.7,43.8-42,60c-18.3,16.2-40.5,28.8-67.2,37.2
					c-26.4,8.7-56.4,12.9-90,12.9c-32.7,0-62.4-4.5-88.8-13.2s-51.9-22.8-72-37.2c-16.2-11.4-29.1-23.7-39-36.9
					c-10.5-12.9-18.9-27.3-25.5-42.9c-9.9-24.3-15-51.3-15-80.4c0-31.8,5.7-60.6,16.8-85.8c11.1-25.2,26.7-46.5,46.2-63.3
					s42.3-29.4,67.8-37.8c25.5-8.4,53.4-12.6,83.1-12.6h6.3 M2106.9,642.9c26.1,0,50.1-2.7,72-7.8l0,0c6-1.5,12-3,17.7-5.1
					c26.4-8.7,48.9-21,67.2-37.2c18.3-16.2,32.4-36.3,42-60c9.6-23.7,14.7-50.1,14.7-79.2c0-30.9-4.8-58.2-14.4-81.9
					c-9.6-23.7-23.1-43.5-41.1-60c-18-16.2-40.2-28.8-67.2-37.8c-3-0.9-6-1.8-9-2.7c-24.6-7.2-51.6-10.8-81-11.4h-6.3
					c-29.1,0-56.4,4.2-81.3,12.3c-24.9,8.4-46.8,20.4-66,36.9c-18.9,16.2-33.9,36.6-44.7,61.2s-16.2,52.2-16.2,83.4
					c0,28.5,4.8,54.6,14.7,78c0.3,0.6,0.6,1.2,0.9,1.8c9.6,22.8,23.7,42.3,41.7,58.5c18.6,16.5,41.1,29.4,67.5,38.1
					c23.4,7.8,49.2,12,77.4,12.9C2099.1,642.6,2103,642.9,2106.9,642.9 M2107.5,250.5L2107.5,250.5h-6.6c-30,0-58.2,4.2-84,12.9
					c-25.8,8.7-48.9,21.6-69,38.4c-19.8,17.1-35.7,38.7-47.1,64.5c-11.4,25.5-17.1,54.9-17.1,87c0,29.4,5.1,57,15.3,81.6
					c6.6,15.9,15.3,30.6,25.8,43.5c10.2,13.5,23.1,25.8,39.6,37.5c22.5,16.2,48.6,29.4,72.9,37.5c26.7,8.7,57,13.2,89.7,13.2
					c33.6,0,64.2-4.5,90.9-13.2c26.7-8.7,49.8-21.6,68.1-37.8c18.6-16.5,33-37.2,42.9-61.2c9.9-24,14.7-51,14.7-80.4
					c0-30.3-4.8-58.2-14.4-83.1c-9.6-24.6-23.7-47.7-42.3-69l-0.3-0.3c-4.8-6-10.5-11.7-16.2-17.1c-14.4-13.2-32.1-24.3-52.2-33
					c-0.3,0-0.3-0.3-0.6-0.3c-1.5-0.6-3.3-1.5-5.1-2.1c-3.6-1.5-7.8-3-12.6-4.5C2172.9,255.9,2141.7,251.1,2107.5,250.5
					L2107.5,250.5L2107.5,250.5z M2106.9,639.9c-3.9,0-7.5,0-11.1-0.3c-27.9-0.9-53.7-5.1-76.5-12.9c-25.8-8.7-48.3-21.3-66.6-37.5
					c-17.7-15.9-31.5-35.1-41.1-57.3c-0.3-0.6-0.6-1.2-0.9-1.8c-9.6-23.1-14.4-48.9-14.4-76.8c0-30.6,5.4-58.2,15.9-82.2
					c10.5-24,25.2-44.1,43.8-60c18.6-15.9,40.5-28.2,64.8-36.3c24.6-8.1,51.3-12.3,80.1-12.3h6.3c29.1,0.3,56.1,4.2,80.4,11.1
					c3,0.9,6,1.8,9,2.7c26.4,8.7,48.6,21.3,66.3,37.2c17.4,15.9,31.2,35.7,40.2,58.8c9.3,23.1,14.1,50.4,14.1,80.7
					c0,28.5-4.8,54.9-14.4,78.3c-9.6,23.1-23.4,42.9-41.1,58.8c-17.7,15.9-40.2,28.2-66,36.6c-6,2.1-11.7,3.6-17.7,4.8l-2.4,0.6l0,0
					C2154.9,637.2,2131.8,639.9,2106.9,639.9L2106.9,639.9z"/>
			</g>
		</g>
		<g>
			<g>
				<path class="st1" d="M2306.1,371.4c-9.6-23.7-23.1-43.5-41.1-60c-18-16.5-40.2-28.8-67.2-37.8c-3-0.9-6-1.8-9-2.7
					c-24.6-7.2-51.6-10.8-81-11.4h-6.3c-29.1,0-56.4,4.2-81.3,12.3c-24.9,8.4-46.8,20.4-66,36.9c-18.9,16.2-33.9,36.6-44.7,61.2
					c-10.8,24.6-16.2,52.5-16.2,83.4c0,28.5,4.8,54.6,14.7,78c0.3,0.6,0.6,1.2,0.9,1.8c9.6,22.8,23.7,42.3,41.7,58.5
					c18.6,16.5,41.1,29.4,67.5,38.1c23.4,7.8,49.2,12,77.4,12.9c3.6,0,7.5,0.3,11.4,0.3c26.1,0,50.1-2.7,72-7.8l0,0
					c6-1.5,12-3,17.7-5.1c26.4-8.7,48.9-21,67.2-37.2c18.3-16.2,32.4-36.3,42-60c9.6-23.7,14.7-50.1,14.7-79.2
					C2320.5,422.4,2315.7,395.1,2306.1,371.4z M2176.8,594c-6.3,11.4-12.6,17.4-25.5,23.4c-14.7,6.6-31.5,9-47.4,9
					c-17.1,0-33.9-4.5-46.8-12.6c-3.3-2.1-6.6-4.5-9.3-6.9c-15-14.1-19.8-27.9-23.4-49.8c-3.6-21.6-5.4-48.9-5.4-81.6V417
					c0-35.7,2.4-63.6,7.5-84c3.9-15.3,8.7-25.2,16.8-33.9c0.6-0.6,1.5-1.5,2.1-2.1c1.5-1.5,3-2.7,4.8-4.2c0.9-0.6,1.8-1.5,2.7-2.1
					c1.2-0.9,2.7-2.1,4.2-2.7c13.8-8.1,33-12,51-12c10.2,0,21.3,1.5,30.9,3.9c9,2.4,17.1,5.7,22.8,9.9c6.6,4.8,12,10.5,16.2,18
					c3.9,6.6,6.9,14.7,9,24.3c4.8,20.1,6.9,49.5,6.9,87.6v55.8c0,30-1.5,54.3-4.2,72.9C2187.6,567.3,2183.1,582.3,2176.8,594z"/>
				<path class="st0" d="M2045.7,297c1.5-1.5,3-2.7,4.8-4.2C2048.7,294.3,2047.2,295.5,2045.7,297z M2045.7,297
					c1.5-1.5,3-2.7,4.8-4.2C2048.7,294.3,2047.2,295.5,2045.7,297z M2045.7,297c1.5-1.5,3-2.7,4.8-4.2
					C2048.7,294.3,2047.2,295.5,2045.7,297z"/>
				<g>
					<path class="st0" d="M2103.9,627.6c-17.4,0-34.8-4.5-47.7-12.6c-3.6-2.1-6.9-4.5-9.6-7.2c-15.3-14.4-20.1-28.8-23.7-50.4
						c-3.6-21.9-5.4-49.2-5.4-81.9V417c0-35.7,2.7-63.9,7.8-84.3c3.9-15.9,9-26.1,17.1-34.5c0.6-0.6,1.5-1.5,2.1-2.1
						c1.5-1.2,3-2.7,4.8-4.2c0.9-0.9,1.8-1.5,2.7-2.1c1.5-1.2,3-2.1,4.5-3c12.9-7.8,31.8-12.3,51.6-12.3c10.2,0,21.3,1.5,31.2,3.9
						c9.6,2.4,17.7,6,23.4,9.9c6.9,5.1,12.3,11.1,16.8,18.6c3.9,6.9,6.9,15,9.3,24.6c4.5,20.1,6.9,49.8,6.9,87.9v55.8
						c0,29.7-1.5,54.3-4.2,73.2c-2.7,18.9-7.5,34.5-13.8,45.9c-6.6,12-13.2,18-26.4,24C2138.7,624.6,2122.8,627.6,2103.9,627.6z
						 M2052.6,600.9L2052.6,600.9c11.7,11.1,31.5,18,51.3,18c17.4,0,32.4-2.7,44.1-8.4c11.4-5.1,16.8-10.2,22.2-20.1
						c5.7-10.8,10.2-25.2,12.6-42.9c2.7-18.6,3.9-42.6,3.9-72v-55.8c0-37.5-2.4-66.3-6.9-85.8c-2.7-12.3-7.2-21.9-13.2-29.1
						c-11.1-3.9-24.9-6-37.8-6c-21.6,0-42,5.4-54.3,14.7c-13.8,10.5-20.7,21.3-25.8,41.4c-5.1,20.1-7.5,48.3-7.5,83.7v58.2
						c0,32.4,1.8,59.7,5.4,81.3C2048.4,587.4,2050.2,594.6,2052.6,600.9L2052.6,600.9z"/>
					<path class="st1" d="M2108.1,276c10.2,0,21.3,1.5,30.9,3.9c9,2.4,17.1,5.7,22.8,9.9c6.6,4.8,12,10.5,16.2,18
						c3.9,6.6,6.9,14.7,9,24.3c4.8,20.1,6.9,49.5,6.9,87.6v55.8c0,30-1.5,54.3-4.2,72.9c-2.7,18.9-7.2,33.9-13.5,45.6
						c-6.3,11.4-12.6,17.4-25.5,23.4c-14.7,6.6-31.5,9-47.4,9c-17.1,0-33.9-4.5-46.8-12.6c-3.3-2.1-6.6-4.5-9.3-6.9
						c-15-14.1-19.8-27.9-23.4-49.8c-3.6-21.6-5.4-48.9-5.4-81.6V417c0-35.7,2.4-63.6,7.5-84c3.9-15.3,8.7-25.2,16.8-33.9
						c0.6-0.6,1.5-1.5,2.1-2.1c1.5-1.5,3-2.7,4.8-4.2c0.9-0.6,1.8-1.5,2.7-2.1c1.2-0.9,2.7-2.1,4.2-2.7
						C2070.9,279.9,2090.4,276,2108.1,276 M2103.9,620.1c17.7,0,32.7-2.7,44.7-8.4c11.7-5.4,17.1-10.5,22.8-20.7
						c6-10.8,10.2-25.5,12.9-43.5c2.7-18.6,4.2-42.6,4.2-72.3v-55.8c0-37.5-2.4-66.6-6.9-86.1c-3-12.6-7.2-22.5-13.8-30.3
						c-11.4-3.9-25.5-6.3-38.7-6.3c-19.8,0-41.4,4.8-55.2,14.7c-14.4,10.8-21.3,21.9-26.4,42.3c-5.1,20.4-7.5,48.3-7.5,84v58.2
						c0,32.7,1.8,60,5.4,81.6c1.5,9,3.3,16.8,5.7,23.7c0.3,0.3,0.3,0.3,0.6,0.6C2063.7,613.2,2083.5,620.1,2103.9,620.1 M2108.1,273
						c-20.1,0-39.3,4.5-52.5,12.6c-1.5,0.9-3,1.8-4.5,3c-0.9,0.6-1.8,1.2-2.4,1.8l-0.3,0.3c-2.1,1.5-3.6,3-4.8,4.2
						c-0.6,0.6-1.5,1.5-2.1,2.1c-8.4,8.7-13.5,19.2-17.7,35.4c-5.1,20.4-7.8,48.9-7.8,84.6v58.2c0,32.7,1.8,60.3,5.4,82.2
						c3.6,21.9,8.4,36.6,24.3,51.3c3,2.7,6.3,5.1,9.9,7.5c13.2,8.1,30.9,12.9,48.3,12.9c18.9,0,35.4-3,48.6-9.3
						c13.2-6,20.4-12.6,27-24.6c6.3-11.7,11.1-27.3,13.8-46.5c2.7-18.9,4.2-43.5,4.2-73.5v-55.8c0-38.1-2.4-67.8-6.9-88.2
						c-2.4-9.9-5.4-18.3-9.3-25.2c-4.5-7.8-10.2-14.1-17.1-19.2c-6-4.2-14.1-7.8-24-10.2C2130,274.5,2118.6,273,2108.1,273
						L2108.1,273z M2053.8,600c-2.1-6-3.9-12.9-5.4-22.5c-3.6-21.6-5.4-48.9-5.4-81V438c0-35.4,2.4-63.3,7.5-83.4
						c5.1-19.8,11.4-30.3,25.2-40.5c12-9,32.1-14.4,53.4-14.4c12.6,0,26.1,2.1,36.9,6c5.7,7.2,9.9,16.2,12.6,28.2
						c4.5,19.5,6.6,48.3,6.6,85.5v55.8c0,29.1-1.5,53.4-3.9,71.7c-2.7,17.7-6.9,32.1-12.6,42.6c-5.4,9.9-10.5,14.4-21.3,19.5
						c-11.7,5.4-26.4,8.1-43.5,8.1C2084.4,617.1,2065.2,610.5,2053.8,600L2053.8,600L2053.8,600z"/>
				</g>
			</g>
		</g>
	</g>
</g>
</svg>
